<?xml version="1.0" encoding="UTF-8" standalone="no"?>
<!-- Created with Inkscape (http://www.inkscape.org/) -->

<svg
   xmlns:dc="http://purl.org/dc/elements/1.1/"
   xmlns:cc="http://creativecommons.org/ns#"
   xmlns:rdf="http://www.w3.org/1999/02/22-rdf-syntax-ns#"
   xmlns:svg="http://www.w3.org/2000/svg"
   xmlns="http://www.w3.org/2000/svg"
   xmlns:sodipodi="http://sodipodi.sourceforge.net/DTD/sodipodi-0.dtd"
   xmlns:inkscape="http://www.inkscape.org/namespaces/inkscape"
   width="210mm"
   height="297mm"
   viewBox="0 0 210 297"
   version="1.1"
   id="svg29449"
   inkscape:version="0.92.3 (2405546, 2018-03-11)"
   sodipodi:docname="Betel leaf.svg">
  <defs
     id="defs29443" />
  <sodipodi:namedview
     id="base"
     pagecolor="#ffffff"
     bordercolor="#666666"
     borderopacity="1.0"
     inkscape:pageopacity="0.0"
     inkscape:pageshadow="2"
     inkscape:zoom="0.98994949"
     inkscape:cx="137.78974"
     inkscape:cy="660.3974"
     inkscape:document-units="mm"
     inkscape:current-layer="layer1"
     showgrid="false"
     inkscape:object-paths="true"
     inkscape:window-width="958"
     inkscape:window-height="1008"
     inkscape:window-x="953"
     inkscape:window-y="0"
     inkscape:window-maximized="0" />
  <metadata
     id="metadata29446">
    <rdf:RDF>
      <cc:Work
         rdf:about="">
        <dc:format>image/svg+xml</dc:format>
        <dc:type
           rdf:resource="http://purl.org/dc/dcmitype/StillImage" />
        <dc:title></dc:title>
      </cc:Work>
    </rdf:RDF>
  </metadata>
  <g
     inkscape:label="Layer 1"
     inkscape:groupmode="layer"
     id="layer1">
    <path
       id="path30099"
       style="fill:#000000;fill-opacity:0.24747476;stroke:none;stroke-width:0.26458332px;stroke-linecap:butt;stroke-linejoin:miter;stroke-opacity:1"
       d="M 69.15464,97.191665 C 56.061959,110.87726 49.430984,126.263 42.96244,141.69179 c 2.115662,-1.58674 10.139018,-6.85884 16.963305,-9.65057 16.277703,-6.65901 31.267227,-27.3287 9.228895,-34.849555 z m -7.295645,8.626915 c -10.7975,2.70224 -16.069569,26.00889 -18.683613,35.12757 -0.06797,0.27278 -0.138324,0.52454 -0.212908,0.74569 5.140974,-12.26227 10.388484,-24.49617 18.897039,-35.87223 -1.58e-4,-2.6e-4 -2.64e-4,-7.9e-4 -5.29e-4,-10e-4 z m 7.9e-5,3e-5 c -11.0875,2.77482 -16.357293,27.3204 -18.8966,35.87322 8.285109,-8.68605 24.306755,-23.73406 18.8966,-35.87322 z m 1.3032,-7.037847 c -15.038715,-0.143372 -17.203885,27.728987 -19.61379,40.232167 -0.168955,1.09279 -0.36123,2.01241 -0.58601,2.67891 6.122676,-14.60383 12.394314,-29.16846 24.149947,-42.289925 -7.94e-4,-7.94e-4 -0.0013,-0.0013 -0.0021,-0.0021 -1.40662,-0.408961 -2.720231,-0.607377 -3.94808,-0.619083 z m 3.947911,0.619104 C 47.104905,93.583522 45.902194,130.33308 42.962229,141.69204 50.980313,133.27305 86.714562,118.84695 67.110185,99.399867 Z M 69.15464,97.191665 C 57.396484,85.005708 45.865319,99.154747 44.800592,121.2508 c -0.366323,7.60221 -0.711745,17.10067 -1.838363,20.44124 6.468544,-15.42879 13.099729,-30.81478 26.192411,-44.500375 z m 0,0 C 57.396484,85.005708 45.865319,99.154747 44.800592,121.2508 c -0.366323,7.60221 -0.711745,17.10067 -1.838363,20.44124 2.115659,-1.58674 10.139317,-6.8591 16.963605,-9.65083 16.277702,-6.65901 31.267137,-27.32869 9.228806,-34.849545 z m -0.756119,-0.747898 c 0.869472,-1.750938 0.656859,-2.955737 0.278884,-4.066042 1.41741,0.425222 2.905692,1.015809 3.330917,0.755951 -1.393788,1.559153 -2.35471,2.063607 -1.874248,4.409967 0.48046,2.346356 -2.236245,-0.06324 -2.141749,-0.134112 0.09449,-0.07087 0.406196,-0.965764 0.406196,-0.965764 z" />
    <g
       id="g30028"
       transform="translate(2.3623512,0.28348214)">
      <path
         inkscape:connector-curvature="0"
         id="path30018"
         d="m 64.591278,94.998147 c 0.869472,-1.750938 0.65686,-2.955737 0.278884,-4.066042 1.41741,0.425222 2.905692,1.015809 3.330917,0.755951 -1.393788,1.559153 -2.35471,2.063607 -1.874248,4.409967 0.48046,2.346356 -2.236245,-0.06324 -2.141749,-0.134112 0.09449,-0.07087 0.406196,-0.965764 0.406196,-0.965764 z"
         style="fill:#7add7a;fill-opacity:1;stroke:none;stroke-width:0.26458332px;stroke-linecap:butt;stroke-linejoin:miter;stroke-opacity:1" />
      <path
         style="fill:#7add7a;stroke:none;stroke-width:0.26458332px;stroke-linecap:butt;stroke-linejoin:miter;stroke-opacity:1;fill-opacity:1"
         d="M 65.347397,95.746045 C 53.589241,83.560088 42.058077,97.709127 40.99335,119.80518 c -0.366323,7.60221 -0.711745,17.10067 -1.838364,20.44124 2.11566,-1.58674 10.139318,-6.8591 16.963605,-9.65083 16.277703,-6.65901 31.267138,-27.32869 9.228806,-34.849545 z"
         id="path29996"
         inkscape:connector-curvature="0"
         sodipodi:nodetypes="cscsc" />
      <path
         sodipodi:nodetypes="ccc"
         inkscape:connector-curvature="0"
         id="path29998"
         d="M 63.302943,97.954247 C 43.297663,92.137902 42.094951,128.88746 39.154986,140.24642 47.17307,131.82743 82.907319,117.40133 63.302943,97.954247 Z"
         style="fill:#63d463;fill-opacity:1;stroke:none;stroke-width:0.26458332px;stroke-linecap:butt;stroke-linejoin:miter;stroke-opacity:1" />
      <path
         inkscape:connector-curvature="0"
         id="path30006"
         d="m 58.051832,104.37299 c -11.0875,2.77482 -16.357293,27.3204 -18.8966,35.87322 8.285109,-8.68605 24.306755,-23.73406 18.8966,-35.87322 z"
         style="fill:#46cd46;fill-opacity:1;stroke:none;stroke-width:0.26458332px;stroke-linecap:butt;stroke-linejoin:miter;stroke-opacity:1" />
      <path
         inkscape:connector-curvature="0"
         id="path30013"
         d="M 65.347397,95.746045 C 52.254716,109.43164 45.623742,124.81738 39.155198,140.24617 c 2.115661,-1.58674 10.139018,-6.85884 16.963305,-9.65057 16.277703,-6.65901 31.267227,-27.3287 9.228894,-34.849555 z"
         style="fill:#000000;fill-opacity:0.07070707;stroke:none;stroke-width:0.26458332px;stroke-linecap:butt;stroke-linejoin:miter;stroke-opacity:1" />
    </g>
    <path
       id="path30072"
       style="fill:#000000;fill-opacity:0.30808082;stroke:none;stroke-width:0.26458332px;stroke-linecap:butt;stroke-linejoin:miter;stroke-opacity:1"
       d="m 70.09958,96.95543 c 9.754762,16.23448 12.832005,32.70328 15.741325,49.17828 -1.713961,-2.01398 -8.378194,-8.92464 -14.41946,-13.15167 C 57.011452,122.89947 46.945635,99.434581 70.09958,96.95543 Z m 5.215081,10.02262 c 9.936516,5.01535 9.942656,28.91085 10.482862,38.38142 0.0062,0.28105 0.01932,0.54213 0.04334,0.77427 -2.312226,-13.09375 -4.734619,-26.18332 -10.526934,-39.15479 2.13e-4,-2.3e-4 4.33e-4,-7.2e-4 7.5e-4,-9.2e-4 z m -8.5e-5,2e-5 c 10.203391,5.15006 9.934278,30.25352 10.526287,39.15567 -6.167185,-10.29836 -18.478652,-28.50725 -10.526287,-39.15567 z m 0.279838,-7.152018 c 14.700573,3.174378 10.670013,30.838628 10.265221,43.565508 -0.07603,1.10315 -0.09114,2.04254 -0.01877,2.74218 -2.75376,-15.59408 -5.661456,-31.18278 -14.236365,-46.57234 9.49e-4,-5.99e-4 0.0016,-9.99e-4 0.0025,-0.0016 1.462164,-0.08892 2.787206,0.007 3.987447,0.266214 z M 71.607127,99.559898 C 92.402365,98.295307 85.476656,134.4064 85.841057,146.134 79.875477,136.15498 48.199001,114.20845 71.607127,99.559898 Z M 70.09958,96.95543 c 14.154608,-9.295098 22.28411,7.04731 18.453142,28.83476 -1.318055,7.49603 -3.074392,16.83709 -2.711665,20.34381 -2.90932,-16.475 -5.986714,-32.94409 -15.741477,-49.17857 z m 0,0 c 14.154608,-9.295098 22.28411,7.04731 18.453142,28.83476 -1.318055,7.49603 -3.074392,16.83709 -2.711665,20.34381 -1.71396,-2.01398 -8.378429,-8.92496 -14.419696,-13.15199 C 57.011369,122.89945 46.945636,99.434581 70.09958,96.95543 Z m 0.902351,-0.562877 c -0.462224,-1.899503 0.01067,-3.027826 0.624045,-4.027535 -1.476272,0.102399 -3.058117,0.350479 -3.41562,0.0033 1.015915,1.827982 1.842041,2.531802 0.856302,4.71459 -0.985737,2.182786 2.195202,0.431138 2.118648,0.341183 -0.07655,-0.08995 -0.183375,-1.031537 -0.183375,-1.031538 z" />
    <g
       transform="matrix(-0.97541419,-0.22037956,-0.22037956,0.97541419,155.84318,17.401733)"
       id="g30046">
      <path
         style="fill:#7add7a;fill-opacity:1;stroke:none;stroke-width:0.26458332px;stroke-linecap:butt;stroke-linejoin:miter;stroke-opacity:1"
         d="m 64.591278,94.998147 c 0.869472,-1.750938 0.65686,-2.955737 0.278884,-4.066042 1.41741,0.425222 2.905692,1.015809 3.330917,0.755951 -1.393788,1.559153 -2.35471,2.063607 -1.874248,4.409967 0.48046,2.346356 -2.236245,-0.06324 -2.141749,-0.134112 0.09449,-0.07087 0.406196,-0.965764 0.406196,-0.965764 z"
         id="path30030"
         inkscape:connector-curvature="0" />
      <path
         sodipodi:nodetypes="cscsc"
         inkscape:connector-curvature="0"
         id="path30032"
         d="M 65.347397,95.746045 C 53.589241,83.560088 42.058077,97.709127 40.99335,119.80518 c -0.366323,7.60221 -0.711745,17.10067 -1.838364,20.44124 2.11566,-1.58674 10.139318,-6.8591 16.963605,-9.65083 16.277703,-6.65901 31.267138,-27.32869 9.228806,-34.849545 z"
         style="fill:#7add7a;stroke:none;stroke-width:0.26458332px;stroke-linecap:butt;stroke-linejoin:miter;stroke-opacity:1;fill-opacity:1" />
      <path
         style="fill:#63d463;fill-opacity:1;stroke:none;stroke-width:0.26458332px;stroke-linecap:butt;stroke-linejoin:miter;stroke-opacity:1"
         d="M 63.302943,97.954247 C 43.297663,92.137902 42.094951,128.88746 39.154986,140.24642 47.17307,131.82743 82.907319,117.40133 63.302943,97.954247 Z"
         id="path30036"
         inkscape:connector-curvature="0"
         sodipodi:nodetypes="ccc" />
      <path
         style="fill:#46cd46;fill-opacity:1;stroke:none;stroke-width:0.26458332px;stroke-linecap:butt;stroke-linejoin:miter;stroke-opacity:1"
         d="m 58.051832,104.37299 c -11.0875,2.77482 -16.357293,27.3204 -18.8966,35.87322 8.285109,-8.68605 24.306755,-23.73406 18.8966,-35.87322 z"
         id="path30040"
         inkscape:connector-curvature="0" />
      <path
         style="fill:#000000;fill-opacity:0.07070707;stroke:none;stroke-width:0.26458332px;stroke-linecap:butt;stroke-linejoin:miter;stroke-opacity:1"
         d="M 65.347431,95.746092 C 52.25475,109.43168 45.623776,124.81742 39.155232,140.24621 c 2.115661,-1.58674 10.139018,-6.85884 16.963305,-9.65057 16.277703,-6.65901 31.267227,-27.3287 9.228894,-34.849548 z"
         id="path30044"
         inkscape:connector-curvature="0" />
    </g>
  </g>
</svg>
