<?xml version="1.0" encoding="UTF-8" standalone="no"?>
<!-- Created with Inkscape (http://www.inkscape.org/) -->

<svg
   xmlns:dc="http://purl.org/dc/elements/1.1/"
   xmlns:cc="http://creativecommons.org/ns#"
   xmlns:rdf="http://www.w3.org/1999/02/22-rdf-syntax-ns#"
   xmlns:svg="http://www.w3.org/2000/svg"
   xmlns="http://www.w3.org/2000/svg"
   xmlns:sodipodi="http://sodipodi.sourceforge.net/DTD/sodipodi-0.dtd"
   xmlns:inkscape="http://www.inkscape.org/namespaces/inkscape"
   width="210mm"
   height="297mm"
   viewBox="0 0 210 297"
   version="1.1"
   id="svg1696"
   inkscape:version="0.92.3 (2405546, 2018-03-11)"
   sodipodi:docname="Ca.svg">
  <defs
     id="defs1690" />
  <sodipodi:namedview
     id="base"
     pagecolor="#ffffff"
     bordercolor="#666666"
     borderopacity="1.0"
     inkscape:pageopacity="0.0"
     inkscape:pageshadow="2"
     inkscape:zoom="11.2"
     inkscape:cx="342.59539"
     inkscape:cy="537.70786"
     inkscape:document-units="mm"
     inkscape:current-layer="layer1"
     showgrid="false"
     inkscape:window-width="1920"
     inkscape:window-height="1017"
     inkscape:window-x="-8"
     inkscape:window-y="-8"
     inkscape:window-maximized="1" />
  <metadata
     id="metadata1693">
    <rdf:RDF>
      <cc:Work
         rdf:about="">
        <dc:format>image/svg+xml</dc:format>
        <dc:type
           rdf:resource="http://purl.org/dc/dcmitype/StillImage" />
        <dc:title></dc:title>
      </cc:Work>
    </rdf:RDF>
  </metadata>
  <g
     inkscape:label="Layer 1"
     inkscape:groupmode="layer"
     id="layer1">
    <path
       inkscape:connector-curvature="0"
       style="opacity:1;fill:#ececec;fill-opacity:1;fill-rule:nonzero;stroke:none;stroke-width:1.32291663;stroke-linecap:round;stroke-linejoin:miter;stroke-miterlimit:4;stroke-dasharray:none;stroke-opacity:1"
       d="m 99.083484,154.88095 a 5.3453898,5.3453898 0 0 1 -5.34539,5.34539 5.3453898,5.3453898 0 0 1 -5.345388,-5.34539 5.3453898,5.3453898 0 0 1 5.345388,-5.34539 5.3453898,5.3453898 0 0 1 5.34539,5.34539 z"
       id="circle1434" />
    <g
       aria-label="Ca"
       style="font-style:normal;font-variant:normal;font-weight:normal;font-stretch:normal;font-size:8.36851215px;line-height:1.25;font-family:'Bebas Neue';-inkscape-font-specification:'Bebas Neue';letter-spacing:0px;word-spacing:0px;fill:#000000;fill-opacity:1;stroke:#000000;stroke-width:0.41851625;stroke-linejoin:round;stroke-miterlimit:4;stroke-dasharray:none;stroke-opacity:1"
       id="text2258">
      <path
         d="m 92.03022,157.84637 c 0.887062,0 1.355699,-0.53559 1.355699,-1.43939 v -0.82848 h -0.870325 v 0.89543 c 0,0.38495 -0.184107,0.53558 -0.460268,0.53558 -0.276161,0 -0.460268,-0.15063 -0.460268,-0.53558 v -3.27209 c 0,-0.38495 0.184107,-0.54395 0.460268,-0.54395 0.276161,0 0.460268,0.159 0.460268,0.54395 v 0.67785 h 0.870325 v -0.61927 c 0,-0.9038 -0.468637,-1.43938 -1.355699,-1.43938 -0.887062,0 -1.355699,0.53558 -1.355699,1.43938 v 3.14656 c 0,0.9038 0.468637,1.43939 1.355699,1.43939 z"
         style="letter-spacing:0px;stroke:#000000;stroke-width:0.41851625;stroke-linejoin:round;stroke-miterlimit:4;stroke-dasharray:none;stroke-opacity:1"
         id="path2278" />
      <path
         d="m 93.693985,157.76268 h 0.853588 l 0.16737,-1.14649 h 1.046064 v -0.0167 l 0.167371,1.16322 h 0.920536 l -0.95401,-5.85796 h -1.246909 z m 1.129749,-1.94149 0.401689,-2.89551 h 0.01674 l 0.410057,2.89551 z"
         style="letter-spacing:0px;stroke:#000000;stroke-width:0.41851625;stroke-linejoin:round;stroke-miterlimit:4;stroke-dasharray:none;stroke-opacity:1"
         id="path2280" />
    </g>
  </g>
</svg>
