<?xml version="1.0" encoding="UTF-8" standalone="no"?>
<!-- Created with Inkscape (http://www.inkscape.org/) -->

<svg
   xmlns:dc="http://purl.org/dc/elements/1.1/"
   xmlns:cc="http://creativecommons.org/ns#"
   xmlns:rdf="http://www.w3.org/1999/02/22-rdf-syntax-ns#"
   xmlns:svg="http://www.w3.org/2000/svg"
   xmlns="http://www.w3.org/2000/svg"
   xmlns:sodipodi="http://sodipodi.sourceforge.net/DTD/sodipodi-0.dtd"
   xmlns:inkscape="http://www.inkscape.org/namespaces/inkscape"
   width="210mm"
   height="297mm"
   viewBox="0 0 210 297"
   version="1.1"
   id="svg879"
   inkscape:version="0.92.3 (2405546, 2018-03-11)"
   sodipodi:docname="Jack jack.svg">
  <defs
     id="defs873" />
  <sodipodi:namedview
     id="base"
     pagecolor="#ffffff"
     bordercolor="#666666"
     borderopacity="1.0"
     inkscape:pageopacity="0.0"
     inkscape:pageshadow="2"
     inkscape:zoom="1.4"
     inkscape:cx="384.09395"
     inkscape:cy="620.36824"
     inkscape:document-units="mm"
     inkscape:current-layer="layer2"
     showgrid="false"
     inkscape:window-width="1920"
     inkscape:window-height="1017"
     inkscape:window-x="-8"
     inkscape:window-y="-8"
     inkscape:window-maximized="1" />
  <metadata
     id="metadata876">
    <rdf:RDF>
      <cc:Work
         rdf:about="">
        <dc:format>image/svg+xml</dc:format>
        <dc:type
           rdf:resource="http://purl.org/dc/dcmitype/StillImage" />
        <dc:title></dc:title>
      </cc:Work>
    </rdf:RDF>
  </metadata>
  <g
     inkscape:label="Layer 1"
     inkscape:groupmode="layer"
     id="layer1">
    <path
       style="opacity:1;fill:#f1d9d6;fill-opacity:1;fill-rule:nonzero;stroke:none;stroke-width:0.52916664;stroke-linecap:round;stroke-linejoin:round;stroke-miterlimit:4;stroke-dasharray:none;stroke-opacity:1"
       d="m 155.82044,138.40498 c -2.79015,10.41298 -27.52955,28.9693 -42.76543,28.9693 -15.235877,0 -39.292944,-16.0098 -42.765429,-28.9693 -4.18229,-15.60852 6.750717,-55.238643 42.765429,-55.238643 36.01471,0 46.67344,40.653743 42.76543,55.238643 z"
       id="path1424"
       inkscape:connector-curvature="0"
       sodipodi:nodetypes="szszs" />
    <path
       style="fill:#f49c34;fill-opacity:1;stroke:none;stroke-width:0.26458332px;stroke-linecap:butt;stroke-linejoin:miter;stroke-opacity:1"
       d="m 83.910713,104.9881 c 6.047621,-4.34673 21.922617,-4.63021 22.962047,-4.63021 0.66146,-1.133934 0.18899,-5.102684 -0.37797,-6.142118 -1.79539,-0.09449 -18.615327,0.188989 -23.056546,10.772328"
       id="path1451"
       inkscape:connector-curvature="0" />
    <path
       style="fill:#f49c34;fill-opacity:1;stroke:none;stroke-width:0.26458332px;stroke-linecap:butt;stroke-linejoin:miter;stroke-opacity:1"
       d="m 100.16369,85.33333 c 10.92738,-6.308928 12.85119,-22.867557 13.04017,-28.726189 0.18899,6.236608 3.40178,22.489582 12.28422,28.537203 -8.17696,-2.053051 -16.64373,-1.787599 -25.32439,0.188986 z"
       id="path1427"
       inkscape:connector-curvature="0"
       sodipodi:nodetypes="cccc" />
    <path
       sodipodi:nodetypes="zzzz"
       inkscape:connector-curvature="0"
       id="path1429"
       d="m 119.55517,135.82787 c -1.3397,2.73699 -11.35511,2.72691 -12.68989,0 -1.33478,-2.72691 2.98282,-9.66675 6.34494,-9.66675 3.36212,0 7.68465,6.92976 6.34495,9.66675 z"
       style="opacity:1;fill:#e9c6be;fill-opacity:1;fill-rule:nonzero;stroke:none;stroke-width:0.52916664;stroke-linecap:round;stroke-linejoin:round;stroke-miterlimit:4;stroke-dasharray:none;stroke-opacity:1" />
    <path
       inkscape:connector-curvature="0"
       id="path1453"
       d="m 141.59099,104.9881 c -6.04762,-4.34673 -21.92261,-4.63021 -22.96204,-4.63021 -0.66146,-1.133934 -0.18899,-5.102684 0.37797,-6.142118 1.79539,-0.09449 18.61532,0.188989 23.05654,10.772328"
       style="fill:#f49c34;fill-opacity:1;stroke:none;stroke-width:0.26458332px;stroke-linecap:butt;stroke-linejoin:miter;stroke-opacity:1" />
    <ellipse
       ry="11.280674"
       rx="11.550868"
       cy="117.3087"
       cx="99.497002"
       id="ellipse1437"
       style="opacity:1;fill:#e9c6be;fill-opacity:1;fill-rule:nonzero;stroke:none;stroke-width:0.52916664;stroke-linecap:round;stroke-linejoin:round;stroke-miterlimit:4;stroke-dasharray:none;stroke-opacity:1" />
    <ellipse
       style="opacity:1;fill:#f9f9f9;fill-opacity:1;fill-rule:nonzero;stroke:none;stroke-width:0.52916664;stroke-linecap:round;stroke-linejoin:round;stroke-miterlimit:4;stroke-dasharray:none;stroke-opacity:1"
       id="path1431"
       cx="99.497002"
       cy="117.3087"
       rx="10.459548"
       ry="10.214881" />
    <circle
       style="opacity:1;fill:#1330b1;fill-opacity:1;fill-rule:nonzero;stroke:none;stroke-width:0.52916664;stroke-linecap:round;stroke-linejoin:round;stroke-miterlimit:4;stroke-dasharray:none;stroke-opacity:1"
       id="path1433"
       cx="101.74586"
       cy="119.83011"
       r="6.3358121" />
    <circle
       cy="119.83011"
       cx="101.74586"
       id="circle1435"
       style="opacity:1;fill:#010309;fill-opacity:1;fill-rule:nonzero;stroke:none;stroke-width:0.52916664;stroke-linecap:round;stroke-linejoin:round;stroke-miterlimit:4;stroke-dasharray:none;stroke-opacity:1"
       r="4.5902314" />
    <ellipse
       style="opacity:1;fill:#e9c6be;fill-opacity:1;fill-rule:nonzero;stroke:none;stroke-width:0.52916664;stroke-linecap:round;stroke-linejoin:round;stroke-miterlimit:4;stroke-dasharray:none;stroke-opacity:1"
       id="ellipse1439"
       cx="-126.90909"
       cy="117.3087"
       rx="11.550868"
       ry="11.280674"
       transform="scale(-1,1)" />
    <ellipse
       ry="10.214881"
       rx="10.459548"
       cy="117.3087"
       cx="-126.90908"
       id="ellipse1441"
       style="opacity:1;fill:#f9f9f9;fill-opacity:1;fill-rule:nonzero;stroke:none;stroke-width:0.52916664;stroke-linecap:round;stroke-linejoin:round;stroke-miterlimit:4;stroke-dasharray:none;stroke-opacity:1"
       transform="scale(-1,1)" />
    <circle
       cy="119.83011"
       cx="-124.66023"
       id="circle1443"
       style="opacity:1;fill:#1330b1;fill-opacity:1;fill-rule:nonzero;stroke:none;stroke-width:0.52916664;stroke-linecap:round;stroke-linejoin:round;stroke-miterlimit:4;stroke-dasharray:none;stroke-opacity:1"
       transform="scale(-1,1)"
       r="6.3358121" />
    <circle
       style="opacity:1;fill:#010309;fill-opacity:1;fill-rule:nonzero;stroke:none;stroke-width:0.52916664;stroke-linecap:round;stroke-linejoin:round;stroke-miterlimit:4;stroke-dasharray:none;stroke-opacity:1"
       id="circle1445"
       cx="-124.66023"
       cy="119.83011"
       transform="scale(-1,1)"
       r="4.5902314" />
    <path
       style="fill:none;stroke:#e9c6be;stroke-width:2.64583325;stroke-linecap:round;stroke-linejoin:miter;stroke-miterlimit:4;stroke-dasharray:none;stroke-opacity:1"
       d="m 96.02888,140.20866 c 6.80358,12.28423 28.58445,12.14249 34.67932,-0.0472"
       id="path1449"
       inkscape:connector-curvature="0"
       sodipodi:nodetypes="cc" />
    <path
       style="opacity:1;fill:#f1d9d6;fill-opacity:1;fill-rule:nonzero;stroke:none;stroke-width:2.64583325;stroke-linecap:round;stroke-linejoin:round;stroke-miterlimit:4;stroke-dasharray:none;stroke-opacity:1"
       d="m 77.240892,134.7674 c -1.266797,4.65519 -7.718721,10.91449 -13.363476,13.36347 -2.925065,1.26904 -12.505648,-6.08905 -13.363476,-13.36347 -0.835168,-7.08226 6.547971,-15.84355 13.363476,-13.36348 7.37928,2.68522 15.205061,6.59608 13.363476,13.36348 z"
       id="path1455"
       inkscape:connector-curvature="0"
       sodipodi:nodetypes="sssss" />
    <path
       sodipodi:nodetypes="sssss"
       inkscape:connector-curvature="0"
       id="path1460"
       d="m 148.40867,134.7674 c 1.2668,4.65519 7.71872,10.91449 13.36348,13.36347 2.92506,1.26904 12.50564,-6.08905 13.36347,-13.36347 0.83517,-7.08226 -6.54797,-15.84355 -13.36347,-13.36348 -7.37928,2.68522 -15.20506,6.59608 -13.36348,13.36348 z"
       style="opacity:1;fill:#f1d9d6;fill-opacity:1;fill-rule:nonzero;stroke:none;stroke-width:2.64583325;stroke-linecap:round;stroke-linejoin:round;stroke-miterlimit:4;stroke-dasharray:none;stroke-opacity:1" />
  </g>
  <g
     inkscape:groupmode="layer"
     id="layer2"
     inkscape:label="Layer 2"
     style="display:none">
    <path
       style="fill:#292929;fill-opacity:1;stroke:none;stroke-width:0.99999994px;stroke-linecap:butt;stroke-linejoin:miter;stroke-opacity:1"
       d="m 472.7793,345.6543 c -23.31709,-0.0477 -45.55379,4.18777 -49.20703,7.58008 -7.85715,-5.7143 -75.48389,-12.73292 -99.64454,11.42773 -25.80341,25.8034 -54.94675,74.4046 -33.57031,111.42969 14.15927,24.52456 98.92801,22.14171 136.78516,-1.42969 41.34958,23.8732 133.29649,18.9662 143.21484,1.78711 C 590.01066,442.40883 546.09865,380.40334 525,359.30469 514.76735,349.07204 493.35319,345.69639 472.7793,345.6543 Z m -96.72852,55.08203 a 43.656823,42.635617 0 0 1 43.6582,42.63476 43.656823,42.635617 0 0 1 -43.6582,42.63672 43.656823,42.635617 0 0 1 -43.65625,-42.63672 43.656823,42.635617 0 0 1 43.65625,-42.63476 z m 103.60547,0 A 43.656824,42.635618 0 0 1 523.3125,443.37109 43.656824,42.635618 0 0 1 479.65625,486.00781 43.656824,42.635618 0 0 1 436,443.37109 43.656824,42.635618 0 0 1 479.65625,400.73633 Z"
       id="path1462"
       transform="scale(0.26458333)"
       inkscape:connector-curvature="0" />
  </g>
</svg>
