<?xml version="1.0" encoding="UTF-8" standalone="no"?>
<!-- Created with Inkscape (http://www.inkscape.org/) -->

<svg
   xmlns:dc="http://purl.org/dc/elements/1.1/"
   xmlns:cc="http://creativecommons.org/ns#"
   xmlns:rdf="http://www.w3.org/1999/02/22-rdf-syntax-ns#"
   xmlns:svg="http://www.w3.org/2000/svg"
   xmlns="http://www.w3.org/2000/svg"
   xmlns:sodipodi="http://sodipodi.sourceforge.net/DTD/sodipodi-0.dtd"
   xmlns:inkscape="http://www.inkscape.org/namespaces/inkscape"
   width="210mm"
   height="297mm"
   viewBox="0 0 210 297"
   version="1.1"
   id="svg1979"
   inkscape:version="0.92.3 (2405546, 2018-03-11)"
   sodipodi:docname="Klepon p2.svg">
  <defs
     id="defs1973" />
  <sodipodi:namedview
     id="base"
     pagecolor="#ffffff"
     bordercolor="#666666"
     borderopacity="1.0"
     inkscape:pageopacity="0.0"
     inkscape:pageshadow="2"
     inkscape:zoom="0.35"
     inkscape:cx="350"
     inkscape:cy="560"
     inkscape:document-units="mm"
     inkscape:current-layer="layer1"
     showgrid="false"
     inkscape:window-width="741"
     inkscape:window-height="405"
     inkscape:window-x="933"
     inkscape:window-y="248"
     inkscape:window-maximized="0" />
  <metadata
     id="metadata1976">
    <rdf:RDF>
      <cc:Work
         rdf:about="">
        <dc:format>image/svg+xml</dc:format>
        <dc:type
           rdf:resource="http://purl.org/dc/dcmitype/StillImage" />
        <dc:title></dc:title>
      </cc:Work>
    </rdf:RDF>
  </metadata>
  <g
     inkscape:label="Layer 1"
     inkscape:groupmode="layer"
     id="layer1">
    <path
       style="fill:#963b1f;fill-opacity:1;stroke:none;stroke-width:0.26458332px;stroke-linecap:butt;stroke-linejoin:miter;stroke-opacity:1"
       d="m 121.87986,153.71555 c 0.74963,3.09568 4.63441,4.80508 4.62528,8.1382 -0.008,2.82293 -0.97688,5.99454 0.76018,8.5206 1.00016,1.45446 4.01465,1.9427 4.81098,0.23243 1.05074,-2.25666 -0.61125,-4.64264 -0.75037,-7.0008 -0.0941,-1.59474 1.05621,-4.33631 2.6664,-3.6138 2.08313,0.93472 2.76204,3.64726 3.18022,5.81449 0.40172,2.08196 0.2512,4.26436 1.01664,6.28402 0.51691,1.36391 1.47377,3.47648 3.20968,2.96218 1.99492,-0.59104 2.69794,-2.98605 2.31856,-4.93056 -0.38521,-1.97437 -1.63204,-3.87976 -1.21056,-5.90351 0.41973,-2.01538 2.70177,-1.42226 3.81208,-0.0995 1.5713,1.87195 4.78094,0.92322 5.91788,-1.15176 0.61485,-1.12213 0.71197,-2.75426 -0.55719,-3.47154 -2.43004,-1.37336 -5.4113,-1.63964 -7.62465,-3.33666 -1.89796,-1.4552 1.50444,-2.65441 1.95948,-4.10878 0.49206,-1.57267 0.19321,-4.14176 -1.75762,-4.2278 -2.03673,-0.0898 -4.17106,0.11553 -5.97267,-1.08511 -1.57263,-1.04805 -2.27431,-3.01758 -3.83361,-4.07025 -14.01647,-9.4624 -14.68776,2.30552 -12.57071,11.04815 z"
       id="path25135"
       inkscape:connector-curvature="0"
       sodipodi:nodetypes="ssssssssssssssssssss" />
  </g>
</svg>
