<?xml version="1.0" encoding="UTF-8" standalone="no"?>
<!-- Created with Inkscape (http://www.inkscape.org/) -->

<svg
   xmlns:dc="http://purl.org/dc/elements/1.1/"
   xmlns:cc="http://creativecommons.org/ns#"
   xmlns:rdf="http://www.w3.org/1999/02/22-rdf-syntax-ns#"
   xmlns:svg="http://www.w3.org/2000/svg"
   xmlns="http://www.w3.org/2000/svg"
   xmlns:sodipodi="http://sodipodi.sourceforge.net/DTD/sodipodi-0.dtd"
   xmlns:inkscape="http://www.inkscape.org/namespaces/inkscape"
   width="210mm"
   height="297mm"
   viewBox="0 0 210 297"
   version="1.1"
   id="svg1391"
   inkscape:version="0.92.3 (2405546, 2018-03-11)"
   sodipodi:docname="Klepon p4.svg">
  <defs
     id="defs1385" />
  <sodipodi:namedview
     id="base"
     pagecolor="#ffffff"
     bordercolor="#666666"
     borderopacity="1.0"
     inkscape:pageopacity="0.0"
     inkscape:pageshadow="2"
     inkscape:zoom="0.35"
     inkscape:cx="350"
     inkscape:cy="560"
     inkscape:document-units="mm"
     inkscape:current-layer="layer1"
     showgrid="false"
     inkscape:window-width="741"
     inkscape:window-height="405"
     inkscape:window-x="241"
     inkscape:window-y="168"
     inkscape:window-maximized="0" />
  <metadata
     id="metadata1388">
    <rdf:RDF>
      <cc:Work
         rdf:about="">
        <dc:format>image/svg+xml</dc:format>
        <dc:type
           rdf:resource="http://purl.org/dc/dcmitype/StillImage" />
        <dc:title></dc:title>
      </cc:Work>
    </rdf:RDF>
  </metadata>
  <g
     inkscape:label="Layer 1"
     inkscape:groupmode="layer"
     id="layer1">
    <g
       transform="translate(22.238328,28.693634)"
       id="g25109">
      <ellipse
         style="opacity:1;fill:#45cc45;fill-opacity:1;fill-rule:nonzero;stroke:none;stroke-width:1.32291663;stroke-linecap:round;stroke-linejoin:miter;stroke-miterlimit:4;stroke-dasharray:none;stroke-opacity:1"
         id="ellipse25062"
         cx="92.666435"
         cy="141.30637"
         rx="13.523206"
         ry="21.881004" />
      <ellipse
         ry="18.874456"
         rx="10.583241"
         cy="141.30637"
         cx="92.666435"
         id="ellipse25066"
         style="opacity:1;fill:#2fa72f;fill-opacity:1;fill-rule:nonzero;stroke:none;stroke-width:1.32291651;stroke-linecap:round;stroke-linejoin:miter;stroke-miterlimit:4;stroke-dasharray:none;stroke-opacity:1" />
      <path
         style="opacity:1;fill:#5fd35f;fill-opacity:1;fill-rule:nonzero;stroke:none;stroke-width:1.32291663;stroke-linecap:round;stroke-linejoin:miter;stroke-miterlimit:4;stroke-dasharray:none;stroke-opacity:1"
         d="m 93.468713,119.47126 a 13.523205,21.881004 0 0 1 12.720667,21.83536 13.523205,21.881004 0 0 1 -13.399181,21.8705 21.87537,21.87537 0 0 0 21.751641,-21.8705 21.87537,21.87537 0 0 0 -21.073127,-21.83536 z"
         id="path25082"
         inkscape:connector-curvature="0" />
      <path
         id="path25099"
         transform="scale(0.26458333)"
         d="m 354.8418,451.62891 -0.22852,0.15429 a 51.111326,82.699858 0 0 1 6.52539,1.625 l 1.37695,-0.93359 a 82.678564,82.678564 0 0 0 -7.67382,-0.8457 z m 21.02734,6.13476 a 2.5033399,2.5033399 0 0 0 -2.5625,2.58008 51.111326,82.699858 0 0 1 7.4375,7.48437 2.5002499,2.5002499 0 0 0 -0.5332,-0.75 2.5002499,2.5002499 0 0 0 -0.14063,-0.12304 l -1.83593,-7.29688 a 2.5033399,2.5033399 0 0 0 -2.36524,-1.89453 z m 16.70508,5.49414 a 2.5033399,2.5033399 0 0 0 -1.32031,1.6875 l -1.72461,7.66602 -4.21094,1.36133 a 51.111326,82.699858 0 0 1 2.61719,4.41406 l 0.31836,-0.10352 -0.10547,0.46485 a 51.111326,82.699858 0 0 1 4.74609,9.95898 l 4.34375,-0.22656 a 2.5033715,2.5033715 0 0 0 -0.25976,-5 l -4.82227,0.25195 1.63086,-7.23828 11.0625,-3.57812 0.65039,-0.11524 a 82.678564,82.678564 0 0 0 -4.73047,-4.01758 2.503341,2.503341 0 0 0 -0.37891,0.31641 l -5.32617,1.72266 1.07422,-4.77539 a 2.5033399,2.5033399 0 0 0 0.0606,-0.52344 82.678564,82.678564 0 0 0 -3.625,-2.26563 z m 19.51758,16.16211 -9.52735,7.27735 a 2.5002499,2.5002499 0 0 0 -0.26367,0.0469 2.5002499,2.5002499 0 0 0 -1.38086,0.88281 l -0.6914,0.85352 -0.4961,0.37891 a 2.503341,2.503341 0 0 0 -0.89844,1.34374 l -3.68164,4.54688 a 51.111326,82.699858 0 0 1 1.77149,5.76562 l 6.80273,-8.40624 3.87696,-2.9629 A 2.5033412,2.5033412 0 0 0 408.84961,490 l 13.68945,4.10938 a 82.678564,82.678564 0 0 0 -4.57031,-7.29493 2.5002499,2.5002499 0 0 0 -1.4043,0.27539 l -4.49804,-1.35156 3.21289,-2.45508 a 82.678564,82.678564 0 0 0 -3.1875,-3.86328 z m 5.49023,15.16992 a 2.503468,2.503468 0 0 0 -2.15039,1.25782 l -13.17187,23.01562 a 2.5002499,2.5002499 0 0 0 0.69726,3.29883 l -2.27148,-0.67578 a 51.111326,82.699858 0 0 1 0.41601,5.34375 l 11.75196,3.49804 a 2.5033551,2.5033551 0 0 0 3.06054,3.45313 l 4.66016,11.53906 -8.03125,3.02344 -5.36328,-10.95313 a 2.5034487,2.5034487 0 1 0 -4.49805,2.19922 l 5.1543,10.52539 -0.12696,0.0488 a 2.5033399,2.5033399 0 0 0 -1.28515,1.08203 l -5.6211,-5.86914 a 51.111326,82.699858 0 0 1 -0.69921,6.50782 l 5.73046,5.98242 a 2.5033399,2.5033399 0 0 0 3.89258,-3.11328 l 0.32227,-0.1211 3.58008,7.3086 -13.19141,20.13671 a 2.5033399,2.5033399 0 0 0 -0.89062,0.16211 L 390,585.87891 a 51.111326,82.699858 0 0 1 -3.75586,6.78515 l 14.96094,-5.69726 a 2.5033425,2.5033425 0 0 0 2.70703,-1.05469 l 5.18945,-7.92773 7.91602,4.65234 a 82.678564,82.678564 0 0 0 2.89648,-4.10156 l -8.06836,-4.74024 6.14063,-9.3789 a 2.5002499,2.5002499 0 0 0 1.07031,-1.58594 2.5002499,2.5002499 0 0 0 0.0332,-0.77539 l 0.78321,-0.24414 4.41992,8.96289 a 82.678564,82.678564 0 0 0 2.63281,-5.97461 l -2.21484,-4.48828 4.24609,-1.31641 a 82.678564,82.678564 0 0 0 1.60742,-5.74023 L 422.4707,555.76758 421.59766,554 a 2.5002499,2.5002499 0 0 0 -4.70704,0.58984 2.5002499,2.5002499 0 0 0 0.22266,1.62305 l 0.52149,1.05664 -0.62891,0.19531 -2.25195,-4.60351 7.69531,-2.89844 a 2.5002499,2.5002499 0 0 0 4.72851,-0.26172 h -0.002 a 2.5002499,2.5002499 0 0 0 -0.0488,-1.50195 l 4.80664,-1.81055 a 82.678564,82.678564 0 0 0 0.64649,-5.58594 2.5002499,2.5002499 0 0 0 -0.0566,0.0195 l -7.26758,2.73632 -5.22852,-12.96093 11.71875,-9.67578 a 82.678564,82.678564 0 0 0 -1.09179,-5.58399 l -12.5918,10.39063 -0.9082,-2.25196 a 2.5033406,2.5033406 0 0 0 -4.76172,1.49414 l -7.8711,-2.34375 a 2.5002499,2.5002499 0 0 0 0.85547,-0.1875 2.5002499,2.5002499 0 0 0 1.22266,-1.09179 l 13.17578,-23.00977 a 2.503468,2.503468 0 0 0 -2.19336,-3.74805 z m 7.62891,4.94141 a 2.5033426,2.5033426 0 0 0 0.51562,1.76367 l 0.76758,0.98047 a 82.678564,82.678564 0 0 0 -1.2832,-2.74414 z m -35.15625,94.80664 a 2.5002499,2.5002499 0 0 0 -1.8125,4.1875 2.5002499,2.5002499 0 0 0 1.4414,0.78125 l 9.07422,1.60352 a 82.678564,82.678564 0 0 0 5.32813,-4.13868 l -13.53321,-2.39062 a 2.5002499,2.5002499 0 0 0 -0.49804,-0.043 z m -16.22266,13.01563 a 51.111326,82.699858 0 0 1 -4.26953,3.17578 l 0.13672,0.45312 a 2.5033399,2.5033399 0 0 0 4.79297,-1.44531 z m -21.13281,9.25 a 51.111326,82.699858 0 0 1 -1.9961,0.1289 82.678564,82.678564 0 0 0 1.98633,-0.11133 2.5002499,2.5002499 0 0 0 0.01,-0.0176 z"
         style="color:#000000;font-style:normal;font-variant:normal;font-weight:normal;font-stretch:normal;font-size:medium;line-height:normal;font-family:sans-serif;font-variant-ligatures:normal;font-variant-position:normal;font-variant-caps:normal;font-variant-numeric:normal;font-variant-alternates:normal;font-feature-settings:normal;text-indent:0;text-align:start;text-decoration:none;text-decoration-line:none;text-decoration-style:solid;text-decoration-color:#000000;letter-spacing:normal;word-spacing:normal;text-transform:none;writing-mode:lr-tb;direction:ltr;text-orientation:mixed;dominant-baseline:auto;baseline-shift:baseline;text-anchor:start;white-space:normal;shape-padding:0;clip-rule:nonzero;display:inline;overflow:visible;visibility:visible;opacity:1;isolation:auto;mix-blend-mode:normal;color-interpolation:sRGB;color-interpolation-filters:linearRGB;solid-color:#000000;solid-opacity:1;vector-effect:none;fill:#f9f9f9;fill-opacity:1;fill-rule:nonzero;stroke:none;stroke-width:5;stroke-linecap:round;stroke-linejoin:miter;stroke-miterlimit:4;stroke-dasharray:none;stroke-dashoffset:0;stroke-opacity:1;color-rendering:auto;image-rendering:auto;shape-rendering:auto;text-rendering:auto;enable-background:accumulate"
         inkscape:connector-curvature="0" />
    </g>
    <g
       transform="translate(22.238328,28.693634)"
       style="display:inline"
       id="g25123">
      <path
         id="circle24629"
         d="m 92.666179,119.43095 a 21.87537,21.87537 0 0 0 -21.875152,21.87567 21.87537,21.87537 0 0 0 21.875152,21.87515 21.87537,21.87537 0 0 0 0.12402,-0.005 13.523205,21.881004 0 0 0 13.399181,-21.8705 13.523205,21.881004 0 0 0 -12.720667,-21.83536 21.87537,21.87537 0 0 0 -0.802534,-0.0403 z m 0.802534,0.0403 a 21.87537,21.87537 0 0 1 9.097637,2.35386 21.87537,21.87537 0 0 0 -9.097637,-2.35386 z m 9.097637,2.35386 a 21.87537,21.87537 0 0 1 1.86293,1.06557 21.87537,21.87537 0 0 0 -1.86293,-1.06557 z m -9.776151,41.352 a 21.87537,21.87537 0 0 0 1.865522,-0.10387 21.87537,21.87537 0 0 1 -1.865522,0.10387 z m 11.688691,-40.25594 a 21.87537,21.87537 0 0 1 1.68466,1.20147 21.87537,21.87537 0 0 0 -1.68466,-1.20147 z m 1.79886,1.28829 a 21.87537,21.87537 0 0 1 1.49655,1.31155 21.87537,21.87537 0 0 0 -1.49655,-1.31155 z m 1.65675,1.46089 a 21.87537,21.87537 0 0 1 1.30483,1.39733 21.87537,21.87537 0 0 0 -1.30483,-1.39733 z m 1.50223,1.62213 a 21.87537,21.87537 0 0 1 1.09761,1.44022 21.87537,21.87537 0 0 0 -1.09761,-1.44022 z m 1.33584,1.77302 a 21.87537,21.87537 0 0 1 0.90072,1.46657 21.87537,21.87537 0 0 0 -0.90072,-1.46657 z m 1.14256,1.88825 a 21.87537,21.87537 0 0 1 0.71055,1.46606 21.87537,21.87537 0 0 0 -0.71055,-1.46606 z m 0.95188,2.00557 a 21.87537,21.87537 0 0 1 0.5178,1.41231 21.87537,21.87537 0 0 0 -0.5178,-1.41231 z m 0.74518,2.09702 a 21.87537,21.87537 0 0 1 0.34468,1.34514 21.87537,21.87537 0 0 0 -0.34468,-1.34514 z m 0.52606,2.15284 a 21.87537,21.87537 0 0 1 0.19172,1.25729 21.87537,21.87537 0 0 0 -0.19172,-1.25729 z m 0.30696,2.20349 a 21.87537,21.87537 0 0 1 0.0966,1.89394 21.87537,21.87537 0 0 0 -0.0966,-1.89394 z m 0.007,3.69073 a 21.87537,21.87537 0 0 1 -0.12764,1.10174 21.87537,21.87537 0 0 0 0.12764,-1.10174 z m -0.28732,2.15956 a 21.87537,21.87537 0 0 1 -0.2403,1.09864 21.87537,21.87537 0 0 0 0.2403,-1.09864 z m -0.50178,2.12286 a 21.87537,21.87537 0 0 1 -0.35398,1.08521 21.87537,21.87537 0 0 0 0.35398,-1.08521 z m -0.709,2.05827 a 21.87537,21.87537 0 0 1 -0.46716,1.06092 21.87537,21.87537 0 0 0 0.46716,-1.06092 z m -0.91106,1.97973 a 21.87537,21.87537 0 0 1 -0.58239,1.02836 21.87537,21.87537 0 0 0 0.58239,-1.02836 z m -1.10225,1.87585 a 21.87537,21.87537 0 0 1 -0.6935,0.98186 21.87537,21.87537 0 0 0 0.6935,-0.98186 z m -1.28778,1.7632 a 21.87537,21.87537 0 0 1 -0.78807,0.90796 21.87537,21.87537 0 0 0 0.78807,-0.90796 z m -1.45728,1.62626 a 21.87537,21.87537 0 0 1 -0.88831,0.83664 21.87537,21.87537 0 0 0 0.88831,-0.83664 z m -1.60455,1.46606 a 21.87537,21.87537 0 0 1 -0.98495,0.75758 21.87537,21.87537 0 0 0 0.98495,-0.75758 z m -1.7508,1.30483 a 21.87537,21.87537 0 0 1 -1.06401,0.66094 21.87537,21.87537 0 0 0 1.06401,-0.66094 z m -1.86552,1.12086 a 21.87537,21.87537 0 0 1 -1.14463,0.56069 21.87537,21.87537 0 0 0 1.14463,-0.56069 z m -1.97403,0.93225 a 21.87537,21.87537 0 0 1 -1.188047,0.44131 21.87537,21.87537 0 0 0 1.188047,-0.44131 z m -2.065513,0.73277 a 21.87537,21.87537 0 0 1 -1.219047,0.31833 21.87537,21.87537 0 0 0 1.219047,-0.31833 z m -2.119249,0.52038 a 21.87537,21.87537 0 0 1 -1.252638,0.19689 21.87537,21.87537 0 0 0 1.252638,-0.19689 z"
         style="opacity:1;fill:#5fd35f;fill-opacity:1;fill-rule:nonzero;stroke:none;stroke-width:1.32291663;stroke-linecap:round;stroke-linejoin:miter;stroke-miterlimit:4;stroke-dasharray:none;stroke-opacity:1"
         inkscape:connector-curvature="0" />
      <path
         id="use24615"
         transform="scale(0.26458333)"
         d="m 354.8418,451.62891 -0.0684,0.0469 a 82.678564,82.678564 0 0 1 3.96289,0.34375 82.678564,82.678564 0 0 0 -3.89453,-0.39062 z m 3.89453,0.39062 a 82.678564,82.678564 0 0 1 3.77929,0.45508 l 0.0254,-0.0176 a 82.678564,82.678564 0 0 0 -3.80469,-0.4375 z m -4.0918,-0.25781 -10.76953,7.29297 a 2.503785,2.503785 0 1 0 2.80469,4.14843 l 14.46093,-9.79687 a 51.111326,82.699858 0 0 0 -6.49609,-1.64453 z m -24.45703,2.20312 a 82.678564,82.678564 0 0 0 -4.99414,1.3418 l 5.39062,9.48633 a 2.5002499,2.5002499 0 0 0 -2.67382,1.10547 2.5002499,2.5002499 0 0 0 -0.36914,1.59765 l 2.02734,21.42383 -11.78711,17.00781 a 2.5038895,2.5038895 0 0 0 4.11523,2.85352 l 9.10547,-13.14453 a 2.5033399,2.5033399 0 0 0 4.02149,-2.21484 l -0.29883,-3.15821 2.27344,-3.2832 a 2.5002499,2.5002499 0 0 0 -2.80078,-3.83008 2.5002499,2.5002499 0 0 0 -0.14258,0.0527 l -1.2793,-13.47656 23.14453,9.41211 a 2.503342,2.503342 0 0 0 1.88867,-4.63672 l -22.12109,-8.99218 a 2.5033404,2.5033404 0 0 0 -0.1543,-2.14063 z m 43.11719,6.34571 a 2.5033399,2.5033399 0 0 0 0.0742,0.56836 l 1.27343,5.05859 -22.28125,-2.48633 a 2.5033399,2.5033399 0 1 0 -0.55664,4.97461 l 24.14258,2.68945 3.34961,13.28907 -8.81055,0.46093 a 2.5002499,2.5002499 0 0 0 -1.31836,4.5586 2.5002499,2.5002499 0 0 0 1.58008,0.43555 l 1.47071,-0.0762 a 2.5033406,2.5033406 0 0 0 -0.0293,0.40625 l 0.20703,14.40039 a 2.5002499,2.5002499 0 0 0 -1.11328,0.77344 l -6.16992,0.91797 -3.75586,-15.22852 12.875,-15.80664 a 2.5002499,2.5002499 0 0 0 -2.49414,-4.03711 2.5002499,2.5002499 0 0 0 -1.38282,0.87891 l -12.60937,15.4707 a 2.5033399,2.5033399 0 0 0 -1.73242,2.125 l -2.41016,2.95899 a 2.5033399,2.5033399 0 0 0 3.79297,3.26367 l 2.74414,11.11523 -10.63672,1.58204 0.64063,-8.18555 a 2.5033399,2.5033399 0 1 0 -4.99024,-0.39063 l -1.14648,14.70313 a 2.5002499,2.5002499 0 0 0 -2.09961,0.41601 l -23.69922,-4.29101 a 2.5033399,2.5033399 0 0 0 -2.44727,0.95312 l -1.43164,-1.47851 4.9043,-6.9336 a 2.5033442,2.5033442 0 1 0 -4.08594,-2.89257 l -0.625,0.88476 a 2.5033532,2.5033532 0 0 0 -3.16015,-2.75195 l -17.23243,4.89258 a 2.5002499,2.5002499 0 0 0 -4.0957,-2.13282 2.5002499,2.5002499 0 0 0 -0.8418,1.40821 l -0.50195,2.26758 -2.83789,0.80664 a 2.5002499,2.5002499 0 0 0 -0.27148,4.73828 2.5002499,2.5002499 0 0 0 1.63867,0.0723 l 0.24414,-0.0703 -1.27539,5.77148 a 2.5002499,2.5002499 0 0 0 -0.71289,1.11915 l -7.15235,22.46289 -2.00195,-3.2461 a 2.5034729,2.5034729 0 1 0 -4.26367,2.625 l 1.37109,2.22461 a 2.5002499,2.5002499 0 0 0 -3.66406,-0.59765 2.5002499,2.5002499 0 0 0 -0.87305,1.38867 l -0.57226,2.33789 a 82.678564,82.678564 0 0 0 0.20117,1.33203 82.857143,82.857143 0 0 0 1.03125,5.86328 82.678564,82.678564 0 0 0 1.10156,4.3125 l 3.09766,-12.66016 a 2.5002499,2.5002499 0 0 0 -0.26563,-1.88476 l 12.49219,20.25781 a 2.5002499,2.5002499 0 0 0 4.63086,-1.03125 2.5002499,2.5002499 0 0 0 0.01,-0.3418 l 1.64257,3.73438 0.83985,4.75391 -16.7461,-10.53125 a 2.5033507,2.5033507 0 1 0 -2.66796,4.23632 l 19.81835,12.45703 -10.95507,5.39649 -0.59961,-0.0312 a 82.857143,82.857143 0 0 0 1.96875,2.72852 82.678564,82.678564 0 0 0 1.76953,2.32812 2.5002499,2.5002499 0 0 0 1.76367,-1.86523 l 7.58789,-3.73829 0.72656,4.11719 a 2.5002499,2.5002499 0 0 0 4.68555,0.75 2.5002499,2.5002499 0 0 0 0.24023,-1.62109 l -0.6621,-3.75196 a 2.5002499,2.5002499 0 0 0 0.22851,-0.19921 l 18.87891,-18.61914 a 2.5039436,2.5039436 0 1 0 -3.51563,-3.56641 l -15.46875,15.26367 a 2.5033434,2.5033434 0 0 0 0.14063,-2.28515 l -3.21094,-7.29102 -0.875,-4.96875 11.71094,-22.11914 a 2.5033401,2.5033401 0 0 0 -4.42383,-2.34375 l -10.57422,19.97851 -3.31445,-7.52734 a 2.5002499,2.5002499 0 0 0 -4.73047,0.38477 2.5002499,2.5002499 0 0 0 0.1543,1.63281 l 4.61718,10.49219 -8.04882,-13.06055 a 2.5033416,2.5033416 0 0 0 0.60156,-0.99219 l 4.00195,-12.57422 a 2.5033414,2.5033414 0 0 0 2.1543,-1.94336 l 4.57422,-20.70898 19.79687,-5.61524 a 2.5033532,2.5033532 0 0 0 0.46289,-0.18554 l -2.91406,4.12304 a 2.5033399,2.5033399 0 0 0 -2.26172,3.19922 l -1.70312,2.40625 a 2.5033399,2.5033399 0 0 0 -4.64844,-1.625 l -13.06445,23.07813 a 2.5002499,2.5002499 0 0 0 3.13671,3.56055 2.5002499,2.5002499 0 0 0 1.2168,-1.09766 l 6.78125,-11.97461 a 2.5002499,2.5002499 0 0 0 2.86524,1.07422 2.5002499,2.5002499 0 0 0 1.32031,-0.9707 l 7.46875,-10.55664 13.1914,13.60351 8.93555,18.72461 a 2.5002499,2.5002499 0 0 0 4.71484,-0.52734 2.5002499,2.5002499 0 0 0 -0.20312,-1.62696 l -6.92578,-14.52539 a 2.5002499,2.5002499 0 0 0 0.28125,-1.4707 2.5002499,2.5002499 0 0 0 -0.71094,-1.47656 l -1.91992,-1.98047 -2.13672,-4.48047 a 2.5033427,2.5033427 0 0 0 -3.3457,-1.17578 l -3.16602,-3.26563 23.30664,4.21485 a 2.5002499,2.5002499 0 0 0 0.14453,0.0234 l -0.46289,5.94336 a 2.5002499,2.5002499 0 0 0 0.31446,1.45508 l -4.47657,-3.70508 a 2.5002499,2.5002499 0 0 0 -4.05468,2.46289 2.5002499,2.5002499 0 0 0 0.86914,1.39063 l 18.21289,15.08008 a 2.5002499,2.5002499 0 0 0 -1.23438,1.84961 2.5002499,2.5002499 0 0 0 0.33789,1.60547 l 11.07422,18.95507 -3.38867,-1.53515 a 2.5038416,2.5038416 0 1 0 -2.06836,4.56054 l 24.1582,10.9375 a 2.5002499,2.5002499 0 0 0 0.8711,0.22657 2.5002499,2.5002499 0 0 0 0,0.002 2.5002499,2.5002499 0 0 0 4.13086,0.80078 2.5002499,2.5002499 0 0 0 0.68164,-1.49219 l 1.21093,-11.20312 a 2.5002499,2.5002499 0 0 0 3.11915,-3.39258 2.5002499,2.5002499 0 0 0 -1.13477,-1.18359 l -1.4082,-0.74414 0.64843,-6.00586 0.85157,0.55664 a 2.5002499,2.5002499 0 0 0 3.7539,-2.90235 2.5002499,2.5002499 0 0 0 -1.01953,-1.28515 l -11.75976,-7.69532 -0.76758,-16.00195 a 2.5033451,2.5033451 0 0 0 2.98242,-1.55469 l 0.76953,-2.0996 0.34961,12.02343 a 2.5002499,2.5002499 0 0 0 2.62109,2.45508 l 11.33399,11.83399 a 51.111326,82.699858 0 0 0 0.73437,-6.46876 l -9.70898,-10.13476 a 2.5002499,2.5002499 0 0 0 -0.0469,-0.0449 l -0.33203,-11.50391 a 2.5002499,2.5002499 0 0 0 0.4043,0.1543 l 9.98828,2.97461 a 51.111326,82.699858 0 0 0 -0.43555,-5.34961 l -8.1289,-2.41992 a 2.5002499,2.5002499 0 0 0 -1.95508,0.20507 l -0.18555,-6.38086 2.9043,-7.91992 3.58789,-4.43359 a 51.111326,82.699858 0 0 0 -1.73633,-5.80664 l -3.77148,4.6582 a 2.5002499,2.5002499 0 0 0 -0.9375,0.35547 2.5002499,2.5002499 0 0 0 -1.02149,1.2832 l -0.52539,1.43164 -4.67578,5.7754 a 2.5033421,2.5033421 0 0 0 1.11328,3.9375 l -3.66406,9.99218 -0.0312,-0.63281 a 2.5002499,2.5002499 0 0 0 -3.16406,-2.32031 L 377.56055,515 377.20703,490.11914 a 2.5033406,2.5033406 0 0 0 -0.082,-0.5918 l 8.70508,-0.45312 -0.39258,1.74414 a 2.5002499,2.5002499 0 0 0 4.0332,2.5 2.5002499,2.5002499 0 0 0 0.84571,-1.4043 l 0.69921,-3.10937 1.89649,-0.0996 a 51.111326,82.699858 0 0 0 -4.76563,-9.93555 l -1.17578,5.23438 -2.57422,0.13671 -3.60156,-14.31445 a 2.5002499,2.5002499 0 0 0 -0.0195,-1.93359 51.111326,82.699858 0 0 0 -7.4707,-7.58203 z m -48.78516,7.63476 a 2.5002499,2.5002499 0 0 0 -1.20312,0.27735 2.5002499,2.5002499 0 0 0 -0.16211,0.0937 l -24.62696,1.33593 a 82.678564,82.678564 0 0 0 -8.34765,7.66407 l 13.39453,1.43164 a 2.5033399,2.5033399 0 0 0 1.81836,-4.45899 l 14.875,-0.80273 -3.84375,8.17773 a 2.5002499,2.5002499 0 0 0 -0.0762,0.0371 l -17.29297,9.00781 a 2.5002499,2.5002499 0 0 0 -1.80664,-1.04687 2.5002499,2.5002499 0 0 0 -1.5918,0.39258 l -19.72266,12.4414 2.77735,-9.6914 a 82.678564,82.678564 0 0 0 -1.42578,2.48437 82.857143,82.857143 0 0 0 -1.18946,2.29688 82.678564,82.678564 0 0 0 -2.11523,4.72656 82.857143,82.857143 0 0 0 -1.27149,3.20703 82.678564,82.678564 0 0 0 -1.36914,4.11914 82.857143,82.857143 0 0 0 -1.17382,4.11328 82.678564,82.678564 0 0 0 -0.9961,4.4375 82.857143,82.857143 0 0 0 -0.50195,2.58203 82.678564,82.678564 0 0 0 -0.0332,0.28516 2.5033399,2.5033399 0 0 0 3.13671,-3.85937 l -0.23242,-0.23633 a 2.5002499,2.5002499 0 0 0 0.53321,-0.98828 l 2.05859,-7.1875 a 2.5033399,2.5033399 0 0 0 1.76953,-0.34766 l 16.44336,-10.37695 a 2.5033399,2.5033399 0 0 0 2.79883,0.33398 l 17.76758,-9.25976 -2.00782,4.27148 a 2.5033433,2.5033433 0 1 0 4.5293,2.13086 l 11.28125,-24 a 2.5002499,2.5002499 0 0 0 -2.19336,-3.58984 z m 60.76953,6.03711 -0.19922,0.0645 a 2.5033465,2.5033465 0 1 0 1.53711,4.76367 l 1.30078,-0.41993 a 51.111326,82.699858 0 0 0 -2.63867,-4.4082 z m -42.01562,1.19727 a 2.5002499,2.5002499 0 0 0 -1.74805,0.84961 2.5002499,2.5002499 0 0 0 -0.61719,1.51953 l -1.70898,26.45898 a 2.50334,2.50334 0 1 0 4.99609,0.32422 l 1.70313,-26.46484 a 2.5002499,2.5002499 0 0 0 -2.625,-2.6875 z m -58.79883,8.89062 a 82.678564,82.678564 0 0 0 -3.10938,4.34961 l 3.00977,4.49805 a 2.5002499,2.5002499 0 0 0 4.58984,-1.20117 2.5002499,2.5002499 0 0 0 -0.43359,-1.58203 z m 134.19336,3.73633 a 82.678564,82.678564 0 0 1 3.4043,5.54297 82.678564,82.678564 0 0 0 -3.4043,-5.54297 z m -47.24609,22.59961 1.14453,5.18555 0.0156,1.11328 a 2.5002499,2.5002499 0 0 0 0.58203,1.59961 L 376.5,533.41602 a 2.5033399,2.5033399 0 0 0 0.7793,1.33007 l 0.33789,7.07032 -5.25196,-3.43555 a 2.5033399,2.5033399 0 0 0 -2.91601,0.12305 l 3.51562,-16.26758 a 2.5002499,2.5002499 0 0 0 -4.05273,-2.46485 2.5002499,2.5002499 0 0 0 -0.83594,1.41016 l -2.11914,9.80078 -17.18164,-12.91797 0.33984,-4.34375 12.24024,-1.81836 1.08398,4.38672 a 2.5002499,2.5002499 0 0 0 4.72461,0.4336 2.5002499,2.5002499 0 0 0 0.13086,-1.63477 l -0.96875,-3.92383 z m -98.11329,9.70703 a 2.5033399,2.5033399 0 0 0 -1.66211,0.74414 l -3.4082,3.45703 a 82.678564,82.678564 0 0 0 -0.28516,2.3418 82.857143,82.857143 0 0 0 -0.28906,4.36914 82.678564,82.678564 0 0 0 -0.0371,1.0332 l 7.58203,-7.68359 a 2.5033399,2.5033399 0 0 0 -1.90039,-4.26172 z m 75.00391,3.86328 14.80469,11.13477 a 2.5033404,2.5033404 0 0 0 1.84179,0.47851 l -2.48828,11.50782 a 2.5033399,2.5033399 0 1 0 4.89258,1.06054 l 1.41016,-6.52734 a 2.5033399,2.5033399 0 0 0 0.84961,0.9375 l 8.28711,5.42187 0.0137,0.26758 a 2.5033399,2.5033399 0 0 0 3.63476,2.11719 l 4.70313,3.07812 -0.70703,6.56641 -17.27344,-9.12695 a 2.5033399,2.5033399 0 1 0 -2.33984,4.42578 l 19.03515,10.05273 -0.99023,9.17579 -12.92188,-5.85352 a 2.5033437,2.5033437 0 0 0 -0.29492,-1.71875 l -12.54297,-21.46484 a 2.5033428,2.5033428 0 0 0 1.14453,-4.38672 l -14.58398,-12.06836 a 2.5002499,2.5002499 0 0 0 2.66406,-0.69141 2.5002499,2.5002499 0 0 0 0.63672,-1.50976 z m -27.4668,7.35938 a 2.503344,2.503344 0 0 0 -2.01562,1.14648 l -14.58399,22.15039 a 2.5002499,2.5002499 0 0 0 2.88868,3.76172 2.5002499,2.5002499 0 0 0 1.28906,-1.01367 l 6.76758,-10.27344 a 2.5002499,2.5002499 0 0 0 0.002,0.002 2.5002499,2.5002499 0 0 0 1.03711,0.94335 l 4.75586,2.39649 a 2.5033399,2.5033399 0 0 0 -0.16016,0.71484 l -1.41406,19.75586 -2.27539,-0.27344 a 2.5033779,2.5033779 0 1 0 -0.59961,4.97071 l 2.51562,0.30273 -0.0762,1.0586 -4.90625,4.83789 a 2.5033415,2.5033415 0 0 0 -4.98633,0.19921 l -0.15625,4.8711 -3.9375,3.88281 a 2.5002499,2.5002499 0 0 0 1.70118,4.29883 2.5002499,2.5002499 0 0 0 0.36523,3.50781 2.5002499,2.5002499 0 0 0 1.47852,0.56055 l -0.19532,6.09961 a 82.678564,82.678564 0 0 0 0.68555,0.39258 82.857143,82.857143 0 0 0 4.23242,2.30078 l 0.2793,-8.65039 21.56445,0.61523 a 2.5039784,2.5039784 0 1 0 0.14453,-5.00586 l -21.54882,-0.60937 0.16992,-5.23633 9.94531,-9.80274 a 2.5033407,2.5033407 0 0 0 0.0723,0.0801 l 16.40234,17.70117 -10.44922,17.09766 a 82.857143,82.857143 0 0 0 0.3457,0.0801 82.678564,82.678564 0 0 0 4.8086,1.08008 l 9.69531,-15.86133 a 2.5002499,2.5002499 0 0 0 1.56641,-2.55274 2.5002499,2.5002499 0 0 0 -0.002,-0.008 l 1.45703,-2.38281 a 2.5033418,2.5033418 0 1 0 -4.26953,-2.61328 l -0.44336,0.72461 -3.95312,-4.26953 a 2.5033399,2.5033399 0 0 0 3.51367,-1.20899 l 4.65234,-10.94336 16.99024,6.19336 a 2.5002499,2.5002499 0 0 0 -2.12305,1.60547 2.5002499,2.5002499 0 0 0 -0.1582,0.73242 l -8.63867,-1.51953 a 2.5033407,2.5033407 0 0 0 -0.86914,4.92969 l 6.41601,1.12695 a 2.5033439,2.5033439 0 0 0 -0.45117,0.71289 l -10.17383,24.49024 a 2.5002499,2.5002499 0 0 0 0.14258,2.24804 82.678564,82.678564 0 0 0 1.89063,0.0664 82.678564,82.678564 0 0 0 0.46874,-0.0195 51.111326,82.699858 0 0 0 2.03516,-0.19531 2.5002499,2.5002499 0 0 0 0.082,-0.18164 l 10.17774,-24.48438 a 2.5033439,2.5033439 0 0 0 0.006,-1.90234 l 0.36523,0.0644 6.19141,20.49023 a 51.111326,82.699858 0 0 0 4.25781,-3.21289 L 368.88672,591 l 5.36719,0.94336 a 2.5002499,2.5002499 0 0 0 0.65625,4.48242 2.5002499,2.5002499 0 0 0 1.63867,-0.0703 l 9.64844,-3.67383 a 51.111326,82.699858 0 0 0 3.8164,-6.80859 l -8.74805,3.33398 a 2.5002499,2.5002499 0 0 0 -0.42968,-0.6582 2.5002499,2.5002499 0 0 0 -1.44336,-0.7793 l -12.12696,-2.13281 -0.44921,-1.48438 a 2.5002499,2.5002499 0 0 0 -0.63282,-1.07031 l 4.75977,1.73438 a 2.50334,2.50334 0 1 0 1.7168,-4.70313 l -23.49024,-8.55859 3.76367,-8.85352 a 2.5002499,2.5002499 0 0 0 -2.78515,-3.45508 l -6.39258,-22.70507 a 2.5002499,2.5002499 0 0 0 -4.73633,-0.28125 2.5002499,2.5002499 0 0 0 -0.0762,1.63671 l 7.17969,25.5254 a 2.5033401,2.5033401 0 0 0 0.61523,1.06835 l -3.93359,9.2461 -4.54492,-0.54688 -7.08399,-17.60742 8.73438,4.40039 a 2.5033589,2.5033589 0 1 0 2.2539,-4.4707 l -23.68554,-11.92578 a 2.5002499,2.5002499 0 0 0 -0.80079,-0.25391 l 5.33204,-8.09375 a 2.503344,2.503344 0 0 0 -2.16407,-3.90234 z m 111.73047,9.52734 a 82.678564,82.678564 0 0 1 -0.48242,4.16406 82.678564,82.678564 0 0 0 0.48242,-4.16406 z m -107.00976,14.17383 7.02343,17.46875 L 327,571.83398 a 2.5033399,2.5033399 0 0 0 -2.19531,-0.26562 l -0.42188,-0.0508 z m 101.34765,9.79101 a 82.678564,82.678564 0 0 1 -1.76562,4.00977 82.678564,82.678564 0 0 0 1.76562,-4.00977 z m -98.28906,12.24024 6.09375,0.73242 0.46094,1.14649 a 2.5033416,2.5033416 0 0 0 4.79101,-0.51563 l 0.79688,0.0957 -2.81641,6.61719 a 2.5033399,2.5033399 0 0 0 0.0274,2.02344 z m -40.24609,10.99023 a 2.5033444,2.5033444 0 0 0 -0.57618,0.0684 82.857143,82.857143 0 0 0 12.77344,11.94922 82.678564,82.678564 0 0 0 1.38281,0.98828 l -11.7871,-12.23633 a 2.5033444,2.5033444 0 0 0 -1.79297,-0.76953 z m 114.48632,9.69336 a 82.678564,82.678564 0 0 1 -3.72265,2.86328 82.678564,82.678564 0 0 0 3.72265,-2.86328 z"
         style="color:#000000;font-style:normal;font-variant:normal;font-weight:normal;font-stretch:normal;font-size:medium;line-height:normal;font-family:sans-serif;font-variant-ligatures:normal;font-variant-position:normal;font-variant-caps:normal;font-variant-numeric:normal;font-variant-alternates:normal;font-feature-settings:normal;text-indent:0;text-align:start;text-decoration:none;text-decoration-line:none;text-decoration-style:solid;text-decoration-color:#000000;letter-spacing:normal;word-spacing:normal;text-transform:none;writing-mode:lr-tb;direction:ltr;text-orientation:mixed;dominant-baseline:auto;baseline-shift:baseline;text-anchor:start;white-space:normal;shape-padding:0;clip-rule:nonzero;display:inline;overflow:visible;visibility:visible;opacity:1;isolation:auto;mix-blend-mode:normal;color-interpolation:sRGB;color-interpolation-filters:linearRGB;solid-color:#000000;solid-opacity:1;vector-effect:none;fill:#f9f9f9;fill-opacity:1;fill-rule:nonzero;stroke:none;stroke-width:5;stroke-linecap:round;stroke-linejoin:miter;stroke-miterlimit:4;stroke-dasharray:none;stroke-dashoffset:0;stroke-opacity:1;color-rendering:auto;image-rendering:auto;shape-rendering:auto;text-rendering:auto;enable-background:accumulate"
         inkscape:connector-curvature="0" />
    </g>
  </g>
</svg>
