<?xml version="1.0" encoding="UTF-8" standalone="no"?>
<!-- Created with Inkscape (http://www.inkscape.org/) -->

<svg
   xmlns:dc="http://purl.org/dc/elements/1.1/"
   xmlns:cc="http://creativecommons.org/ns#"
   xmlns:rdf="http://www.w3.org/1999/02/22-rdf-syntax-ns#"
   xmlns:svg="http://www.w3.org/2000/svg"
   xmlns="http://www.w3.org/2000/svg"
   xmlns:sodipodi="http://sodipodi.sourceforge.net/DTD/sodipodi-0.dtd"
   xmlns:inkscape="http://www.inkscape.org/namespaces/inkscape"
   width="210mm"
   height="297mm"
   viewBox="0 0 210 297"
   version="1.1"
   id="svg8"
   inkscape:version="0.92.3 (2405546, 2018-03-11)"
   sodipodi:docname="Magnifying glass.svg">
  <defs
     id="defs2">
    <inkscape:perspective
       sodipodi:type="inkscape:persp3d"
       inkscape:vp_x="0 : 148.5 : 1"
       inkscape:vp_y="0 : 1000 : 0"
       inkscape:vp_z="210 : 148.5 : 1"
       inkscape:persp3d-origin="105 : 99 : 1"
       id="perspective822" />
  </defs>
  <sodipodi:namedview
     id="base"
     pagecolor="#ffffff"
     bordercolor="#666666"
     borderopacity="1.0"
     inkscape:pageopacity="0.0"
     inkscape:pageshadow="2"
     inkscape:zoom="1.4"
     inkscape:cx="375.8762"
     inkscape:cy="575.62589"
     inkscape:document-units="mm"
     inkscape:current-layer="layer1"
     showgrid="false"
     inkscape:window-width="1920"
     inkscape:window-height="1017"
     inkscape:window-x="-8"
     inkscape:window-y="-8"
     inkscape:window-maximized="1" />
  <metadata
     id="metadata5">
    <rdf:RDF>
      <cc:Work
         rdf:about="">
        <dc:format>image/svg+xml</dc:format>
        <dc:type
           rdf:resource="http://purl.org/dc/dcmitype/StillImage" />
        <dc:title></dc:title>
      </cc:Work>
    </rdf:RDF>
  </metadata>
  <g
     inkscape:label="Layer 1"
     inkscape:groupmode="layer"
     id="layer1">
    <path
       transform="rotate(45)"
       style="opacity:1;fill:#666666;fill-opacity:0.93434347;fill-rule:nonzero;stroke:none;stroke-width:1.32291663;stroke-linecap:round;stroke-linejoin:miter;stroke-miterlimit:4;stroke-dasharray:none;stroke-opacity:1"
       d="m 177.30139,14.37172 45.16815,-2.078869 c 2.71931,-0.125157 4.91369,2.191506 4.91369,4.913691 0,2.722185 -2.19438,5.038848 -4.91369,4.913691 l -45.16815,-2.078869 c -1.56883,-0.07221 -2.83482,-1.264331 -2.83482,-2.834822 0,-1.570491 1.26599,-2.762616 2.83482,-2.834822 z"
       id="rect838"
       inkscape:connector-curvature="0"
       sodipodi:nodetypes="sssssss" />
    <path
       style="opacity:1;fill:#ececec;fill-opacity:1;fill-rule:nonzero;stroke:none;stroke-width:5;stroke-linecap:round;stroke-linejoin:miter;stroke-miterlimit:4;stroke-dasharray:none;stroke-opacity:1"
       d="M 340.35742 309.66211 A 125.35713 125.35713 0 0 0 215 435.01953 A 125.35713 125.35713 0 0 0 340.35742 560.37695 A 125.35713 125.35713 0 0 0 465.71484 435.01953 A 125.35713 125.35713 0 0 0 340.35742 309.66211 z M 340.35742 336.0918 A 98.928561 98.928561 0 0 1 439.28516 435.01953 A 98.928561 98.928561 0 0 1 340.35742 533.94922 A 98.928561 98.928561 0 0 1 241.42773 435.01953 A 98.928561 98.928561 0 0 1 340.35742 336.0918 z "
       transform="scale(0.26458333)"
       id="path815" />
    <circle
       r="26.174849"
       cy="115.09896"
       cx="90.052818"
       id="circle817"
       style="opacity:1;fill:#0897ff;fill-opacity:0.27272728;fill-rule:nonzero;stroke:none;stroke-width:1.32291663;stroke-linecap:round;stroke-linejoin:miter;stroke-miterlimit:4;stroke-dasharray:none;stroke-opacity:1" />
  </g>
</svg>
