<?xml version="1.0" encoding="UTF-8" standalone="no"?>
<!-- Created with Inkscape (http://www.inkscape.org/) -->

<svg
   xmlns:dc="http://purl.org/dc/elements/1.1/"
   xmlns:cc="http://creativecommons.org/ns#"
   xmlns:rdf="http://www.w3.org/1999/02/22-rdf-syntax-ns#"
   xmlns:svg="http://www.w3.org/2000/svg"
   xmlns="http://www.w3.org/2000/svg"
   xmlns:sodipodi="http://sodipodi.sourceforge.net/DTD/sodipodi-0.dtd"
   xmlns:inkscape="http://www.inkscape.org/namespaces/inkscape"
   width="210mm"
   height="297mm"
   viewBox="0 0 210 297"
   version="1.1"
   id="svg2196"
   inkscape:version="0.92.3 (2405546, 2018-03-11)"
   sodipodi:docname="Amylopect.svg">
  <defs
     id="defs2190" />
  <sodipodi:namedview
     id="base"
     pagecolor="#ffffff"
     bordercolor="#666666"
     borderopacity="1.0"
     inkscape:pageopacity="0.0"
     inkscape:pageshadow="2"
     inkscape:zoom="0.98994949"
     inkscape:cx="293.22137"
     inkscape:cy="629.67853"
     inkscape:document-units="mm"
     inkscape:current-layer="layer1"
     showgrid="false"
     inkscape:snap-object-midpoints="true"
     inkscape:object-paths="false"
     inkscape:window-width="1920"
     inkscape:window-height="1017"
     inkscape:window-x="-8"
     inkscape:window-y="-8"
     inkscape:window-maximized="1" />
  <metadata
     id="metadata2193">
    <rdf:RDF>
      <cc:Work
         rdf:about="">
        <dc:format>image/svg+xml</dc:format>
        <dc:type
           rdf:resource="http://purl.org/dc/dcmitype/StillImage" />
        <dc:title></dc:title>
      </cc:Work>
    </rdf:RDF>
  </metadata>
  <g
     inkscape:label="Layer 1"
     inkscape:groupmode="layer"
     id="layer1">
    <path
       style="fill:none;stroke:#999999;stroke-width:1.32291663;stroke-linecap:round;stroke-linejoin:miter;stroke-miterlimit:4;stroke-dasharray:none;stroke-opacity:1"
       d="M 3.934018,100.97892 H 23.669199"
       id="path3754"
       inkscape:connector-curvature="0" />
    <path
       style="fill:none;stroke:#999999;stroke-width:1.32291663;stroke-linecap:butt;stroke-linejoin:miter;stroke-miterlimit:4;stroke-dasharray:none;stroke-opacity:1"
       d="M 85.340648,129.3999 V 100.97892"
       id="path3752"
       inkscape:connector-curvature="0" />
    <path
       inkscape:connector-curvature="0"
       id="path3656"
       d="m -50.77296,156.98421 h 19.735181"
       style="fill:none;stroke:#999999;stroke-width:1.32291663;stroke-linecap:round;stroke-linejoin:miter;stroke-miterlimit:4;stroke-dasharray:none;stroke-opacity:1" />
    <path
       inkscape:connector-curvature="0"
       id="path1440-56"
       d="M 15.215813,190.53255 V 173.06198"
       style="fill:none;stroke:#999999;stroke-width:1.32291663;stroke-linecap:butt;stroke-linejoin:miter;stroke-miterlimit:4;stroke-dasharray:none;stroke-opacity:1" />
    <path
       style="fill:none;stroke:#999999;stroke-width:1.32291663;stroke-linecap:butt;stroke-linejoin:miter;stroke-miterlimit:4;stroke-dasharray:none;stroke-opacity:1"
       d="M -15.926558,172.88128 V 155.41071"
       id="path1436-4"
       inkscape:connector-curvature="0" />
    <path
       style="fill:none;stroke:#999999;stroke-width:1.32291663;stroke-linecap:round;stroke-linejoin:miter;stroke-miterlimit:4;stroke-dasharray:none;stroke-opacity:1"
       d="M 30.633674,156.98421 H 69.922788"
       id="path1432-2"
       inkscape:connector-curvature="0" />
    <path
       style="opacity:1;fill:none;fill-opacity:1;fill-rule:nonzero;stroke:#999999;stroke-width:1.32291663;stroke-linecap:round;stroke-linejoin:round;stroke-miterlimit:4;stroke-dasharray:none;stroke-opacity:1"
       inkscape:transform-center-x="-1.2068245e-006"
       inkscape:transform-center-y="-9.2373936e-006"
       d="M 30.633674,156.98421 15.215813,173.06198 H -15.619916 L -31.03778,156.98421 -15.619916,140.90646 H 15.215813 Z"
       id="path1391-6"
       inkscape:connector-curvature="0" />
    <path
       style="opacity:1;fill:#ececec;fill-opacity:1;fill-rule:nonzero;stroke:none;stroke-width:1.32291663;stroke-linecap:round;stroke-linejoin:miter;stroke-miterlimit:4;stroke-dasharray:none;stroke-opacity:1"
       d="m -8.9381819,173.06197 a 6.6817379,6.6817379 0 0 1 -6.6817381,6.68173 6.6817379,6.6817379 0 0 1 -6.681738,-6.68173 6.6817379,6.6817379 0 0 1 6.681738,-6.68174 6.6817379,6.6817379 0 0 1 6.6817381,6.68174 z"
       id="path1368-9" />
    <path
       style="opacity:1;fill:#ececec;fill-opacity:1;fill-rule:nonzero;stroke:none;stroke-width:1.32291663;stroke-linecap:round;stroke-linejoin:miter;stroke-miterlimit:4;stroke-dasharray:none;stroke-opacity:1"
       d="m 21.897546,173.06197 a 6.6817379,6.6817379 0 0 1 -6.681738,6.68173 6.6817379,6.6817379 0 0 1 -6.681738,-6.68173 6.6817379,6.6817379 0 0 1 6.681738,-6.68174 6.6817379,6.6817379 0 0 1 6.681738,6.68174 z"
       id="path1368-7-6" />
    <path
       style="opacity:1;fill:#ececec;fill-opacity:1;fill-rule:nonzero;stroke:none;stroke-width:1.32291663;stroke-linecap:round;stroke-linejoin:miter;stroke-miterlimit:4;stroke-dasharray:none;stroke-opacity:1"
       d="m -25.692389,156.98421 a 5.3453898,5.3453898 0 0 1 -5.34539,5.34539 5.3453898,5.3453898 0 0 1 -5.34539,-5.34539 5.3453898,5.3453898 0 0 1 5.34539,-5.34539 5.3453898,5.3453898 0 0 1 5.34539,5.34539 z"
       id="circle1394-4" />
    <path
       style="fill:none;stroke:#999999;stroke-width:1.32291663;stroke-linecap:butt;stroke-linejoin:miter;stroke-miterlimit:4;stroke-dasharray:none;stroke-opacity:1"
       d="M -15.619916,140.90646 V 129.39991"
       id="path1404-7"
       inkscape:connector-curvature="0" />
    <path
       style="opacity:1;fill:#ececec;fill-opacity:1;fill-rule:nonzero;stroke:none;stroke-width:1.32291663;stroke-linecap:round;stroke-linejoin:miter;stroke-miterlimit:4;stroke-dasharray:none;stroke-opacity:1"
       d="m -11.744512,140.90646 a 3.8754075,3.8754075 0 0 1 -3.875408,3.87541 3.8754075,3.8754075 0 0 1 -3.875407,-3.87541 3.8754075,3.8754075 0 0 1 3.875407,-3.8754 3.8754075,3.8754075 0 0 1 3.875408,3.8754 z"
       id="circle1398-3" />
    <path
       style="opacity:1;fill:#ececec;fill-opacity:1;fill-rule:nonzero;stroke:none;stroke-width:1.32291663;stroke-linecap:round;stroke-linejoin:miter;stroke-miterlimit:4;stroke-dasharray:none;stroke-opacity:1"
       d="m 35.979068,156.98421 a 5.3453898,5.3453898 0 0 1 -5.34539,5.34539 5.3453898,5.3453898 0 0 1 -5.345389,-5.34539 5.3453898,5.3453898 0 0 1 5.345389,-5.34539 5.3453898,5.3453898 0 0 1 5.34539,5.34539 z"
       id="circle1400-1" />
    <path
       style="opacity:1;fill:#ececec;fill-opacity:1;fill-rule:nonzero;stroke:none;stroke-width:1.32291663;stroke-linecap:round;stroke-linejoin:miter;stroke-miterlimit:4;stroke-dasharray:none;stroke-opacity:1"
       d="m 19.091215,140.90646 a 3.8754075,3.8754075 0 0 1 -3.875407,3.87541 3.8754075,3.8754075 0 0 1 -3.875408,-3.87541 3.8754075,3.8754075 0 0 1 3.875408,-3.8754 3.8754075,3.8754075 0 0 1 3.875407,3.8754 z"
       id="circle1402-6" />
    <path
       style="opacity:1;fill:#ececec;fill-opacity:1;fill-rule:nonzero;stroke:none;stroke-width:1.32291663;stroke-linecap:round;stroke-linejoin:miter;stroke-miterlimit:4;stroke-dasharray:none;stroke-opacity:1"
       d="m 55.623622,156.98421 a 5.3453898,5.3453898 0 0 1 -5.345389,5.34539 5.3453898,5.3453898 0 0 1 -5.34539,-5.34539 5.3453898,5.3453898 0 0 1 5.34539,-5.34539 5.3453898,5.3453898 0 0 1 5.345389,5.34539 z"
       id="circle1434-2" />
    <g
       aria-label="C"
       style="font-style:normal;font-variant:normal;font-weight:normal;font-stretch:normal;font-size:10.58333302px;line-height:1.25;font-family:'Bebas Neue';-inkscape-font-specification:'Bebas Neue';letter-spacing:0px;word-spacing:0px;fill:#000000;fill-opacity:1;stroke:#000000;stroke-width:0.52916676;stroke-linejoin:round;stroke-miterlimit:4;stroke-dasharray:none;stroke-opacity:1"
       id="text3099">
      <path
         d="m -15.789629,176.65962 c 1.121833,0 1.7145,-0.67733 1.7145,-1.82033 v -1.04775 h -1.100667 v 1.13241 c 0,0.48684 -0.232833,0.67734 -0.582083,0.67734 -0.34925,0 -0.582083,-0.1905 -0.582083,-0.67734 v -4.13808 c 0,-0.48683 0.232833,-0.68792 0.582083,-0.68792 0.34925,0 0.582083,0.20109 0.582083,0.68792 v 0.85725 h 1.100667 v -0.78317 c 0,-1.143 -0.592667,-1.82033 -1.7145,-1.82033 -1.121833,0 -1.7145,0.67733 -1.7145,1.82033 v 3.97934 c 0,1.143 0.592667,1.82033 1.7145,1.82033 z"
         style="stroke:#000000;stroke-width:0.52916676;stroke-linejoin:round;stroke-miterlimit:4;stroke-dasharray:none;stroke-opacity:1"
         id="path3980" />
    </g>
    <g
       aria-label="C"
       style="font-style:normal;font-variant:normal;font-weight:normal;font-stretch:normal;font-size:10.58333302px;line-height:1.25;font-family:'Bebas Neue';-inkscape-font-specification:'Bebas Neue';letter-spacing:0px;word-spacing:0px;fill:#000000;fill-opacity:1;stroke:#000000;stroke-width:0.52916676;stroke-linejoin:round;stroke-miterlimit:4;stroke-dasharray:none;stroke-opacity:1"
       id="text3103">
      <path
         d="m 15.10992,176.7541 c 1.121833,0 1.7145,-0.67733 1.7145,-1.82033 v -1.04775 h -1.100667 v 1.13242 c 0,0.48683 -0.232833,0.67733 -0.582083,0.67733 -0.34925,0 -0.582084,-0.1905 -0.582084,-0.67733 v -4.13809 c 0,-0.48683 0.232834,-0.68791 0.582084,-0.68791 0.34925,0 0.582083,0.20108 0.582083,0.68791 v 0.85725 h 1.100667 v -0.78316 c 0,-1.143 -0.592667,-1.82034 -1.7145,-1.82034 -1.121834,0 -1.7145,0.67734 -1.7145,1.82034 v 3.97933 c 0,1.143 0.592666,1.82033 1.7145,1.82033 z"
         style="stroke:#000000;stroke-width:0.52916676;stroke-linejoin:round;stroke-miterlimit:4;stroke-dasharray:none;stroke-opacity:1"
         id="path3983" />
    </g>
    <g
       aria-label="C"
       style="font-style:normal;font-variant:normal;font-weight:normal;font-stretch:normal;font-size:8.4394598px;line-height:1.25;font-family:'Bebas Neue';-inkscape-font-specification:'Bebas Neue';letter-spacing:0px;word-spacing:0px;fill:#000000;fill-opacity:1;stroke:#000000;stroke-width:0.42197305;stroke-linejoin:round;stroke-miterlimit:4;stroke-dasharray:none;stroke-opacity:1"
       id="text3107">
      <path
         d="m 30.707177,159.90686 c 0.894583,0 1.367193,-0.54013 1.367193,-1.45159 v -0.83551 h -0.877704 v 0.90303 c 0,0.38821 -0.185668,0.54012 -0.46417,0.54012 -0.278502,0 -0.46417,-0.15191 -0.46417,-0.54012 v -3.29983 c 0,-0.38822 0.185668,-0.54857 0.46417,-0.54857 0.278502,0 0.46417,0.16035 0.46417,0.54857 v 0.68359 h 0.877704 v -0.62452 c 0,-0.91146 -0.47261,-1.45158 -1.367193,-1.45158 -0.894582,0 -1.367192,0.54012 -1.367192,1.45158 v 3.17324 c 0,0.91146 0.47261,1.45159 1.367192,1.45159 z"
         style="stroke:#000000;stroke-width:0.42197305;stroke-linejoin:round;stroke-miterlimit:4;stroke-dasharray:none;stroke-opacity:1"
         id="path3986" />
    </g>
    <g
       aria-label="C"
       style="font-style:normal;font-variant:normal;font-weight:normal;font-stretch:normal;font-size:8.4394598px;line-height:1.25;font-family:'Bebas Neue';-inkscape-font-specification:'Bebas Neue';letter-spacing:0px;word-spacing:0px;fill:#000000;fill-opacity:1;stroke:#000000;stroke-width:0.42197305;stroke-linejoin:round;stroke-miterlimit:4;stroke-dasharray:none;stroke-opacity:1"
       id="text3111">
      <path
         d="m -31.165724,159.84004 c 0.894582,0 1.367192,-0.54013 1.367192,-1.45159 v -0.8355 h -0.877704 v 0.90302 c 0,0.38821 -0.185668,0.54012 -0.46417,0.54012 -0.278502,0 -0.46417,-0.15191 -0.46417,-0.54012 v -3.29983 c 0,-0.38821 0.185668,-0.54856 0.46417,-0.54856 0.278502,0 0.46417,0.16035 0.46417,0.54856 v 0.6836 h 0.877704 v -0.62452 c 0,-0.91147 -0.47261,-1.45159 -1.367192,-1.45159 -0.894583,0 -1.367193,0.54012 -1.367193,1.45159 v 3.17323 c 0,0.91146 0.47261,1.45159 1.367193,1.45159 z"
         style="stroke:#000000;stroke-width:0.42197305;stroke-linejoin:round;stroke-miterlimit:4;stroke-dasharray:none;stroke-opacity:1"
         id="path3989" />
    </g>
    <g
       aria-label="C"
       style="font-style:normal;font-variant:normal;font-weight:normal;font-stretch:normal;font-size:6.29558706px;line-height:1.25;font-family:'Bebas Neue';-inkscape-font-specification:'Bebas Neue';letter-spacing:0px;word-spacing:0px;fill:#000000;fill-opacity:1;stroke:#000000;stroke-width:0.31477937;stroke-linejoin:round;stroke-miterlimit:4;stroke-dasharray:none;stroke-opacity:1"
       id="text3115">
      <path
         d="m -15.608739,143.11441 c 0.667332,0 1.019885,-0.40292 1.019885,-1.08284 v -0.62327 h -0.654741 v 0.67363 c 0,0.2896 -0.138503,0.40292 -0.346257,0.40292 -0.207755,0 -0.346258,-0.11332 -0.346258,-0.40292 v -2.46157 c 0,-0.2896 0.138503,-0.40922 0.346258,-0.40922 0.207754,0 0.346257,0.11962 0.346257,0.40922 v 0.50994 h 0.654741 v -0.46587 c 0,-0.67993 -0.352553,-1.08284 -1.019885,-1.08284 -0.667332,0 -1.019885,0.40291 -1.019885,1.08284 v 2.36714 c 0,0.67992 0.352553,1.08284 1.019885,1.08284 z"
         style="stroke:#000000;stroke-width:0.31477937;stroke-linejoin:round;stroke-miterlimit:4;stroke-dasharray:none;stroke-opacity:1"
         id="path3992" />
    </g>
    <path
       style="opacity:1;fill:#ececec;fill-opacity:1;fill-rule:nonzero;stroke:none;stroke-width:0.5647077;stroke-linecap:round;stroke-linejoin:round;stroke-miterlimit:4;stroke-dasharray:none;stroke-opacity:1"
       d="m -16.61498,151.8802 h 4.853884 c 2.9051762,0 5.2440004,2.33883 5.2440004,5.244 v 8.4e-4 c 0,2.90518 -2.3388242,5.244 -5.2440004,5.244 h -4.853884 c -2.905176,0 -5.244,-2.33882 -5.244,-5.244 v -8.4e-4 c 0,-2.90517 2.338824,-5.244 5.244,-5.244 z"
       id="rect3125" />
    <g
       aria-label="OH"
       style="font-style:normal;font-variant:normal;font-weight:normal;font-stretch:normal;font-size:8.4394598px;line-height:1.25;font-family:'Bebas Neue';-inkscape-font-specification:'Bebas Neue';letter-spacing:0px;word-spacing:0px;fill:#000000;fill-opacity:1;stroke:#000000;stroke-width:0.42197305;stroke-linejoin:round;stroke-miterlimit:4;stroke-dasharray:none;stroke-opacity:1"
       id="text3131">
      <path
         d="m -16.012918,160.12352 c 0.911462,0 1.40939,-0.54013 1.40939,-1.48535 v -3.10572 c 0,-0.94522 -0.497928,-1.48534 -1.40939,-1.48534 -0.911461,0 -1.409389,0.54012 -1.409389,1.48534 v 3.10572 c 0,0.94522 0.497928,1.48535 1.409389,1.48535 z m 0,-0.84395 c -0.295381,0 -0.481049,-0.16035 -0.481049,-0.58232 v -3.22387 c 0,-0.42198 0.185668,-0.58233 0.481049,-0.58233 0.295382,0 0.48105,0.16035 0.48105,0.58233 v 3.22387 c 0,0.42197 -0.185668,0.58232 -0.48105,0.58232 z"
         style="stroke:#000000;stroke-width:0.42197305;stroke-linejoin:round;stroke-miterlimit:4;stroke-dasharray:none;stroke-opacity:1"
         id="path3996" />
      <path
         d="m -13.975711,160.03912 h 0.92834 v -2.65843 h 0.995857 v 2.65843 h 0.92834 v -5.90762 h -0.92834 v 2.40525 h -0.995857 v -2.40525 h -0.92834 z"
         style="stroke:#000000;stroke-width:0.42197305;stroke-linejoin:round;stroke-miterlimit:4;stroke-dasharray:none;stroke-opacity:1"
         id="path3998" />
    </g>
    <path
       style="opacity:1;fill:#ececec;fill-opacity:1;fill-rule:nonzero;stroke:none;stroke-width:0.5647077;stroke-linecap:round;stroke-linejoin:round;stroke-miterlimit:4;stroke-dasharray:none;stroke-opacity:1"
       d="m 14.678749,185.38261 h 4.853884 c 2.905176,0 5.244,2.33883 5.244,5.244 v 8.4e-4 c 0,2.90518 -2.338824,5.244 -5.244,5.244 h -4.853884 c -2.905176,0 -5.2440004,-2.33882 -5.2440004,-5.244 v -8.4e-4 c 0,-2.90517 2.3388244,-5.244 5.2440004,-5.244 z"
       id="rect3133" />
    <g
       aria-label="OH"
       style="font-style:normal;font-variant:normal;font-weight:normal;font-stretch:normal;font-size:8.4394598px;line-height:1.25;font-family:'Bebas Neue';-inkscape-font-specification:'Bebas Neue';letter-spacing:0px;word-spacing:0px;fill:#000000;fill-opacity:1;stroke:#000000;stroke-width:0.42197305;stroke-linejoin:round;stroke-miterlimit:4;stroke-dasharray:none;stroke-opacity:1"
       id="text3137">
      <path
         d="m 15.280813,193.62591 c 0.911462,0 1.40939,-0.54012 1.40939,-1.48534 v -3.10572 c 0,-0.94522 -0.497928,-1.48535 -1.40939,-1.48535 -0.911461,0 -1.40939,0.54013 -1.40939,1.48535 v 3.10572 c 0,0.94522 0.497929,1.48534 1.40939,1.48534 z m 0,-0.84394 c -0.295381,0 -0.481049,-0.16035 -0.481049,-0.58232 v -3.22388 c 0,-0.42197 0.185668,-0.58232 0.481049,-0.58232 0.295381,0 0.481049,0.16035 0.481049,0.58232 v 3.22388 c 0,0.42197 -0.185668,0.58232 -0.481049,0.58232 z"
         style="stroke:#000000;stroke-width:0.42197305;stroke-linejoin:round;stroke-miterlimit:4;stroke-dasharray:none;stroke-opacity:1"
         id="path4002" />
      <path
         d="m 17.31802,193.54152 h 0.92834 v -2.65843 h 0.995856 v 2.65843 h 0.928341 v -5.90762 h -0.928341 v 2.40524 H 18.24636 v -2.40524 h -0.92834 z"
         style="stroke:#000000;stroke-width:0.42197305;stroke-linejoin:round;stroke-miterlimit:4;stroke-dasharray:none;stroke-opacity:1"
         id="path4004" />
    </g>
    <g
       aria-label="O"
       style="font-style:normal;font-variant:normal;font-weight:normal;font-stretch:normal;font-size:6.29558706px;line-height:1.25;font-family:'Bebas Neue';-inkscape-font-specification:'Bebas Neue';letter-spacing:0px;word-spacing:0px;fill:#000000;fill-opacity:1;stroke:#000000;stroke-width:0.31477937;stroke-linejoin:round;stroke-miterlimit:4;stroke-dasharray:none;stroke-opacity:1"
       id="text3141">
      <path
         d="m 15.315997,143.11441 c 0.679924,0 1.051363,-0.40292 1.051363,-1.10802 v -2.31678 c 0,-0.70511 -0.371439,-1.10802 -1.051363,-1.10802 -0.679923,0 -1.051363,0.40291 -1.051363,1.10802 v 2.31678 c 0,0.7051 0.37144,1.10802 1.051363,1.10802 z m 0,-0.62956 c -0.220345,0 -0.358848,-0.11962 -0.358848,-0.4344 v -2.40491 c 0,-0.31478 0.138503,-0.4344 0.358848,-0.4344 0.220346,0 0.358849,0.11962 0.358849,0.4344 v 2.40491 c 0,0.31478 -0.138503,0.4344 -0.358849,0.4344 z"
         style="stroke:#000000;stroke-width:0.31477937;stroke-linejoin:round;stroke-miterlimit:4;stroke-dasharray:none;stroke-opacity:1"
         id="path4007" />
    </g>
    <path
       style="opacity:1;fill:#ececec;fill-opacity:1;fill-rule:nonzero;stroke:none;stroke-width:0.52916664;stroke-linecap:round;stroke-linejoin:round;stroke-miterlimit:4;stroke-dasharray:none;stroke-opacity:1"
       d="m -15.902248,125.51363 h 10.4840828 c 2.1469751,0 3.8754063,1.72843 3.8754063,3.87541 0,2.14698 -1.7284312,3.87541 -3.8754063,3.87541 H -15.902248 c -2.146975,0 -3.875407,-1.72843 -3.875407,-3.87541 0,-2.14698 1.728432,-3.87541 3.875407,-3.87541 z"
       id="rect3146" />
    <g
       aria-label="CH2oh"
       style="font-style:normal;font-variant:normal;font-weight:normal;font-stretch:normal;font-size:6.29558706px;line-height:1.25;font-family:'Bebas Neue';-inkscape-font-specification:'Bebas Neue';letter-spacing:0px;word-spacing:0px;fill:#000000;fill-opacity:1;stroke:#000000;stroke-width:0.31477937;stroke-linejoin:round;stroke-miterlimit:4;stroke-dasharray:none;stroke-opacity:1"
       id="text3150">
      <path
         d="m -15.514245,131.58613 c 0.667332,0 1.019885,-0.40291 1.019885,-1.08284 v -0.62326 h -0.654741 v 0.67363 c 0,0.28959 -0.138503,0.40292 -0.346258,0.40292 -0.207754,0 -0.346257,-0.11333 -0.346257,-0.40292 v -2.46158 c 0,-0.28959 0.138503,-0.40921 0.346257,-0.40921 0.207755,0 0.346258,0.11962 0.346258,0.40921 v 0.50995 h 0.654741 v -0.46588 c 0,-0.67992 -0.352553,-1.08284 -1.019885,-1.08284 -0.667333,0 -1.019885,0.40292 -1.019885,1.08284 v 2.36714 c 0,0.67993 0.352552,1.08284 1.019885,1.08284 z"
         style="stroke:#000000;stroke-width:0.31477937;stroke-linejoin:round;stroke-miterlimit:4;stroke-dasharray:none;stroke-opacity:1"
         id="path4011" />
      <path
         d="m -14.080032,131.52318 h 0.692515 v -1.98311 h 0.742879 v 1.98311 h 0.692515 v -4.40691 h -0.692515 v 1.79424 h -0.742879 v -1.79424 h -0.692515 z"
         style="stroke:#000000;stroke-width:0.31477937;stroke-linejoin:round;stroke-miterlimit:4;stroke-dasharray:none;stroke-opacity:1"
         id="path4013" />
      <path
         d="m -11.534903,132.7823 h 1.301298 v -0.40922 h -0.855256 v -0.0614 c 0,-0.20051 0.06957,-0.34374 0.339647,-0.63019 0.417398,-0.44195 0.55653,-0.74477 0.55653,-1.08441 0,-0.45832 -0.229159,-0.72022 -0.67111,-0.72022 -0.44195,0 -0.671109,0.2619 -0.671109,0.72022 v 0.27826 h 0.425582 v -0.30691 c 0,-0.2046 0.09003,-0.28235 0.233251,-0.28235 0.143225,0 0.233252,0.0696 0.233252,0.32737 0,0.26598 -0.09821,0.48287 -0.441951,0.84707 -0.335554,0.35192 -0.450134,0.60154 -0.450134,1.01075 z"
         style="font-size:4.09213114px;baseline-shift:sub;stroke-width:0.31477937"
         id="path4015" />
      <path
         d="m -8.7969276,131.58613 c 0.6799234,0 1.051363,-0.40291 1.051363,-1.10802 v -2.31678 c 0,-0.7051 -0.3714396,-1.10802 -1.051363,-1.10802 -0.6799234,0 -1.0513631,0.40292 -1.0513631,1.10802 v 2.31678 c 0,0.70511 0.3714397,1.10802 1.0513631,1.10802 z m 0,-0.62955 c -0.2203456,0 -0.3588485,-0.11962 -0.3588485,-0.4344 v -2.40491 c 0,-0.31478 0.1385029,-0.4344 0.3588485,-0.4344 0.2203455,0 0.3588484,0.11962 0.3588484,0.4344 v 2.40491 c 0,0.31478 -0.1385029,0.4344 -0.3588484,0.4344 z"
         style="stroke:#000000;stroke-width:0.31477937;stroke-linejoin:round;stroke-miterlimit:4;stroke-dasharray:none;stroke-opacity:1"
         id="path4017" />
      <path
         d="m -7.2772317,131.52318 h 0.6925145 v -1.98311 h 0.7428793 v 1.98311 h 0.6925146 v -4.40691 h -0.6925146 v 1.79424 h -0.7428793 v -1.79424 h -0.6925145 z"
         style="stroke:#000000;stroke-width:0.31477937;stroke-linejoin:round;stroke-miterlimit:4;stroke-dasharray:none;stroke-opacity:1"
         id="path4019" />
    </g>
    <g
       aria-label="O"
       style="font-style:normal;font-variant:normal;font-weight:normal;font-stretch:normal;font-size:8.4394598px;line-height:1.25;font-family:'Bebas Neue';-inkscape-font-specification:'Bebas Neue';letter-spacing:0px;word-spacing:0px;fill:#000000;fill-opacity:1;stroke:#000000;stroke-width:0.42197305;stroke-linejoin:round;stroke-miterlimit:4;stroke-dasharray:none;stroke-opacity:1"
       id="text3156">
      <path
         d="m 50.385238,159.90686 c 0.911461,0 1.409389,-0.54013 1.409389,-1.48535 v -3.10572 c 0,-0.94522 -0.497928,-1.48534 -1.409389,-1.48534 -0.911462,0 -1.40939,0.54012 -1.40939,1.48534 v 3.10572 c 0,0.94522 0.497928,1.48535 1.40939,1.48535 z m 0,-0.84395 c -0.295381,0 -0.48105,-0.16035 -0.48105,-0.58232 v -3.22387 c 0,-0.42198 0.185669,-0.58233 0.48105,-0.58233 0.295381,0 0.481049,0.16035 0.481049,0.58233 v 3.22387 c 0,0.42197 -0.185668,0.58232 -0.481049,0.58232 z"
         style="stroke:#000000;stroke-width:0.42197305;stroke-linejoin:round;stroke-miterlimit:4;stroke-dasharray:none;stroke-opacity:1"
         id="path4022" />
    </g>
    <path
       style="fill:none;stroke:#999999;stroke-width:1.32291663;stroke-linecap:butt;stroke-linejoin:miter;stroke-miterlimit:4;stroke-dasharray:none;stroke-opacity:1"
       d="M 116.17638,190.53255 V 173.06198"
       id="path3512"
       inkscape:connector-curvature="0" />
    <path
       inkscape:connector-curvature="0"
       id="path3514"
       d="M 85.034008,172.88128 V 155.41071"
       style="fill:none;stroke:#999999;stroke-width:1.32291663;stroke-linecap:butt;stroke-linejoin:miter;stroke-miterlimit:4;stroke-dasharray:none;stroke-opacity:1" />
    <path
       inkscape:connector-curvature="0"
       id="path3516"
       d="m 131.59424,156.98421 h 39.28912"
       style="fill:none;stroke:#999999;stroke-width:1.32291663;stroke-linecap:round;stroke-linejoin:miter;stroke-miterlimit:4;stroke-dasharray:none;stroke-opacity:1" />
    <path
       inkscape:connector-curvature="0"
       id="path3518"
       d="m 131.59424,156.98421 -15.41786,16.07777 H 85.340648 l -15.41786,-16.07777 15.41786,-16.07775 h 30.835732 z"
       inkscape:transform-center-y="-9.2373936e-006"
       inkscape:transform-center-x="-1.2068245e-006"
       style="opacity:1;fill:none;fill-opacity:1;fill-rule:nonzero;stroke:#999999;stroke-width:1.32291663;stroke-linecap:round;stroke-linejoin:round;stroke-miterlimit:4;stroke-dasharray:none;stroke-opacity:1" />
    <path
       style="opacity:1;fill:#ececec;fill-opacity:1;fill-rule:nonzero;stroke:none;stroke-width:1.32291663;stroke-linecap:round;stroke-linejoin:miter;stroke-miterlimit:4;stroke-dasharray:none;stroke-opacity:1"
       d="m 92.022383,173.06197 a 6.6817379,6.6817379 0 0 1 -6.681738,6.68173 6.6817379,6.6817379 0 0 1 -6.681738,-6.68173 6.6817379,6.6817379 0 0 1 6.681738,-6.68174 6.6817379,6.6817379 0 0 1 6.681738,6.68174 z"
       id="circle3520" />
    <path
       style="opacity:1;fill:#ececec;fill-opacity:1;fill-rule:nonzero;stroke:none;stroke-width:1.32291663;stroke-linecap:round;stroke-linejoin:miter;stroke-miterlimit:4;stroke-dasharray:none;stroke-opacity:1"
       d="m 122.85811,173.06197 a 6.6817379,6.6817379 0 0 1 -6.68174,6.68173 6.6817379,6.6817379 0 0 1 -6.68174,-6.68173 6.6817379,6.6817379 0 0 1 6.68174,-6.68174 6.6817379,6.6817379 0 0 1 6.68174,6.68174 z"
       id="circle3522" />
    <path
       style="opacity:1;fill:#ececec;fill-opacity:1;fill-rule:nonzero;stroke:none;stroke-width:1.32291663;stroke-linecap:round;stroke-linejoin:miter;stroke-miterlimit:4;stroke-dasharray:none;stroke-opacity:1"
       d="m 75.268173,156.98421 a 5.3453898,5.3453898 0 0 1 -5.34539,5.34539 5.3453898,5.3453898 0 0 1 -5.34539,-5.34539 5.3453898,5.3453898 0 0 1 5.34539,-5.34539 5.3453898,5.3453898 0 0 1 5.34539,5.34539 z"
       id="circle3524" />
    <path
       inkscape:connector-curvature="0"
       id="path3526"
       d="M 85.340648,140.90646 V 129.39991"
       style="fill:none;stroke:#999999;stroke-width:1.32291663;stroke-linecap:butt;stroke-linejoin:miter;stroke-miterlimit:4;stroke-dasharray:none;stroke-opacity:1" />
    <path
       style="opacity:1;fill:#ececec;fill-opacity:1;fill-rule:nonzero;stroke:none;stroke-width:1.32291663;stroke-linecap:round;stroke-linejoin:miter;stroke-miterlimit:4;stroke-dasharray:none;stroke-opacity:1"
       d="m 89.216052,140.90646 a 3.8754075,3.8754075 0 0 1 -3.875407,3.87541 3.8754075,3.8754075 0 0 1 -3.875408,-3.87541 3.8754075,3.8754075 0 0 1 3.875408,-3.8754 3.8754075,3.8754075 0 0 1 3.875407,3.8754 z"
       id="circle3528" />
    <path
       style="opacity:1;fill:#ececec;fill-opacity:1;fill-rule:nonzero;stroke:none;stroke-width:1.32291663;stroke-linecap:round;stroke-linejoin:miter;stroke-miterlimit:4;stroke-dasharray:none;stroke-opacity:1"
       d="m 136.93964,156.98421 a 5.3453898,5.3453898 0 0 1 -5.34539,5.34539 5.3453898,5.3453898 0 0 1 -5.34539,-5.34539 5.3453898,5.3453898 0 0 1 5.34539,-5.34539 5.3453898,5.3453898 0 0 1 5.34539,5.34539 z"
       id="circle3530" />
    <path
       style="opacity:1;fill:#ececec;fill-opacity:1;fill-rule:nonzero;stroke:none;stroke-width:1.32291663;stroke-linecap:round;stroke-linejoin:miter;stroke-miterlimit:4;stroke-dasharray:none;stroke-opacity:1"
       d="m 120.05178,140.90646 a 3.8754075,3.8754075 0 0 1 -3.87541,3.87541 3.8754075,3.8754075 0 0 1 -3.87541,-3.87541 3.8754075,3.8754075 0 0 1 3.87541,-3.8754 3.8754075,3.8754075 0 0 1 3.87541,3.8754 z"
       id="circle3532" />
    <path
       style="opacity:1;fill:#ececec;fill-opacity:1;fill-rule:nonzero;stroke:none;stroke-width:1.32291663;stroke-linecap:round;stroke-linejoin:miter;stroke-miterlimit:4;stroke-dasharray:none;stroke-opacity:1"
       d="m 156.58419,156.98421 a 5.3453898,5.3453898 0 0 1 -5.34539,5.34539 5.3453898,5.3453898 0 0 1 -5.34539,-5.34539 5.3453898,5.3453898 0 0 1 5.34539,-5.34539 5.3453898,5.3453898 0 0 1 5.34539,5.34539 z"
       id="circle3534" />
    <g
       aria-label="C"
       style="font-style:normal;font-variant:normal;font-weight:normal;font-stretch:normal;font-size:10.58333302px;line-height:1.25;font-family:'Bebas Neue';-inkscape-font-specification:'Bebas Neue';letter-spacing:0px;word-spacing:0px;fill:#000000;fill-opacity:1;stroke:#000000;stroke-width:0.52916676;stroke-linejoin:round;stroke-miterlimit:4;stroke-dasharray:none;stroke-opacity:1"
       id="text3538">
      <path
         d="m 85.170929,176.65962 c 1.121833,0 1.7145,-0.67733 1.7145,-1.82033 v -1.04775 h -1.100667 v 1.13241 c 0,0.48684 -0.232833,0.67734 -0.582083,0.67734 -0.34925,0 -0.582083,-0.1905 -0.582083,-0.67734 v -4.13808 c 0,-0.48683 0.232833,-0.68792 0.582083,-0.68792 0.34925,0 0.582083,0.20109 0.582083,0.68792 v 0.85725 h 1.100667 v -0.78317 c 0,-1.143 -0.592667,-1.82033 -1.7145,-1.82033 -1.121833,0 -1.7145,0.67733 -1.7145,1.82033 v 3.97934 c 0,1.143 0.592667,1.82033 1.7145,1.82033 z"
         style="stroke:#000000;stroke-width:0.52916676;stroke-linejoin:round;stroke-miterlimit:4;stroke-dasharray:none;stroke-opacity:1"
         id="path4032" />
    </g>
    <g
       aria-label="C"
       style="font-style:normal;font-variant:normal;font-weight:normal;font-stretch:normal;font-size:10.58333302px;line-height:1.25;font-family:'Bebas Neue';-inkscape-font-specification:'Bebas Neue';letter-spacing:0px;word-spacing:0px;fill:#000000;fill-opacity:1;stroke:#000000;stroke-width:0.52916676;stroke-linejoin:round;stroke-miterlimit:4;stroke-dasharray:none;stroke-opacity:1"
       id="text3542">
      <path
         d="m 116.07048,176.7541 c 1.12183,0 1.7145,-0.67733 1.7145,-1.82033 v -1.04775 h -1.10067 v 1.13242 c 0,0.48683 -0.23283,0.67733 -0.58208,0.67733 -0.34925,0 -0.58208,-0.1905 -0.58208,-0.67733 v -4.13809 c 0,-0.48683 0.23283,-0.68791 0.58208,-0.68791 0.34925,0 0.58208,0.20108 0.58208,0.68791 v 0.85725 h 1.10067 v -0.78316 c 0,-1.143 -0.59267,-1.82034 -1.7145,-1.82034 -1.12183,0 -1.7145,0.67734 -1.7145,1.82034 v 3.97933 c 0,1.143 0.59267,1.82033 1.7145,1.82033 z"
         style="stroke:#000000;stroke-width:0.52916676;stroke-linejoin:round;stroke-miterlimit:4;stroke-dasharray:none;stroke-opacity:1"
         id="path4035" />
    </g>
    <g
       aria-label="C"
       style="font-style:normal;font-variant:normal;font-weight:normal;font-stretch:normal;font-size:8.4394598px;line-height:1.25;font-family:'Bebas Neue';-inkscape-font-specification:'Bebas Neue';letter-spacing:0px;word-spacing:0px;fill:#000000;fill-opacity:1;stroke:#000000;stroke-width:0.42197305;stroke-linejoin:round;stroke-miterlimit:4;stroke-dasharray:none;stroke-opacity:1"
       id="text3546">
      <path
         d="m 131.66774,159.90686 c 0.89459,0 1.3672,-0.54013 1.3672,-1.45159 v -0.83551 h -0.87771 v 0.90303 c 0,0.38821 -0.18566,0.54012 -0.46417,0.54012 -0.2785,0 -0.46417,-0.15191 -0.46417,-0.54012 v -3.29983 c 0,-0.38822 0.18567,-0.54857 0.46417,-0.54857 0.27851,0 0.46417,0.16035 0.46417,0.54857 v 0.68359 h 0.87771 v -0.62452 c 0,-0.91146 -0.47261,-1.45158 -1.3672,-1.45158 -0.89458,0 -1.36719,0.54012 -1.36719,1.45158 v 3.17324 c 0,0.91146 0.47261,1.45159 1.36719,1.45159 z"
         style="stroke:#000000;stroke-width:0.42197305;stroke-linejoin:round;stroke-miterlimit:4;stroke-dasharray:none;stroke-opacity:1"
         id="path4038" />
    </g>
    <g
       aria-label="C"
       style="font-style:normal;font-variant:normal;font-weight:normal;font-stretch:normal;font-size:8.4394598px;line-height:1.25;font-family:'Bebas Neue';-inkscape-font-specification:'Bebas Neue';letter-spacing:0px;word-spacing:0px;fill:#000000;fill-opacity:1;stroke:#000000;stroke-width:0.42197305;stroke-linejoin:round;stroke-miterlimit:4;stroke-dasharray:none;stroke-opacity:1"
       id="text3550">
      <path
         d="m 69.794835,159.84004 c 0.894583,0 1.367193,-0.54013 1.367193,-1.45159 v -0.8355 h -0.877704 v 0.90302 c 0,0.38821 -0.185668,0.54012 -0.46417,0.54012 -0.278502,0 -0.46417,-0.15191 -0.46417,-0.54012 v -3.29983 c 0,-0.38821 0.185668,-0.54856 0.46417,-0.54856 0.278502,0 0.46417,0.16035 0.46417,0.54856 v 0.6836 h 0.877704 v -0.62452 c 0,-0.91147 -0.47261,-1.45159 -1.367193,-1.45159 -0.894582,0 -1.367192,0.54012 -1.367192,1.45159 v 3.17323 c 0,0.91146 0.47261,1.45159 1.367192,1.45159 z"
         style="stroke:#000000;stroke-width:0.42197305;stroke-linejoin:round;stroke-miterlimit:4;stroke-dasharray:none;stroke-opacity:1"
         id="path4041" />
    </g>
    <g
       aria-label="C"
       style="font-style:normal;font-variant:normal;font-weight:normal;font-stretch:normal;font-size:6.29558706px;line-height:1.25;font-family:'Bebas Neue';-inkscape-font-specification:'Bebas Neue';letter-spacing:0px;word-spacing:0px;fill:#000000;fill-opacity:1;stroke:#000000;stroke-width:0.31477937;stroke-linejoin:round;stroke-miterlimit:4;stroke-dasharray:none;stroke-opacity:1"
       id="text3554">
      <path
         d="m 85.351817,143.11441 c 0.667332,0 1.019885,-0.40292 1.019885,-1.08284 v -0.62327 h -0.654741 v 0.67363 c 0,0.2896 -0.138503,0.40292 -0.346257,0.40292 -0.207755,0 -0.346258,-0.11332 -0.346258,-0.40292 v -2.46157 c 0,-0.2896 0.138503,-0.40922 0.346258,-0.40922 0.207754,0 0.346257,0.11962 0.346257,0.40922 v 0.50994 h 0.654741 v -0.46587 c 0,-0.67993 -0.352553,-1.08284 -1.019885,-1.08284 -0.667332,0 -1.019885,0.40291 -1.019885,1.08284 v 2.36714 c 0,0.67992 0.352553,1.08284 1.019885,1.08284 z"
         style="stroke:#000000;stroke-width:0.31477937;stroke-linejoin:round;stroke-miterlimit:4;stroke-dasharray:none;stroke-opacity:1"
         id="path4044" />
    </g>
    <path
       style="opacity:1;fill:#ececec;fill-opacity:1;fill-rule:nonzero;stroke:none;stroke-width:0.5647077;stroke-linecap:round;stroke-linejoin:round;stroke-miterlimit:4;stroke-dasharray:none;stroke-opacity:1"
       d="m 84.345586,151.8802 h 4.853884 c 2.905176,0 5.244,2.33883 5.244,5.244 v 8.4e-4 c 0,2.90518 -2.338824,5.244 -5.244,5.244 h -4.853884 c -2.905176,0 -5.244001,-2.33882 -5.244001,-5.244 v -8.4e-4 c 0,-2.90517 2.338825,-5.244 5.244001,-5.244 z"
       id="rect3556" />
    <g
       aria-label="OH"
       style="font-style:normal;font-variant:normal;font-weight:normal;font-stretch:normal;font-size:8.4394598px;line-height:1.25;font-family:'Bebas Neue';-inkscape-font-specification:'Bebas Neue';letter-spacing:0px;word-spacing:0px;fill:#000000;fill-opacity:1;stroke:#000000;stroke-width:0.42197305;stroke-linejoin:round;stroke-miterlimit:4;stroke-dasharray:none;stroke-opacity:1"
       id="text3560">
      <path
         d="m 84.94765,160.12352 c 0.911462,0 1.40939,-0.54013 1.40939,-1.48535 v -3.10572 c 0,-0.94522 -0.497928,-1.48534 -1.40939,-1.48534 -0.911462,0 -1.40939,0.54012 -1.40939,1.48534 v 3.10572 c 0,0.94522 0.497928,1.48535 1.40939,1.48535 z m 0,-0.84395 c -0.295381,0 -0.481049,-0.16035 -0.481049,-0.58232 v -3.22387 c 0,-0.42198 0.185668,-0.58233 0.481049,-0.58233 0.295381,0 0.481049,0.16035 0.481049,0.58233 v 3.22387 c 0,0.42197 -0.185668,0.58232 -0.481049,0.58232 z"
         style="stroke:#000000;stroke-width:0.42197305;stroke-linejoin:round;stroke-miterlimit:4;stroke-dasharray:none;stroke-opacity:1"
         id="path4048" />
      <path
         d="m 86.984856,160.03912 h 0.928341 v -2.65843 h 0.995856 v 2.65843 h 0.928341 v -5.90762 h -0.928341 v 2.40525 h -0.995856 v -2.40525 h -0.928341 z"
         style="stroke:#000000;stroke-width:0.42197305;stroke-linejoin:round;stroke-miterlimit:4;stroke-dasharray:none;stroke-opacity:1"
         id="path4050" />
    </g>
    <path
       style="opacity:1;fill:#ececec;fill-opacity:1;fill-rule:nonzero;stroke:none;stroke-width:0.5647077;stroke-linecap:round;stroke-linejoin:round;stroke-miterlimit:4;stroke-dasharray:none;stroke-opacity:1"
       d="m 115.63932,185.38261 h 4.85388 c 2.90518,0 5.244,2.33883 5.244,5.244 v 8.4e-4 c 0,2.90518 -2.33882,5.244 -5.244,5.244 h -4.85388 c -2.90518,0 -5.244,-2.33882 -5.244,-5.244 v -8.4e-4 c 0,-2.90517 2.33882,-5.244 5.244,-5.244 z"
       id="rect3562" />
    <g
       aria-label="OH"
       style="font-style:normal;font-variant:normal;font-weight:normal;font-stretch:normal;font-size:8.4394598px;line-height:1.25;font-family:'Bebas Neue';-inkscape-font-specification:'Bebas Neue';letter-spacing:0px;word-spacing:0px;fill:#000000;fill-opacity:1;stroke:#000000;stroke-width:0.42197305;stroke-linejoin:round;stroke-miterlimit:4;stroke-dasharray:none;stroke-opacity:1"
       id="text3566">
      <path
         d="m 116.24138,193.62591 c 0.91146,0 1.40939,-0.54012 1.40939,-1.48534 v -3.10572 c 0,-0.94522 -0.49793,-1.48535 -1.40939,-1.48535 -0.91146,0 -1.40939,0.54013 -1.40939,1.48535 v 3.10572 c 0,0.94522 0.49793,1.48534 1.40939,1.48534 z m 0,-0.84394 c -0.29538,0 -0.48105,-0.16035 -0.48105,-0.58232 v -3.22388 c 0,-0.42197 0.18567,-0.58232 0.48105,-0.58232 0.29538,0 0.48105,0.16035 0.48105,0.58232 v 3.22388 c 0,0.42197 -0.18567,0.58232 -0.48105,0.58232 z"
         style="stroke:#000000;stroke-width:0.42197305;stroke-linejoin:round;stroke-miterlimit:4;stroke-dasharray:none;stroke-opacity:1"
         id="path4054" />
      <path
         d="m 118.27859,193.54152 h 0.92834 v -2.65843 h 0.99585 v 2.65843 h 0.92835 v -5.90762 h -0.92835 v 2.40524 h -0.99585 v -2.40524 h -0.92834 z"
         style="stroke:#000000;stroke-width:0.42197305;stroke-linejoin:round;stroke-miterlimit:4;stroke-dasharray:none;stroke-opacity:1"
         id="path4056" />
    </g>
    <g
       aria-label="O"
       style="font-style:normal;font-variant:normal;font-weight:normal;font-stretch:normal;font-size:6.29558706px;line-height:1.25;font-family:'Bebas Neue';-inkscape-font-specification:'Bebas Neue';letter-spacing:0px;word-spacing:0px;fill:#000000;fill-opacity:1;stroke:#000000;stroke-width:0.31477937;stroke-linejoin:round;stroke-miterlimit:4;stroke-dasharray:none;stroke-opacity:1"
       id="text3570">
      <path
         d="m 116.27657,143.11441 c 0.67992,0 1.05136,-0.40292 1.05136,-1.10802 v -2.31678 c 0,-0.70511 -0.37144,-1.10802 -1.05136,-1.10802 -0.67993,0 -1.05137,0.40291 -1.05137,1.10802 v 2.31678 c 0,0.7051 0.37144,1.10802 1.05137,1.10802 z m 0,-0.62956 c -0.22035,0 -0.35885,-0.11962 -0.35885,-0.4344 v -2.40491 c 0,-0.31478 0.1385,-0.4344 0.35885,-0.4344 0.22034,0 0.35884,0.11962 0.35884,0.4344 v 2.40491 c 0,0.31478 -0.1385,0.4344 -0.35884,0.4344 z"
         style="stroke:#000000;stroke-width:0.31477937;stroke-linejoin:round;stroke-miterlimit:4;stroke-dasharray:none;stroke-opacity:1"
         id="path4059" />
    </g>
    <path
       style="opacity:1;fill:#ececec;fill-opacity:1;fill-rule:nonzero;stroke:none;stroke-width:0.52916664;stroke-linecap:round;stroke-linejoin:round;stroke-miterlimit:4;stroke-dasharray:none;stroke-opacity:1"
       d="m 85.058321,125.51363 h 10.484083 c 2.146975,0 3.875406,1.72843 3.875406,3.87541 0,2.14698 -1.728431,3.87541 -3.875406,3.87541 H 85.058321 c -2.146975,0 -3.875406,-1.72843 -3.875406,-3.87541 0,-2.14698 1.728431,-3.87541 3.875406,-3.87541 z"
       id="rect3572" />
    <g
       aria-label="CH2oh"
       style="font-style:normal;font-variant:normal;font-weight:normal;font-stretch:normal;font-size:6.29558706px;line-height:1.25;font-family:'Bebas Neue';-inkscape-font-specification:'Bebas Neue';letter-spacing:0px;word-spacing:0px;fill:#000000;fill-opacity:1;stroke:#000000;stroke-width:0.31477937;stroke-linejoin:round;stroke-miterlimit:4;stroke-dasharray:none;stroke-opacity:1"
       id="text3578">
      <path
         d="m 85.446315,131.58613 c 0.667332,0 1.019885,-0.40291 1.019885,-1.08284 v -0.62326 h -0.654741 v 0.67363 c 0,0.28959 -0.138503,0.40292 -0.346258,0.40292 -0.207754,0 -0.346257,-0.11333 -0.346257,-0.40292 v -2.46158 c 0,-0.28959 0.138503,-0.40921 0.346257,-0.40921 0.207755,0 0.346258,0.11962 0.346258,0.40921 v 0.50995 H 86.4662 v -0.46588 c 0,-0.67992 -0.352553,-1.08284 -1.019885,-1.08284 -0.667333,0 -1.019886,0.40292 -1.019886,1.08284 v 2.36714 c 0,0.67993 0.352553,1.08284 1.019886,1.08284 z"
         style="stroke:#000000;stroke-width:0.31477937;stroke-linejoin:round;stroke-miterlimit:4;stroke-dasharray:none;stroke-opacity:1"
         id="path4063" />
      <path
         d="m 86.880528,131.52318 h 0.692515 v -1.98311 h 0.742879 v 1.98311 h 0.692514 v -4.40691 h -0.692514 v 1.79424 h -0.742879 v -1.79424 h -0.692515 z"
         style="stroke:#000000;stroke-width:0.31477937;stroke-linejoin:round;stroke-miterlimit:4;stroke-dasharray:none;stroke-opacity:1"
         id="path4065" />
      <path
         d="m 89.425657,132.7823 h 1.301298 v -0.40922 h -0.855256 v -0.0614 c 0,-0.20051 0.06957,-0.34374 0.339647,-0.63019 0.417397,-0.44195 0.55653,-0.74477 0.55653,-1.08441 0,-0.45832 -0.22916,-0.72022 -0.67111,-0.72022 -0.44195,0 -0.671109,0.2619 -0.671109,0.72022 v 0.27826 h 0.425581 v -0.30691 c 0,-0.2046 0.09003,-0.28235 0.233252,-0.28235 0.143225,0 0.233251,0.0696 0.233251,0.32737 0,0.26598 -0.09821,0.48287 -0.44195,0.84707 -0.335555,0.35192 -0.450134,0.60154 -0.450134,1.01075 z"
         style="font-size:4.09213114px;baseline-shift:sub;stroke-width:0.31477937"
         id="path4067" />
      <path
         d="m 92.163632,131.58613 c 0.679924,0 1.051363,-0.40291 1.051363,-1.10802 v -2.31678 c 0,-0.7051 -0.371439,-1.10802 -1.051363,-1.10802 -0.679923,0 -1.051363,0.40292 -1.051363,1.10802 v 2.31678 c 0,0.70511 0.37144,1.10802 1.051363,1.10802 z m 0,-0.62955 c -0.220345,0 -0.358848,-0.11962 -0.358848,-0.4344 v -2.40491 c 0,-0.31478 0.138503,-0.4344 0.358848,-0.4344 0.220346,0 0.358849,0.11962 0.358849,0.4344 v 2.40491 c 0,0.31478 -0.138503,0.4344 -0.358849,0.4344 z"
         style="stroke:#000000;stroke-width:0.31477937;stroke-linejoin:round;stroke-miterlimit:4;stroke-dasharray:none;stroke-opacity:1"
         id="path4069" />
      <path
         d="m 93.683328,131.52318 h 0.692515 v -1.98311 h 0.742879 v 1.98311 h 0.692515 v -4.40691 h -0.692515 v 1.79424 h -0.742879 v -1.79424 h -0.692515 z"
         style="stroke:#000000;stroke-width:0.31477937;stroke-linejoin:round;stroke-miterlimit:4;stroke-dasharray:none;stroke-opacity:1"
         id="path4071" />
    </g>
    <g
       aria-label="O"
       style="font-style:normal;font-variant:normal;font-weight:normal;font-stretch:normal;font-size:8.4394598px;line-height:1.25;font-family:'Bebas Neue';-inkscape-font-specification:'Bebas Neue';letter-spacing:0px;word-spacing:0px;fill:#000000;fill-opacity:1;stroke:#000000;stroke-width:0.42197305;stroke-linejoin:round;stroke-miterlimit:4;stroke-dasharray:none;stroke-opacity:1"
       id="text3582">
      <path
         d="m 151.34581,159.90686 c 0.91146,0 1.40938,-0.54013 1.40938,-1.48535 v -3.10572 c 0,-0.94522 -0.49792,-1.48534 -1.40938,-1.48534 -0.91147,0 -1.40939,0.54012 -1.40939,1.48534 v 3.10572 c 0,0.94522 0.49792,1.48535 1.40939,1.48535 z m 0,-0.84395 c -0.29539,0 -0.48105,-0.16035 -0.48105,-0.58232 v -3.22387 c 0,-0.42198 0.18566,-0.58233 0.48105,-0.58233 0.29538,0 0.48104,0.16035 0.48104,0.58233 v 3.22387 c 0,0.42197 -0.18566,0.58232 -0.48104,0.58232 z"
         style="stroke:#000000;stroke-width:0.42197305;stroke-linejoin:round;stroke-miterlimit:4;stroke-dasharray:none;stroke-opacity:1"
         id="path4074" />
    </g>
    <path
       inkscape:connector-curvature="0"
       id="path3584"
       d="M 217.13695,190.53255 V 173.06198"
       style="fill:none;stroke:#999999;stroke-width:1.32291663;stroke-linecap:butt;stroke-linejoin:miter;stroke-miterlimit:4;stroke-dasharray:none;stroke-opacity:1" />
    <path
       style="fill:none;stroke:#999999;stroke-width:1.32291663;stroke-linecap:butt;stroke-linejoin:miter;stroke-miterlimit:4;stroke-dasharray:none;stroke-opacity:1"
       d="M 185.99458,172.88128 V 155.41071"
       id="path3586"
       inkscape:connector-curvature="0" />
    <path
       style="fill:none;stroke:#999999;stroke-width:1.32291663;stroke-linecap:round;stroke-linejoin:miter;stroke-miterlimit:4;stroke-dasharray:none;stroke-opacity:1"
       d="m 232.22091,156.98421 h 19.73518"
       id="path3588"
       inkscape:connector-curvature="0" />
    <path
       style="opacity:1;fill:none;fill-opacity:1;fill-rule:nonzero;stroke:#999999;stroke-width:1.32291663;stroke-linecap:round;stroke-linejoin:round;stroke-miterlimit:4;stroke-dasharray:none;stroke-opacity:1"
       inkscape:transform-center-x="-1.2068245e-006"
       inkscape:transform-center-y="-9.2373936e-006"
       d="m 232.55481,156.98421 -15.41786,16.07777 h -30.83573 l -15.41786,-16.07777 15.41786,-16.07775 h 30.83573 z"
       id="path3590"
       inkscape:connector-curvature="0" />
    <path
       style="opacity:1;fill:#ececec;fill-opacity:1;fill-rule:nonzero;stroke:none;stroke-width:1.32291663;stroke-linecap:round;stroke-linejoin:miter;stroke-miterlimit:4;stroke-dasharray:none;stroke-opacity:1"
       d="m 192.98296,173.06197 a 6.6817379,6.6817379 0 0 1 -6.68174,6.68173 6.6817379,6.6817379 0 0 1 -6.68173,-6.68173 6.6817379,6.6817379 0 0 1 6.68173,-6.68174 6.6817379,6.6817379 0 0 1 6.68174,6.68174 z"
       id="circle3592" />
    <path
       style="opacity:1;fill:#ececec;fill-opacity:1;fill-rule:nonzero;stroke:none;stroke-width:1.32291663;stroke-linecap:round;stroke-linejoin:miter;stroke-miterlimit:4;stroke-dasharray:none;stroke-opacity:1"
       d="m 223.8187,173.06197 a 6.6817379,6.6817379 0 0 1 -6.68174,6.68173 6.6817379,6.6817379 0 0 1 -6.68174,-6.68173 6.6817379,6.6817379 0 0 1 6.68174,-6.68174 6.6817379,6.6817379 0 0 1 6.68174,6.68174 z"
       id="circle3594" />
    <path
       style="opacity:1;fill:#ececec;fill-opacity:1;fill-rule:nonzero;stroke:none;stroke-width:1.32291663;stroke-linecap:round;stroke-linejoin:miter;stroke-miterlimit:4;stroke-dasharray:none;stroke-opacity:1"
       d="m 176.22875,156.98421 a 5.3453898,5.3453898 0 0 1 -5.34539,5.34539 5.3453898,5.3453898 0 0 1 -5.34539,-5.34539 5.3453898,5.3453898 0 0 1 5.34539,-5.34539 5.3453898,5.3453898 0 0 1 5.34539,5.34539 z"
       id="circle3596" />
    <path
       style="fill:none;stroke:#999999;stroke-width:1.32291663;stroke-linecap:butt;stroke-linejoin:miter;stroke-miterlimit:4;stroke-dasharray:none;stroke-opacity:1"
       d="M 186.30122,140.90646 V 129.39991"
       id="path3598"
       inkscape:connector-curvature="0" />
    <path
       style="opacity:1;fill:#ececec;fill-opacity:1;fill-rule:nonzero;stroke:none;stroke-width:1.32291663;stroke-linecap:round;stroke-linejoin:miter;stroke-miterlimit:4;stroke-dasharray:none;stroke-opacity:1"
       d="m 190.17663,140.90646 a 3.8754075,3.8754075 0 0 1 -3.87541,3.87541 3.8754075,3.8754075 0 0 1 -3.8754,-3.87541 3.8754075,3.8754075 0 0 1 3.8754,-3.8754 3.8754075,3.8754075 0 0 1 3.87541,3.8754 z"
       id="circle3600" />
    <path
       style="opacity:1;fill:#ececec;fill-opacity:1;fill-rule:nonzero;stroke:none;stroke-width:1.32291663;stroke-linecap:round;stroke-linejoin:miter;stroke-miterlimit:4;stroke-dasharray:none;stroke-opacity:1"
       d="m 237.90023,156.98421 a 5.3453898,5.3453898 0 0 1 -5.34539,5.34539 5.3453898,5.3453898 0 0 1 -5.34539,-5.34539 5.3453898,5.3453898 0 0 1 5.34539,-5.34539 5.3453898,5.3453898 0 0 1 5.34539,5.34539 z"
       id="circle3602" />
    <path
       style="opacity:1;fill:#ececec;fill-opacity:1;fill-rule:nonzero;stroke:none;stroke-width:1.32291663;stroke-linecap:round;stroke-linejoin:miter;stroke-miterlimit:4;stroke-dasharray:none;stroke-opacity:1"
       d="m 221.01237,140.90646 a 3.8754075,3.8754075 0 0 1 -3.87541,3.87541 3.8754075,3.8754075 0 0 1 -3.8754,-3.87541 3.8754075,3.8754075 0 0 1 3.8754,-3.8754 3.8754075,3.8754075 0 0 1 3.87541,3.8754 z"
       id="circle3604" />
    <g
       aria-label="C"
       style="font-style:normal;font-variant:normal;font-weight:normal;font-stretch:normal;font-size:10.58333302px;line-height:1.25;font-family:'Bebas Neue';-inkscape-font-specification:'Bebas Neue';letter-spacing:0px;word-spacing:0px;fill:#000000;fill-opacity:1;stroke:#000000;stroke-width:0.52916676;stroke-linejoin:round;stroke-miterlimit:4;stroke-dasharray:none;stroke-opacity:1"
       id="text3610">
      <path
         d="m 186.13151,176.65962 c 1.12183,0 1.7145,-0.67733 1.7145,-1.82033 v -1.04775 h -1.10067 v 1.13241 c 0,0.48684 -0.23283,0.67734 -0.58208,0.67734 -0.34925,0 -0.58209,-0.1905 -0.58209,-0.67734 v -4.13808 c 0,-0.48683 0.23284,-0.68792 0.58209,-0.68792 0.34925,0 0.58208,0.20109 0.58208,0.68792 v 0.85725 h 1.10067 v -0.78317 c 0,-1.143 -0.59267,-1.82033 -1.7145,-1.82033 -1.12184,0 -1.7145,0.67733 -1.7145,1.82033 v 3.97934 c 0,1.143 0.59266,1.82033 1.7145,1.82033 z"
         style="stroke:#000000;stroke-width:0.52916676;stroke-linejoin:round;stroke-miterlimit:4;stroke-dasharray:none;stroke-opacity:1"
         id="path4083" />
    </g>
    <g
       aria-label="C"
       style="font-style:normal;font-variant:normal;font-weight:normal;font-stretch:normal;font-size:10.58333302px;line-height:1.25;font-family:'Bebas Neue';-inkscape-font-specification:'Bebas Neue';letter-spacing:0px;word-spacing:0px;fill:#000000;fill-opacity:1;stroke:#000000;stroke-width:0.52916676;stroke-linejoin:round;stroke-miterlimit:4;stroke-dasharray:none;stroke-opacity:1"
       id="text3614">
      <path
         d="m 217.03106,176.7541 c 1.12183,0 1.7145,-0.67733 1.7145,-1.82033 v -1.04775 h -1.10067 v 1.13242 c 0,0.48683 -0.23283,0.67733 -0.58208,0.67733 -0.34925,0 -0.58208,-0.1905 -0.58208,-0.67733 v -4.13809 c 0,-0.48683 0.23283,-0.68791 0.58208,-0.68791 0.34925,0 0.58208,0.20108 0.58208,0.68791 v 0.85725 h 1.10067 v -0.78316 c 0,-1.143 -0.59267,-1.82034 -1.7145,-1.82034 -1.12183,0 -1.7145,0.67734 -1.7145,1.82034 v 3.97933 c 0,1.143 0.59267,1.82033 1.7145,1.82033 z"
         style="stroke:#000000;stroke-width:0.52916676;stroke-linejoin:round;stroke-miterlimit:4;stroke-dasharray:none;stroke-opacity:1"
         id="path4086" />
    </g>
    <g
       aria-label="C"
       style="font-style:normal;font-variant:normal;font-weight:normal;font-stretch:normal;font-size:8.4394598px;line-height:1.25;font-family:'Bebas Neue';-inkscape-font-specification:'Bebas Neue';letter-spacing:0px;word-spacing:0px;fill:#000000;fill-opacity:1;stroke:#000000;stroke-width:0.42197305;stroke-linejoin:round;stroke-miterlimit:4;stroke-dasharray:none;stroke-opacity:1"
       id="text3618">
      <path
         d="m 232.62832,159.90686 c 0.89458,0 1.36719,-0.54013 1.36719,-1.45159 v -0.83551 h -0.87771 v 0.90303 c 0,0.38821 -0.18566,0.54012 -0.46417,0.54012 -0.2785,0 -0.46417,-0.15191 -0.46417,-0.54012 v -3.29983 c 0,-0.38822 0.18567,-0.54857 0.46417,-0.54857 0.27851,0 0.46417,0.16035 0.46417,0.54857 v 0.68359 h 0.87771 v -0.62452 c 0,-0.91146 -0.47261,-1.45158 -1.36719,-1.45158 -0.89459,0 -1.3672,0.54012 -1.3672,1.45158 v 3.17324 c 0,0.91146 0.47261,1.45159 1.3672,1.45159 z"
         style="stroke:#000000;stroke-width:0.42197305;stroke-linejoin:round;stroke-miterlimit:4;stroke-dasharray:none;stroke-opacity:1"
         id="path4089" />
    </g>
    <g
       aria-label="C"
       style="font-style:normal;font-variant:normal;font-weight:normal;font-stretch:normal;font-size:8.4394598px;line-height:1.25;font-family:'Bebas Neue';-inkscape-font-specification:'Bebas Neue';letter-spacing:0px;word-spacing:0px;fill:#000000;fill-opacity:1;stroke:#000000;stroke-width:0.42197305;stroke-linejoin:round;stroke-miterlimit:4;stroke-dasharray:none;stroke-opacity:1"
       id="text3622">
      <path
         d="m 170.75542,159.84004 c 0.89458,0 1.36719,-0.54013 1.36719,-1.45159 v -0.8355 h -0.8777 v 0.90302 c 0,0.38821 -0.18567,0.54012 -0.46417,0.54012 -0.2785,0 -0.46417,-0.15191 -0.46417,-0.54012 v -3.29983 c 0,-0.38821 0.18567,-0.54856 0.46417,-0.54856 0.2785,0 0.46417,0.16035 0.46417,0.54856 v 0.6836 h 0.8777 v -0.62452 c 0,-0.91147 -0.47261,-1.45159 -1.36719,-1.45159 -0.89458,0 -1.36719,0.54012 -1.36719,1.45159 v 3.17323 c 0,0.91146 0.47261,1.45159 1.36719,1.45159 z"
         style="stroke:#000000;stroke-width:0.42197305;stroke-linejoin:round;stroke-miterlimit:4;stroke-dasharray:none;stroke-opacity:1"
         id="path4092" />
    </g>
    <g
       aria-label="C"
       style="font-style:normal;font-variant:normal;font-weight:normal;font-stretch:normal;font-size:6.29558706px;line-height:1.25;font-family:'Bebas Neue';-inkscape-font-specification:'Bebas Neue';letter-spacing:0px;word-spacing:0px;fill:#000000;fill-opacity:1;stroke:#000000;stroke-width:0.31477937;stroke-linejoin:round;stroke-miterlimit:4;stroke-dasharray:none;stroke-opacity:1"
       id="text3626">
      <path
         d="m 186.3124,143.11441 c 0.66733,0 1.01988,-0.40292 1.01988,-1.08284 v -0.62327 h -0.65474 v 0.67363 c 0,0.2896 -0.1385,0.40292 -0.34626,0.40292 -0.20775,0 -0.34625,-0.11332 -0.34625,-0.40292 v -2.46157 c 0,-0.2896 0.1385,-0.40922 0.34625,-0.40922 0.20776,0 0.34626,0.11962 0.34626,0.40922 v 0.50994 h 0.65474 v -0.46587 c 0,-0.67993 -0.35255,-1.08284 -1.01988,-1.08284 -0.66734,0 -1.01989,0.40291 -1.01989,1.08284 v 2.36714 c 0,0.67992 0.35255,1.08284 1.01989,1.08284 z"
         style="stroke:#000000;stroke-width:0.31477937;stroke-linejoin:round;stroke-miterlimit:4;stroke-dasharray:none;stroke-opacity:1"
         id="path4095" />
    </g>
    <path
       style="opacity:1;fill:#ececec;fill-opacity:1;fill-rule:nonzero;stroke:none;stroke-width:0.5647077;stroke-linecap:round;stroke-linejoin:round;stroke-miterlimit:4;stroke-dasharray:none;stroke-opacity:1"
       d="m 185.30616,151.8802 h 4.85389 c 2.90517,0 5.244,2.33883 5.244,5.244 v 8.4e-4 c 0,2.90518 -2.33883,5.244 -5.244,5.244 h -4.85389 c -2.90517,0 -5.244,-2.33882 -5.244,-5.244 v -8.4e-4 c 0,-2.90517 2.33883,-5.244 5.244,-5.244 z"
       id="rect3628" />
    <g
       aria-label="OH"
       style="font-style:normal;font-variant:normal;font-weight:normal;font-stretch:normal;font-size:8.4394598px;line-height:1.25;font-family:'Bebas Neue';-inkscape-font-specification:'Bebas Neue';letter-spacing:0px;word-spacing:0px;fill:#000000;fill-opacity:1;stroke:#000000;stroke-width:0.42197305;stroke-linejoin:round;stroke-miterlimit:4;stroke-dasharray:none;stroke-opacity:1"
       id="text3632">
      <path
         d="m 185.90823,160.12352 c 0.91146,0 1.40939,-0.54013 1.40939,-1.48535 v -3.10572 c 0,-0.94522 -0.49793,-1.48534 -1.40939,-1.48534 -0.91146,0 -1.40939,0.54012 -1.40939,1.48534 v 3.10572 c 0,0.94522 0.49793,1.48535 1.40939,1.48535 z m 0,-0.84395 c -0.29538,0 -0.48105,-0.16035 -0.48105,-0.58232 v -3.22387 c 0,-0.42198 0.18567,-0.58233 0.48105,-0.58233 0.29538,0 0.48105,0.16035 0.48105,0.58233 v 3.22387 c 0,0.42197 -0.18567,0.58232 -0.48105,0.58232 z"
         style="stroke:#000000;stroke-width:0.42197305;stroke-linejoin:round;stroke-miterlimit:4;stroke-dasharray:none;stroke-opacity:1"
         id="path4099" />
      <path
         d="m 187.94544,160.03912 h 0.92834 v -2.65843 h 0.99585 v 2.65843 h 0.92834 v -5.90762 h -0.92834 v 2.40525 h -0.99585 v -2.40525 h -0.92834 z"
         style="stroke:#000000;stroke-width:0.42197305;stroke-linejoin:round;stroke-miterlimit:4;stroke-dasharray:none;stroke-opacity:1"
         id="path4101" />
    </g>
    <path
       style="opacity:1;fill:#ececec;fill-opacity:1;fill-rule:nonzero;stroke:none;stroke-width:0.5647077;stroke-linecap:round;stroke-linejoin:round;stroke-miterlimit:4;stroke-dasharray:none;stroke-opacity:1"
       d="m 216.5999,185.38261 h 4.85388 c 2.90518,0 5.244,2.33883 5.244,5.244 v 8.4e-4 c 0,2.90518 -2.33882,5.244 -5.244,5.244 h -4.85388 c -2.90518,0 -5.244,-2.33882 -5.244,-5.244 v -8.4e-4 c 0,-2.90517 2.33882,-5.244 5.244,-5.244 z"
       id="rect3634" />
    <g
       aria-label="OH"
       style="font-style:normal;font-variant:normal;font-weight:normal;font-stretch:normal;font-size:8.4394598px;line-height:1.25;font-family:'Bebas Neue';-inkscape-font-specification:'Bebas Neue';letter-spacing:0px;word-spacing:0px;fill:#000000;fill-opacity:1;stroke:#000000;stroke-width:0.42197305;stroke-linejoin:round;stroke-miterlimit:4;stroke-dasharray:none;stroke-opacity:1"
       id="text3638">
      <path
         d="m 217.20196,193.62591 c 0.91146,0 1.40939,-0.54012 1.40939,-1.48534 v -3.10572 c 0,-0.94522 -0.49793,-1.48535 -1.40939,-1.48535 -0.91146,0 -1.40939,0.54013 -1.40939,1.48535 v 3.10572 c 0,0.94522 0.49793,1.48534 1.40939,1.48534 z m 0,-0.84394 c -0.29538,0 -0.48105,-0.16035 -0.48105,-0.58232 v -3.22388 c 0,-0.42197 0.18567,-0.58232 0.48105,-0.58232 0.29538,0 0.48105,0.16035 0.48105,0.58232 v 3.22388 c 0,0.42197 -0.18567,0.58232 -0.48105,0.58232 z"
         style="stroke:#000000;stroke-width:0.42197305;stroke-linejoin:round;stroke-miterlimit:4;stroke-dasharray:none;stroke-opacity:1"
         id="path4105" />
      <path
         d="m 219.23917,193.54152 h 0.92834 v -2.65843 h 0.99585 v 2.65843 h 0.92834 v -5.90762 h -0.92834 v 2.40524 h -0.99585 v -2.40524 h -0.92834 z"
         style="stroke:#000000;stroke-width:0.42197305;stroke-linejoin:round;stroke-miterlimit:4;stroke-dasharray:none;stroke-opacity:1"
         id="path4107" />
    </g>
    <g
       aria-label="O"
       style="font-style:normal;font-variant:normal;font-weight:normal;font-stretch:normal;font-size:6.29558706px;line-height:1.25;font-family:'Bebas Neue';-inkscape-font-specification:'Bebas Neue';letter-spacing:0px;word-spacing:0px;fill:#000000;fill-opacity:1;stroke:#000000;stroke-width:0.31477937;stroke-linejoin:round;stroke-miterlimit:4;stroke-dasharray:none;stroke-opacity:1"
       id="text3642">
      <path
         d="m 217.23714,143.11441 c 0.67993,0 1.05137,-0.40292 1.05137,-1.10802 v -2.31678 c 0,-0.70511 -0.37144,-1.10802 -1.05137,-1.10802 -0.67992,0 -1.05136,0.40291 -1.05136,1.10802 v 2.31678 c 0,0.7051 0.37144,1.10802 1.05136,1.10802 z m 0,-0.62956 c -0.22034,0 -0.35884,-0.11962 -0.35884,-0.4344 v -2.40491 c 0,-0.31478 0.1385,-0.4344 0.35884,-0.4344 0.22035,0 0.35885,0.11962 0.35885,0.4344 v 2.40491 c 0,0.31478 -0.1385,0.4344 -0.35885,0.4344 z"
         style="stroke:#000000;stroke-width:0.31477937;stroke-linejoin:round;stroke-miterlimit:4;stroke-dasharray:none;stroke-opacity:1"
         id="path4110" />
    </g>
    <path
       style="opacity:1;fill:#ececec;fill-opacity:1;fill-rule:nonzero;stroke:none;stroke-width:0.52916664;stroke-linecap:round;stroke-linejoin:round;stroke-miterlimit:4;stroke-dasharray:none;stroke-opacity:1"
       d="m 186.0189,125.51363 h 10.48408 c 2.14698,0 3.87541,1.72843 3.87541,3.87541 0,2.14698 -1.72843,3.87541 -3.87541,3.87541 H 186.0189 c -2.14698,0 -3.87541,-1.72843 -3.87541,-3.87541 0,-2.14698 1.72843,-3.87541 3.87541,-3.87541 z"
       id="rect3644" />
    <g
       aria-label="CH2oh"
       style="font-style:normal;font-variant:normal;font-weight:normal;font-stretch:normal;font-size:6.29558706px;line-height:1.25;font-family:'Bebas Neue';-inkscape-font-specification:'Bebas Neue';letter-spacing:0px;word-spacing:0px;fill:#000000;fill-opacity:1;stroke:#000000;stroke-width:0.31477937;stroke-linejoin:round;stroke-miterlimit:4;stroke-dasharray:none;stroke-opacity:1"
       id="text3650">
      <path
         d="m 186.40689,131.58613 c 0.66734,0 1.01989,-0.40291 1.01989,-1.08284 v -0.62326 h -0.65474 v 0.67363 c 0,0.28959 -0.13851,0.40292 -0.34626,0.40292 -0.20775,0 -0.34626,-0.11333 -0.34626,-0.40292 v -2.46158 c 0,-0.28959 0.13851,-0.40921 0.34626,-0.40921 0.20775,0 0.34626,0.11962 0.34626,0.40921 v 0.50995 h 0.65474 v -0.46588 c 0,-0.67992 -0.35255,-1.08284 -1.01989,-1.08284 -0.66733,0 -1.01988,0.40292 -1.01988,1.08284 v 2.36714 c 0,0.67993 0.35255,1.08284 1.01988,1.08284 z"
         style="stroke:#000000;stroke-width:0.31477937;stroke-linejoin:round;stroke-miterlimit:4;stroke-dasharray:none;stroke-opacity:1"
         id="path4114" />
      <path
         d="m 187.84111,131.52318 h 0.69251 v -1.98311 h 0.74288 v 1.98311 h 0.69252 v -4.40691 h -0.69252 v 1.79424 h -0.74288 v -1.79424 h -0.69251 z"
         style="stroke:#000000;stroke-width:0.31477937;stroke-linejoin:round;stroke-miterlimit:4;stroke-dasharray:none;stroke-opacity:1"
         id="path4116" />
      <path
         d="m 190.38624,132.7823 h 1.30129 v -0.40922 h -0.85525 v -0.0614 c 0,-0.20051 0.0696,-0.34374 0.33964,-0.63019 0.4174,-0.44195 0.55653,-0.74477 0.55653,-1.08441 0,-0.45832 -0.22915,-0.72022 -0.6711,-0.72022 -0.44195,0 -0.67111,0.2619 -0.67111,0.72022 v 0.27826 h 0.42558 v -0.30691 c 0,-0.2046 0.09,-0.28235 0.23325,-0.28235 0.14322,0 0.23325,0.0696 0.23325,0.32737 0,0.26598 -0.0982,0.48287 -0.44195,0.84707 -0.33555,0.35192 -0.45013,0.60154 -0.45013,1.01075 z"
         style="font-size:4.09213114px;baseline-shift:sub;stroke-width:0.31477937"
         id="path4118" />
      <path
         d="m 193.12421,131.58613 c 0.67992,0 1.05136,-0.40291 1.05136,-1.10802 v -2.31678 c 0,-0.7051 -0.37144,-1.10802 -1.05136,-1.10802 -0.67992,0 -1.05136,0.40292 -1.05136,1.10802 v 2.31678 c 0,0.70511 0.37144,1.10802 1.05136,1.10802 z m 0,-0.62955 c -0.22034,0 -0.35885,-0.11962 -0.35885,-0.4344 v -2.40491 c 0,-0.31478 0.13851,-0.4344 0.35885,-0.4344 0.22035,0 0.35885,0.11962 0.35885,0.4344 v 2.40491 c 0,0.31478 -0.1385,0.4344 -0.35885,0.4344 z"
         style="stroke:#000000;stroke-width:0.31477937;stroke-linejoin:round;stroke-miterlimit:4;stroke-dasharray:none;stroke-opacity:1"
         id="path4120" />
      <path
         d="m 194.64391,131.52318 h 0.69251 v -1.98311 h 0.74288 v 1.98311 h 0.69252 v -4.40691 h -0.69252 v 1.79424 h -0.74288 v -1.79424 h -0.69251 z"
         style="stroke:#000000;stroke-width:0.31477937;stroke-linejoin:round;stroke-miterlimit:4;stroke-dasharray:none;stroke-opacity:1"
         id="path4122" />
    </g>
    <path
       inkscape:connector-curvature="0"
       id="path1440"
       d="M 69.922792,134.52726 V 117.05669"
       style="fill:none;stroke:#999999;stroke-width:1.32291663;stroke-linecap:butt;stroke-linejoin:miter;stroke-miterlimit:4;stroke-dasharray:none;stroke-opacity:1" />
    <path
       style="fill:none;stroke:#999999;stroke-width:1.32291663;stroke-linecap:butt;stroke-linejoin:miter;stroke-miterlimit:4;stroke-dasharray:none;stroke-opacity:1"
       d="M 38.780421,116.87599 V 99.405423"
       id="path1436"
       inkscape:connector-curvature="0" />
    <path
       style="opacity:1;fill:none;fill-opacity:1;fill-rule:nonzero;stroke:#999999;stroke-width:1.32291663;stroke-linecap:round;stroke-linejoin:round;stroke-miterlimit:4;stroke-dasharray:none;stroke-opacity:1"
       inkscape:transform-center-x="-1.2068245e-006"
       inkscape:transform-center-y="-9.2373936e-006"
       d="M 85.340653,100.97892 69.922792,117.05669 H 39.087063 L 23.669199,100.97892 39.087063,84.901173 h 30.835729 z"
       id="path1391"
       inkscape:connector-curvature="0" />
    <path
       style="opacity:1;fill:#ececec;fill-opacity:1;fill-rule:nonzero;stroke:none;stroke-width:1.32291663;stroke-linecap:round;stroke-linejoin:miter;stroke-miterlimit:4;stroke-dasharray:none;stroke-opacity:1"
       d="m 45.768801,117.0567 a 6.6817379,6.6817379 0 0 1 -6.681738,6.68174 6.6817379,6.6817379 0 0 1 -6.681738,-6.68174 6.6817379,6.6817379 0 0 1 6.681738,-6.68174 6.6817379,6.6817379 0 0 1 6.681738,6.68174 z"
       id="path1368" />
    <path
       style="opacity:1;fill:#ececec;fill-opacity:1;fill-rule:nonzero;stroke:none;stroke-width:1.32291663;stroke-linecap:round;stroke-linejoin:miter;stroke-miterlimit:4;stroke-dasharray:none;stroke-opacity:1"
       d="m 76.604521,117.0567 a 6.6817379,6.6817379 0 0 1 -6.681738,6.68174 6.6817379,6.6817379 0 0 1 -6.681738,-6.68174 6.6817379,6.6817379 0 0 1 6.681738,-6.68174 6.6817379,6.6817379 0 0 1 6.681738,6.68174 z"
       id="path1368-7" />
    <path
       style="opacity:1;fill:#ececec;fill-opacity:1;fill-rule:nonzero;stroke:none;stroke-width:1.32291663;stroke-linecap:round;stroke-linejoin:miter;stroke-miterlimit:4;stroke-dasharray:none;stroke-opacity:1"
       d="m 29.014591,100.97892 a 5.3453898,5.3453898 0 0 1 -5.34539,5.34539 5.3453898,5.3453898 0 0 1 -5.34539,-5.34539 5.3453898,5.3453898 0 0 1 5.34539,-5.34539 5.3453898,5.3453898 0 0 1 5.34539,5.34539 z"
       id="circle1394" />
    <path
       style="fill:none;stroke:#999999;stroke-width:1.32291663;stroke-linecap:butt;stroke-linejoin:miter;stroke-miterlimit:4;stroke-dasharray:none;stroke-opacity:1"
       d="M 39.087063,84.901173 V 73.394623"
       id="path1404"
       inkscape:connector-curvature="0" />
    <path
       style="opacity:1;fill:#ececec;fill-opacity:1;fill-rule:nonzero;stroke:none;stroke-width:1.32291663;stroke-linecap:round;stroke-linejoin:miter;stroke-miterlimit:4;stroke-dasharray:none;stroke-opacity:1"
       d="m 42.96247,84.901176 a 3.8754075,3.8754075 0 0 1 -3.875407,3.875408 3.8754075,3.8754075 0 0 1 -3.875408,-3.875408 3.8754075,3.8754075 0 0 1 3.875408,-3.875407 3.8754075,3.8754075 0 0 1 3.875407,3.875407 z"
       id="circle1398" />
    <path
       style="opacity:1;fill:#ececec;fill-opacity:1;fill-rule:nonzero;stroke:none;stroke-width:1.32291663;stroke-linecap:round;stroke-linejoin:miter;stroke-miterlimit:4;stroke-dasharray:none;stroke-opacity:1"
       d="m 90.686035,100.97892 a 5.3453898,5.3453898 0 0 1 -5.34539,5.34539 5.3453898,5.3453898 0 0 1 -5.34539,-5.34539 5.3453898,5.3453898 0 0 1 5.34539,-5.34539 5.3453898,5.3453898 0 0 1 5.34539,5.34539 z"
       id="circle1400" />
    <path
       style="opacity:1;fill:#ececec;fill-opacity:1;fill-rule:nonzero;stroke:none;stroke-width:1.32291663;stroke-linecap:round;stroke-linejoin:miter;stroke-miterlimit:4;stroke-dasharray:none;stroke-opacity:1"
       d="m 73.79819,84.901176 a 3.8754075,3.8754075 0 0 1 -3.875407,3.875408 3.8754075,3.8754075 0 0 1 -3.875408,-3.875408 3.8754075,3.8754075 0 0 1 3.875408,-3.875407 3.8754075,3.8754075 0 0 1 3.875407,3.875407 z"
       id="circle1402" />
    <g
       aria-label="C"
       style="font-style:normal;font-variant:normal;font-weight:normal;font-stretch:normal;font-size:10.58333302px;line-height:1.25;font-family:'Bebas Neue';-inkscape-font-specification:'Bebas Neue';letter-spacing:0px;word-spacing:0px;fill:#000000;fill-opacity:1;stroke:#000000;stroke-width:0.52916676;stroke-linejoin:round;stroke-miterlimit:4;stroke-dasharray:none;stroke-opacity:1"
       id="text3099-7"
       transform="translate(1.5875)">
      <path
         d="m 37.593163,120.71752 c 1.121833,0 1.7145,-0.67733 1.7145,-1.82033 v -1.04775 h -1.100667 v 1.13241 c 0,0.48684 -0.232833,0.67734 -0.582083,0.67734 -0.34925,0 -0.582084,-0.1905 -0.582084,-0.67734 v -4.13808 c 0,-0.48683 0.232834,-0.68792 0.582084,-0.68792 0.34925,0 0.582083,0.20109 0.582083,0.68792 v 0.85725 h 1.100667 v -0.78317 c 0,-1.143 -0.592667,-1.82033 -1.7145,-1.82033 -1.121834,0 -1.7145,0.67733 -1.7145,1.82033 v 3.97934 c 0,1.143 0.592666,1.82033 1.7145,1.82033 z"
         style="stroke:#000000;stroke-width:0.52916676;stroke-linejoin:round;stroke-miterlimit:4;stroke-dasharray:none;stroke-opacity:1"
         id="path4131"
         inkscape:connector-curvature="0" />
    </g>
    <g
       aria-label="C"
       style="font-style:normal;font-variant:normal;font-weight:normal;font-stretch:normal;font-size:10.58333302px;line-height:1.25;font-family:'Bebas Neue';-inkscape-font-specification:'Bebas Neue';letter-spacing:0px;word-spacing:0px;fill:#000000;fill-opacity:1;stroke:#000000;stroke-width:0.52916676;stroke-linejoin:round;stroke-miterlimit:4;stroke-dasharray:none;stroke-opacity:1"
       id="text3103-3"
       transform="translate(1.5875)">
      <path
         d="m 68.492714,120.81201 c 1.121833,0 1.7145,-0.67733 1.7145,-1.82033 v -1.04775 h -1.100667 v 1.13241 c 0,0.48684 -0.232833,0.67734 -0.582083,0.67734 -0.34925,0 -0.582083,-0.1905 -0.582083,-0.67734 v -4.13808 c 0,-0.48683 0.232833,-0.68792 0.582083,-0.68792 0.34925,0 0.582083,0.20109 0.582083,0.68792 v 0.85725 h 1.100667 v -0.78317 c 0,-1.143 -0.592667,-1.82033 -1.7145,-1.82033 -1.121833,0 -1.7145,0.67733 -1.7145,1.82033 v 3.97934 c 0,1.143 0.592667,1.82033 1.7145,1.82033 z"
         style="stroke:#000000;stroke-width:0.52916676;stroke-linejoin:round;stroke-miterlimit:4;stroke-dasharray:none;stroke-opacity:1"
         id="path4134"
         inkscape:connector-curvature="0" />
    </g>
    <g
       aria-label="C"
       style="font-style:normal;font-variant:normal;font-weight:normal;font-stretch:normal;font-size:8.4394598px;line-height:1.25;font-family:'Bebas Neue';-inkscape-font-specification:'Bebas Neue';letter-spacing:0px;word-spacing:0px;fill:#000000;fill-opacity:1;stroke:#000000;stroke-width:0.42197305;stroke-linejoin:round;stroke-miterlimit:4;stroke-dasharray:none;stroke-opacity:1"
       id="text3107-2">
      <path
         d="m 85.414144,103.90157 c 0.894583,0 1.367192,-0.54012 1.367192,-1.45159 v -0.8355 h -0.877703 v 0.90302 c 0,0.38822 -0.185669,0.54013 -0.464171,0.54013 -0.278502,0 -0.46417,-0.15191 -0.46417,-0.54013 v -3.299829 c 0,-0.388215 0.185668,-0.548565 0.46417,-0.548565 0.278502,0 0.464171,0.16035 0.464171,0.548565 v 0.683596 h 0.877703 v -0.62452 c 0,-0.911461 -0.472609,-1.451587 -1.367192,-1.451587 -0.894583,0 -1.367193,0.540126 -1.367193,1.451587 v 3.173233 c 0,0.91147 0.47261,1.45159 1.367193,1.45159 z"
         style="stroke:#000000;stroke-width:0.42197305;stroke-linejoin:round;stroke-miterlimit:4;stroke-dasharray:none;stroke-opacity:1"
         id="path4137" />
    </g>
    <g
       aria-label="C"
       style="font-style:normal;font-variant:normal;font-weight:normal;font-stretch:normal;font-size:8.4394598px;line-height:1.25;font-family:'Bebas Neue';-inkscape-font-specification:'Bebas Neue';letter-spacing:0px;word-spacing:0px;fill:#000000;fill-opacity:1;stroke:#000000;stroke-width:0.42197305;stroke-linejoin:round;stroke-miterlimit:4;stroke-dasharray:none;stroke-opacity:1"
       id="text3111-2">
      <path
         d="m 23.541257,103.83476 c 0.894583,0 1.367193,-0.54012 1.367193,-1.45159 v -0.8355 h -0.877704 v 0.90302 c 0,0.38821 -0.185668,0.54012 -0.46417,0.54012 -0.278503,0 -0.464171,-0.15191 -0.464171,-0.54012 v -3.299829 c 0,-0.388216 0.185668,-0.548565 0.464171,-0.548565 0.278502,0 0.46417,0.160349 0.46417,0.548565 v 0.683596 h 0.877704 v -0.62452 c 0,-0.911462 -0.47261,-1.451587 -1.367193,-1.451587 -0.894583,0 -1.367192,0.540125 -1.367192,1.451587 v 3.173233 c 0,0.91147 0.472609,1.45159 1.367192,1.45159 z"
         style="stroke:#000000;stroke-width:0.42197305;stroke-linejoin:round;stroke-miterlimit:4;stroke-dasharray:none;stroke-opacity:1"
         id="path4140" />
    </g>
    <g
       aria-label="C"
       style="font-style:normal;font-variant:normal;font-weight:normal;font-stretch:normal;font-size:6.29558706px;line-height:1.25;font-family:'Bebas Neue';-inkscape-font-specification:'Bebas Neue';letter-spacing:0px;word-spacing:0px;fill:#000000;fill-opacity:1;stroke:#000000;stroke-width:0.31477937;stroke-linejoin:round;stroke-miterlimit:4;stroke-dasharray:none;stroke-opacity:1"
       id="text3115-2">
      <path
         d="m 39.098239,87.109121 c 0.667332,0 1.019885,-0.402917 1.019885,-1.082841 v -0.623263 h -0.654741 v 0.673628 c 0,0.289597 -0.138503,0.402918 -0.346258,0.402918 -0.207754,0 -0.346257,-0.113321 -0.346257,-0.402918 v -2.461574 c 0,-0.289597 0.138503,-0.409214 0.346257,-0.409214 0.207755,0 0.346258,0.119617 0.346258,0.409214 v 0.509942 h 0.654741 V 83.65914 c 0,-0.679924 -0.352553,-1.082841 -1.019885,-1.082841 -0.667333,0 -1.019885,0.402917 -1.019885,1.082841 v 2.36714 c 0,0.679924 0.352552,1.082841 1.019885,1.082841 z"
         style="stroke:#000000;stroke-width:0.31477937;stroke-linejoin:round;stroke-miterlimit:4;stroke-dasharray:none;stroke-opacity:1"
         id="path4143" />
    </g>
    <path
       style="opacity:1;fill:#ececec;fill-opacity:1;fill-rule:nonzero;stroke:none;stroke-width:0.5647077;stroke-linecap:round;stroke-linejoin:round;stroke-miterlimit:4;stroke-dasharray:none;stroke-opacity:1"
       d="m 38.091996,95.874916 h 4.853884 c 2.905176,0 5.244,2.338824 5.244,5.244004 v 8.4e-4 c 0,2.90517 -2.338824,5.244 -5.244,5.244 h -4.853884 c -2.905176,0 -5.244,-2.33883 -5.244,-5.244 v -8.4e-4 c 0,-2.90518 2.338824,-5.244004 5.244,-5.244004 z"
       id="rect3125-8" />
    <g
       aria-label="OH"
       style="font-style:normal;font-variant:normal;font-weight:normal;font-stretch:normal;font-size:8.4394598px;line-height:1.25;font-family:'Bebas Neue';-inkscape-font-specification:'Bebas Neue';letter-spacing:0px;word-spacing:0px;fill:#000000;fill-opacity:1;stroke:#000000;stroke-width:0.42197305;stroke-linejoin:round;stroke-miterlimit:4;stroke-dasharray:none;stroke-opacity:1"
       id="text3131-2">
      <path
         d="m 38.69406,104.11823 c 0.911462,0 1.40939,-0.54012 1.40939,-1.48534 v -3.105725 c 0,-0.94522 -0.497928,-1.485345 -1.40939,-1.485345 -0.911461,0 -1.409389,0.540125 -1.409389,1.485345 v 3.105725 c 0,0.94522 0.497928,1.48534 1.409389,1.48534 z m 0,-0.84395 c -0.295381,0 -0.481049,-0.16034 -0.481049,-0.58232 v -3.223871 c 0,-0.421973 0.185668,-0.582323 0.481049,-0.582323 0.295381,0 0.48105,0.16035 0.48105,0.582323 v 3.223871 c 0,0.42198 -0.185669,0.58232 -0.48105,0.58232 z"
         style="stroke:#000000;stroke-width:0.42197305;stroke-linejoin:round;stroke-miterlimit:4;stroke-dasharray:none;stroke-opacity:1"
         id="path4147" />
      <path
         d="m 40.731267,104.03384 h 0.92834 v -2.65843 h 0.995857 v 2.65843 h 0.92834 v -5.907625 h -0.92834 v 2.405245 h -0.995857 v -2.405245 h -0.92834 z"
         style="stroke:#000000;stroke-width:0.42197305;stroke-linejoin:round;stroke-miterlimit:4;stroke-dasharray:none;stroke-opacity:1"
         id="path4149" />
    </g>
    <path
       style="opacity:1;fill:#ececec;fill-opacity:1;fill-rule:nonzero;stroke:none;stroke-width:0.5647077;stroke-linecap:round;stroke-linejoin:round;stroke-miterlimit:4;stroke-dasharray:none;stroke-opacity:1"
       d="m 69.385724,129.37733 h 4.853884 c 2.905176,0 5.244,2.33883 5.244,5.24401 v 8.3e-4 c 0,2.90518 -2.338824,5.244 -5.244,5.244 h -4.853884 c -2.905176,0 -5.244,-2.33882 -5.244,-5.244 v -8.3e-4 c 0,-2.90518 2.338824,-5.24401 5.244,-5.24401 z"
       id="rect3133-3" />
    <g
       aria-label="OH"
       style="font-style:normal;font-variant:normal;font-weight:normal;font-stretch:normal;font-size:8.4394598px;line-height:1.25;font-family:'Bebas Neue';-inkscape-font-specification:'Bebas Neue';letter-spacing:0px;word-spacing:0px;fill:#000000;fill-opacity:1;stroke:#000000;stroke-width:0.42197305;stroke-linejoin:round;stroke-miterlimit:4;stroke-dasharray:none;stroke-opacity:1"
       id="text3137-7">
      <path
         d="m 69.987788,137.62065 c 0.911462,0 1.40939,-0.54013 1.40939,-1.48535 v -3.10572 c 0,-0.94522 -0.497928,-1.48534 -1.40939,-1.48534 -0.911461,0 -1.40939,0.54012 -1.40939,1.48534 v 3.10572 c 0,0.94522 0.497929,1.48535 1.40939,1.48535 z m 0,-0.84395 c -0.295381,0 -0.481049,-0.16035 -0.481049,-0.58232 v -3.22387 c 0,-0.42198 0.185668,-0.58233 0.481049,-0.58233 0.295381,0 0.481049,0.16035 0.481049,0.58233 v 3.22387 c 0,0.42197 -0.185668,0.58232 -0.481049,0.58232 z"
         style="stroke:#000000;stroke-width:0.42197305;stroke-linejoin:round;stroke-miterlimit:4;stroke-dasharray:none;stroke-opacity:1"
         id="path4153" />
      <path
         d="m 72.024995,137.53625 h 0.92834 v -2.65842 h 0.995856 v 2.65842 h 0.928341 v -5.90762 h -0.928341 v 2.40525 h -0.995856 v -2.40525 h -0.92834 z"
         style="stroke:#000000;stroke-width:0.42197305;stroke-linejoin:round;stroke-miterlimit:4;stroke-dasharray:none;stroke-opacity:1"
         id="path4155" />
    </g>
    <g
       aria-label="O"
       style="font-style:normal;font-variant:normal;font-weight:normal;font-stretch:normal;font-size:6.29558706px;line-height:1.25;font-family:'Bebas Neue';-inkscape-font-specification:'Bebas Neue';letter-spacing:0px;word-spacing:0px;fill:#000000;fill-opacity:1;stroke:#000000;stroke-width:0.31477937;stroke-linejoin:round;stroke-miterlimit:4;stroke-dasharray:none;stroke-opacity:1"
       id="text3141-9">
      <path
         d="m 70.022972,87.109121 c 0.679924,0 1.051363,-0.402917 1.051363,-1.108023 v -2.316776 c 0,-0.705106 -0.371439,-1.108023 -1.051363,-1.108023 -0.679923,0 -1.051363,0.402917 -1.051363,1.108023 v 2.316776 c 0,0.705106 0.37144,1.108023 1.051363,1.108023 z m 0,-0.629558 c -0.220345,0 -0.358848,-0.119617 -0.358848,-0.434396 v -2.404914 c 0,-0.314779 0.138503,-0.434396 0.358848,-0.434396 0.220346,0 0.358849,0.119617 0.358849,0.434396 v 2.404914 c 0,0.314779 -0.138503,0.434396 -0.358849,0.434396 z"
         style="stroke:#000000;stroke-width:0.31477937;stroke-linejoin:round;stroke-miterlimit:4;stroke-dasharray:none;stroke-opacity:1"
         id="path4158" />
    </g>
    <path
       style="opacity:1;fill:#ececec;fill-opacity:1;fill-rule:nonzero;stroke:none;stroke-width:0.52916664;stroke-linecap:round;stroke-linejoin:round;stroke-miterlimit:4;stroke-dasharray:none;stroke-opacity:1"
       d="m 38.804728,69.508339 h 10.484083 c 2.146975,0 3.875406,1.728431 3.875406,3.875406 0,2.146975 -1.728431,3.875406 -3.875406,3.875406 H 38.804728 c -2.146976,0 -3.875407,-1.728431 -3.875407,-3.875406 0,-2.146975 1.728431,-3.875406 3.875407,-3.875406 z"
       id="rect3146-4" />
    <g
       aria-label="CH2oh"
       style="font-style:normal;font-variant:normal;font-weight:normal;font-stretch:normal;font-size:6.29558706px;line-height:1.25;font-family:'Bebas Neue';-inkscape-font-specification:'Bebas Neue';letter-spacing:0px;word-spacing:0px;fill:#000000;fill-opacity:1;stroke:#000000;stroke-width:0.31477937;stroke-linejoin:round;stroke-miterlimit:4;stroke-dasharray:none;stroke-opacity:1"
       id="text3150-5">
      <path
         d="m 39.192733,75.580847 c 0.667332,0 1.019885,-0.402918 1.019885,-1.082841 v -0.623263 h -0.654741 v 0.673628 c 0,0.289597 -0.138503,0.402917 -0.346258,0.402917 -0.207754,0 -0.346257,-0.11332 -0.346257,-0.402917 v -2.461575 c 0,-0.289597 0.138503,-0.409213 0.346257,-0.409213 0.207755,0 0.346258,0.119616 0.346258,0.409213 v 0.509943 h 0.654741 v -0.465874 c 0,-0.679923 -0.352553,-1.082841 -1.019885,-1.082841 -0.667333,0 -1.019886,0.402918 -1.019886,1.082841 v 2.367141 c 0,0.679923 0.352553,1.082841 1.019886,1.082841 z"
         style="stroke:#000000;stroke-width:0.31477937;stroke-linejoin:round;stroke-miterlimit:4;stroke-dasharray:none;stroke-opacity:1"
         id="path4162" />
      <path
         d="m 40.626946,75.517891 h 0.692515 v -1.98311 h 0.742879 v 1.98311 h 0.692514 V 71.11098 H 42.06234 v 1.794242 H 41.319461 V 71.11098 h -0.692515 z"
         style="stroke:#000000;stroke-width:0.31477937;stroke-linejoin:round;stroke-miterlimit:4;stroke-dasharray:none;stroke-opacity:1"
         id="path4164" />
      <path
         d="m 43.172075,76.777008 h 1.301298 v -0.409213 h -0.855256 v -0.06138 c 0,-0.200514 0.06957,-0.343739 0.339647,-0.630188 0.417397,-0.44195 0.55653,-0.744768 0.55653,-1.084415 0,-0.458318 -0.22916,-0.720215 -0.67111,-0.720215 -0.44195,0 -0.671109,0.261897 -0.671109,0.720215 v 0.278265 h 0.425581 v -0.30691 c 0,-0.204606 0.09003,-0.282357 0.233252,-0.282357 0.143225,0 0.233251,0.06957 0.233251,0.327371 0,0.265988 -0.09821,0.482871 -0.44195,0.847071 -0.335555,0.351923 -0.450134,0.601543 -0.450134,1.010756 z"
         style="font-size:4.09213114px;baseline-shift:sub;stroke-width:0.31477937"
         id="path4166" />
      <path
         d="m 45.91005,75.580847 c 0.679924,0 1.051363,-0.402918 1.051363,-1.108024 v -2.316776 c 0,-0.705105 -0.371439,-1.108023 -1.051363,-1.108023 -0.679923,0 -1.051363,0.402918 -1.051363,1.108023 v 2.316776 c 0,0.705106 0.37144,1.108024 1.051363,1.108024 z m 0,-0.629559 c -0.220345,0 -0.358848,-0.119616 -0.358848,-0.434395 v -2.404915 c 0,-0.314779 0.138503,-0.434395 0.358848,-0.434395 0.220346,0 0.358849,0.119616 0.358849,0.434395 v 2.404915 c 0,0.314779 -0.138503,0.434395 -0.358849,0.434395 z"
         style="stroke:#000000;stroke-width:0.31477937;stroke-linejoin:round;stroke-miterlimit:4;stroke-dasharray:none;stroke-opacity:1"
         id="path4168" />
      <path
         d="m 47.429746,75.517891 h 0.692515 v -1.98311 h 0.742879 v 1.98311 h 0.692515 V 71.11098 H 48.86514 v 1.794242 H 48.122261 V 71.11098 h -0.692515 z"
         style="stroke:#000000;stroke-width:0.31477937;stroke-linejoin:round;stroke-miterlimit:4;stroke-dasharray:none;stroke-opacity:1"
         id="path4170" />
    </g>
  </g>
</svg>
