<?xml version="1.0" encoding="UTF-8" standalone="no"?>
<!-- Created with Inkscape (http://www.inkscape.org/) -->

<svg
   xmlns:dc="http://purl.org/dc/elements/1.1/"
   xmlns:cc="http://creativecommons.org/ns#"
   xmlns:rdf="http://www.w3.org/1999/02/22-rdf-syntax-ns#"
   xmlns:svg="http://www.w3.org/2000/svg"
   xmlns="http://www.w3.org/2000/svg"
   xmlns:sodipodi="http://sodipodi.sourceforge.net/DTD/sodipodi-0.dtd"
   xmlns:inkscape="http://www.inkscape.org/namespaces/inkscape"
   width="210mm"
   height="297mm"
   viewBox="0 0 210 297"
   version="1.1"
   id="svg867"
   inkscape:version="0.92.3 (2405546, 2018-03-11)"
   sodipodi:docname="Cl.svg">
  <defs
     id="defs861" />
  <sodipodi:namedview
     id="base"
     pagecolor="#ffffff"
     bordercolor="#666666"
     borderopacity="1.0"
     inkscape:pageopacity="0.0"
     inkscape:pageshadow="2"
     inkscape:zoom="5.6"
     inkscape:cx="355.78245"
     inkscape:cy="505.05607"
     inkscape:document-units="mm"
     inkscape:current-layer="layer1"
     showgrid="false"
     inkscape:window-width="1920"
     inkscape:window-height="1017"
     inkscape:window-x="-8"
     inkscape:window-y="-8"
     inkscape:window-maximized="1" />
  <metadata
     id="metadata864">
    <rdf:RDF>
      <cc:Work
         rdf:about="">
        <dc:format>image/svg+xml</dc:format>
        <dc:type
           rdf:resource="http://purl.org/dc/dcmitype/StillImage" />
        <dc:title></dc:title>
      </cc:Work>
    </rdf:RDF>
  </metadata>
  <g
     inkscape:label="Layer 1"
     inkscape:groupmode="layer"
     id="layer1">
    <path
       inkscape:connector-curvature="0"
       id="path1440"
       d="M 56.949198,183.49995 V 166.02938"
       style="fill:none;stroke:#999999;stroke-width:1.32291663;stroke-linecap:butt;stroke-linejoin:miter;stroke-miterlimit:4;stroke-dasharray:none;stroke-opacity:1" />
    <path
       style="fill:none;stroke:#999999;stroke-width:1.32291663;stroke-linecap:butt;stroke-linejoin:miter;stroke-miterlimit:4;stroke-dasharray:none;stroke-opacity:1"
       d="M 25.806827,165.84868 V 148.37811"
       id="path1436"
       inkscape:connector-curvature="0" />
    <path
       style="fill:none;stroke:#999999;stroke-width:1.32291663;stroke-linecap:round;stroke-linejoin:miter;stroke-miterlimit:4;stroke-dasharray:none;stroke-opacity:1"
       d="M 72.367059,149.95161 H 111.65617"
       id="path1432"
       inkscape:connector-curvature="0" />
    <path
       style="opacity:1;fill:none;fill-opacity:1;fill-rule:nonzero;stroke:#999999;stroke-width:1.32291663;stroke-linecap:round;stroke-linejoin:round;stroke-miterlimit:4;stroke-dasharray:none;stroke-opacity:1"
       inkscape:transform-center-x="-1.2068245e-006"
       inkscape:transform-center-y="-9.2373936e-006"
       d="M 72.367062,149.95161 56.949198,166.02938 H 26.113469 L 10.695605,149.95161 26.113469,133.87386 h 30.835729 z"
       id="path1391"
       inkscape:connector-curvature="0" />
    <path
       inkscape:connector-curvature="0"
       style="opacity:1;fill:#ececec;fill-opacity:1;fill-rule:nonzero;stroke:none;stroke-width:1.32291663;stroke-linecap:round;stroke-linejoin:miter;stroke-miterlimit:4;stroke-dasharray:none;stroke-opacity:1"
       d="m 32.795206,166.02938 a 6.681738,6.681738 0 0 1 -6.681739,6.68174 6.681738,6.681738 0 0 1 -6.681738,-6.68174 6.681738,6.681738 0 0 1 6.681738,-6.68173 6.681738,6.681738 0 0 1 6.681739,6.68173 z"
       id="path1368" />
    <path
       inkscape:connector-curvature="0"
       style="opacity:1;fill:#ececec;fill-opacity:1;fill-rule:nonzero;stroke:none;stroke-width:1.32291663;stroke-linecap:round;stroke-linejoin:miter;stroke-miterlimit:4;stroke-dasharray:none;stroke-opacity:1"
       d="m 63.630933,166.02938 a 6.681738,6.681738 0 0 1 -6.681737,6.68174 6.681738,6.681738 0 0 1 -6.681737,-6.68174 6.681738,6.681738 0 0 1 6.681737,-6.68173 6.681738,6.681738 0 0 1 6.681737,6.68173 z"
       id="path1368-7" />
    <path
       inkscape:connector-curvature="0"
       style="opacity:1;fill:#ececec;fill-opacity:1;fill-rule:nonzero;stroke:none;stroke-width:1.32291663;stroke-linecap:round;stroke-linejoin:miter;stroke-miterlimit:4;stroke-dasharray:none;stroke-opacity:1"
       d="m 16.040995,149.95161 a 5.3453898,5.3453898 0 0 1 -5.34539,5.34539 5.3453898,5.3453898 0 0 1 -5.3453901,-5.34539 5.3453898,5.3453898 0 0 1 5.3453901,-5.34539 5.3453898,5.3453898 0 0 1 5.34539,5.34539 z"
       id="circle1394" />
    <path
       style="fill:none;stroke:#999999;stroke-width:1.32291663;stroke-linecap:butt;stroke-linejoin:miter;stroke-miterlimit:4;stroke-dasharray:none;stroke-opacity:1"
       d="M 26.113469,133.87386 V 122.36731"
       id="path1404"
       inkscape:connector-curvature="0" />
    <path
       inkscape:connector-curvature="0"
       style="opacity:1;fill:#ececec;fill-opacity:1;fill-rule:nonzero;stroke:none;stroke-width:1.32291663;stroke-linecap:round;stroke-linejoin:miter;stroke-miterlimit:4;stroke-dasharray:none;stroke-opacity:1"
       d="m 29.988875,133.87387 a 3.8754076,3.8754076 0 0 1 -3.875408,3.8754 3.8754076,3.8754076 0 0 1 -3.875407,-3.8754 3.8754076,3.8754076 0 0 1 3.875407,-3.87541 3.8754076,3.8754076 0 0 1 3.875408,3.87541 z"
       id="circle1398" />
    <path
       inkscape:connector-curvature="0"
       style="opacity:1;fill:#ececec;fill-opacity:1;fill-rule:nonzero;stroke:none;stroke-width:1.32291663;stroke-linecap:round;stroke-linejoin:miter;stroke-miterlimit:4;stroke-dasharray:none;stroke-opacity:1"
       d="m 77.71245,149.95161 a 5.3453898,5.3453898 0 0 1 -5.345393,5.34539 5.3453898,5.3453898 0 0 1 -5.345391,-5.34539 5.3453898,5.3453898 0 0 1 5.345391,-5.34539 5.3453898,5.3453898 0 0 1 5.345393,5.34539 z"
       id="circle1400" />
    <path
       inkscape:connector-curvature="0"
       style="opacity:1;fill:#ececec;fill-opacity:1;fill-rule:nonzero;stroke:none;stroke-width:1.32291663;stroke-linecap:round;stroke-linejoin:miter;stroke-miterlimit:4;stroke-dasharray:none;stroke-opacity:1"
       d="m 60.824603,133.87387 a 3.8754076,3.8754076 0 0 1 -3.875407,3.8754 3.8754076,3.8754076 0 0 1 -3.875408,-3.8754 3.8754076,3.8754076 0 0 1 3.875408,-3.87541 3.8754076,3.8754076 0 0 1 3.875407,3.87541 z"
       id="circle1402" />
    <path
       inkscape:connector-curvature="0"
       style="opacity:1;fill:#ececec;fill-opacity:1;fill-rule:nonzero;stroke:none;stroke-width:1.32291663;stroke-linecap:round;stroke-linejoin:miter;stroke-miterlimit:4;stroke-dasharray:none;stroke-opacity:1"
       d="m 97.357008,149.95161 a 5.3453898,5.3453898 0 0 1 -5.34539,5.34539 5.3453898,5.3453898 0 0 1 -5.345388,-5.34539 5.3453898,5.3453898 0 0 1 5.345388,-5.34539 5.3453898,5.3453898 0 0 1 5.34539,5.34539 z"
       id="circle1434" />
    <g
       transform="translate(-26.522174,-30.633032)"
       aria-label="C"
       style="font-style:normal;font-variant:normal;font-weight:normal;font-stretch:normal;font-size:10.58333302px;line-height:1.25;font-family:'Bebas Neue';-inkscape-font-specification:'Bebas Neue';letter-spacing:0px;word-spacing:0px;fill:#000000;fill-opacity:1;stroke:#000000;stroke-width:0.5291667;stroke-linejoin:round;stroke-miterlimit:4;stroke-dasharray:none;stroke-opacity:1"
       id="text3099">
      <path
         inkscape:connector-curvature="0"
         d="m 52.465927,200.26005 c 1.121834,0 1.7145,-0.67733 1.7145,-1.82033 v -1.04775 h -1.100666 v 1.13242 c 0,0.48683 -0.232834,0.67733 -0.582084,0.67733 -0.34925,0 -0.582083,-0.1905 -0.582083,-0.67733 v -4.13809 c 0,-0.48683 0.232833,-0.68791 0.582083,-0.68791 0.34925,0 0.582084,0.20108 0.582084,0.68791 v 0.85725 h 1.100666 v -0.78316 c 0,-1.143 -0.592666,-1.82034 -1.7145,-1.82034 -1.121833,0 -1.7145,0.67734 -1.7145,1.82034 v 3.97933 c 0,1.143 0.592667,1.82033 1.7145,1.82033 z"
         style="stroke:#000000;stroke-width:0.5291667;stroke-linejoin:round;stroke-miterlimit:4;stroke-dasharray:none;stroke-opacity:1"
         id="path3798" />
    </g>
    <g
       transform="translate(-26.522174,-30.633032)"
       aria-label="C"
       style="font-style:normal;font-variant:normal;font-weight:normal;font-stretch:normal;font-size:10.58333302px;line-height:1.25;font-family:'Bebas Neue';-inkscape-font-specification:'Bebas Neue';letter-spacing:0px;word-spacing:0px;fill:#000000;fill-opacity:1;stroke:#000000;stroke-width:0.5291667;stroke-linejoin:round;stroke-miterlimit:4;stroke-dasharray:none;stroke-opacity:1"
       id="text3103">
      <path
         inkscape:connector-curvature="0"
         d="m 83.365479,200.35455 c 1.121833,0 1.7145,-0.67733 1.7145,-1.82033 v -1.04775 h -1.100667 v 1.13241 c 0,0.48684 -0.232833,0.67734 -0.582083,0.67734 -0.34925,0 -0.582084,-0.1905 -0.582084,-0.67734 v -4.13808 c 0,-0.48683 0.232834,-0.68791 0.582084,-0.68791 0.34925,0 0.582083,0.20108 0.582083,0.68791 v 0.85725 h 1.100667 v -0.78316 c 0,-1.143 -0.592667,-1.82034 -1.7145,-1.82034 -1.121834,0 -1.7145,0.67734 -1.7145,1.82034 v 3.97933 c 0,1.143 0.592666,1.82033 1.7145,1.82033 z"
         style="stroke:#000000;stroke-width:0.5291667;stroke-linejoin:round;stroke-miterlimit:4;stroke-dasharray:none;stroke-opacity:1"
         id="path3795" />
    </g>
    <g
       transform="translate(-26.522174,-30.633032)"
       aria-label="C"
       style="font-style:normal;font-variant:normal;font-weight:normal;font-stretch:normal;font-size:8.4394598px;line-height:1.25;font-family:'Bebas Neue';-inkscape-font-specification:'Bebas Neue';letter-spacing:0px;word-spacing:0px;fill:#000000;fill-opacity:1;stroke:#000000;stroke-width:0.42197305;stroke-linejoin:round;stroke-miterlimit:4;stroke-dasharray:none;stroke-opacity:1"
       id="text3107">
      <path
         inkscape:connector-curvature="0"
         d="m 98.962728,183.50729 c 0.894583,0 1.367192,-0.54012 1.367192,-1.45159 v -0.8355 h -0.877703 v 0.90302 c 0,0.38822 -0.185669,0.54013 -0.464171,0.54013 -0.278502,0 -0.46417,-0.15191 -0.46417,-0.54013 v -3.29983 c 0,-0.38821 0.185668,-0.54856 0.46417,-0.54856 0.278502,0 0.464171,0.16035 0.464171,0.54856 v 0.6836 h 0.877703 v -0.62452 c 0,-0.91146 -0.472609,-1.45159 -1.367192,-1.45159 -0.894583,0 -1.367193,0.54013 -1.367193,1.45159 v 3.17323 c 0,0.91147 0.47261,1.45159 1.367193,1.45159 z"
         style="stroke:#000000;stroke-width:0.42197305;stroke-linejoin:round;stroke-miterlimit:4;stroke-dasharray:none;stroke-opacity:1"
         id="path3792" />
    </g>
    <g
       transform="translate(-26.522174,-30.633032)"
       aria-label="C"
       style="font-style:normal;font-variant:normal;font-weight:normal;font-stretch:normal;font-size:8.4394598px;line-height:1.25;font-family:'Bebas Neue';-inkscape-font-specification:'Bebas Neue';letter-spacing:0px;word-spacing:0px;fill:#000000;fill-opacity:1;stroke:#000000;stroke-width:0.42197305;stroke-linejoin:round;stroke-miterlimit:4;stroke-dasharray:none;stroke-opacity:1"
       id="text3111">
      <path
         inkscape:connector-curvature="0"
         d="m 37.089834,183.44047 c 0.894582,0 1.367192,-0.54012 1.367192,-1.45158 v -0.83551 h -0.877704 v 0.90302 c 0,0.38822 -0.185668,0.54013 -0.46417,0.54013 -0.278502,0 -0.46417,-0.15191 -0.46417,-0.54013 v -3.29983 c 0,-0.38821 0.185668,-0.54856 0.46417,-0.54856 0.278502,0 0.46417,0.16035 0.46417,0.54856 v 0.6836 h 0.877704 v -0.62452 c 0,-0.91146 -0.47261,-1.45159 -1.367192,-1.45159 -0.894583,0 -1.367193,0.54013 -1.367193,1.45159 v 3.17324 c 0,0.91146 0.47261,1.45158 1.367193,1.45158 z"
         style="stroke:#000000;stroke-width:0.42197305;stroke-linejoin:round;stroke-miterlimit:4;stroke-dasharray:none;stroke-opacity:1"
         id="path3789" />
    </g>
    <g
       transform="translate(-26.522174,-30.633032)"
       aria-label="C"
       style="font-style:normal;font-variant:normal;font-weight:normal;font-stretch:normal;font-size:6.29558659px;line-height:1.25;font-family:'Bebas Neue';-inkscape-font-specification:'Bebas Neue';letter-spacing:0px;word-spacing:0px;fill:#000000;fill-opacity:1;stroke:#000000;stroke-width:0.31477937;stroke-linejoin:round;stroke-miterlimit:4;stroke-dasharray:none;stroke-opacity:1"
       id="text3115">
      <path
         inkscape:connector-curvature="0"
         d="m 52.646819,166.71484 c 0.667332,0 1.019885,-0.40292 1.019885,-1.08284 v -0.62326 h -0.654741 v 0.67363 c 0,0.28959 -0.138503,0.40291 -0.346258,0.40291 -0.207754,0 -0.346257,-0.11332 -0.346257,-0.40291 v -2.46158 c 0,-0.2896 0.138503,-0.40921 0.346257,-0.40921 0.207755,0 0.346258,0.11961 0.346258,0.40921 v 0.50994 h 0.654741 v -0.46587 c 0,-0.67992 -0.352553,-1.08284 -1.019885,-1.08284 -0.667332,0 -1.019885,0.40292 -1.019885,1.08284 v 2.36714 c 0,0.67992 0.352553,1.08284 1.019885,1.08284 z"
         style="stroke:#000000;stroke-width:0.31477937;stroke-linejoin:round;stroke-miterlimit:4;stroke-dasharray:none;stroke-opacity:1"
         id="path3786" />
    </g>
    <path
       inkscape:connector-curvature="0"
       style="opacity:1;fill:#ececec;fill-opacity:1;fill-rule:nonzero;stroke:none;stroke-width:0.5647077;stroke-linecap:round;stroke-linejoin:round;stroke-miterlimit:4;stroke-dasharray:none;stroke-opacity:1"
       d="m 25.118404,144.84761 h 4.853885 c 2.905176,0 5.244,2.33882 5.244,5.244 v 8e-4 c 0,2.90517 -2.338824,5.244 -5.244,5.244 h -4.853885 c -2.905176,0 -5.244,-2.33883 -5.244,-5.244 v -8e-4 c 0,-2.90518 2.338824,-5.244 5.244,-5.244 z"
       id="rect3125" />
    <g
       transform="translate(-26.522174,-30.633032)"
       aria-label="OH"
       style="font-style:normal;font-variant:normal;font-weight:normal;font-stretch:normal;font-size:8.4394598px;line-height:1.25;font-family:'Bebas Neue';-inkscape-font-specification:'Bebas Neue';letter-spacing:0px;word-spacing:0px;fill:#000000;fill-opacity:1;stroke:#000000;stroke-width:0.42197305;stroke-linejoin:round;stroke-miterlimit:4;stroke-dasharray:none;stroke-opacity:1"
       id="text3131">
      <path
         inkscape:connector-curvature="0"
         d="m 52.24264,183.72395 c 0.911462,0 1.40939,-0.54012 1.40939,-1.48534 v -3.10572 c 0,-0.94522 -0.497928,-1.48535 -1.40939,-1.48535 -0.911461,0 -1.409389,0.54013 -1.409389,1.48535 v 3.10572 c 0,0.94522 0.497928,1.48534 1.409389,1.48534 z m 0,-0.84394 c -0.295381,0 -0.481049,-0.16035 -0.481049,-0.58233 v -3.22387 c 0,-0.42197 0.185668,-0.58232 0.481049,-0.58232 0.295382,0 0.48105,0.16035 0.48105,0.58232 v 3.22387 c 0,0.42198 -0.185668,0.58233 -0.48105,0.58233 z"
         style="stroke:#000000;stroke-width:0.42197305;stroke-linejoin:round;stroke-miterlimit:4;stroke-dasharray:none;stroke-opacity:1"
         id="path3780" />
      <path
         inkscape:connector-curvature="0"
         d="m 54.279847,183.63956 h 0.92834 v -2.65843 h 0.995857 v 2.65843 h 0.92834 v -5.90762 h -0.92834 v 2.40524 h -0.995857 v -2.40524 h -0.92834 z"
         style="stroke:#000000;stroke-width:0.42197305;stroke-linejoin:round;stroke-miterlimit:4;stroke-dasharray:none;stroke-opacity:1"
         id="path3782" />
    </g>
    <path
       inkscape:connector-curvature="0"
       style="opacity:1;fill:#ececec;fill-opacity:1;fill-rule:nonzero;stroke:none;stroke-width:0.5647077;stroke-linecap:round;stroke-linejoin:round;stroke-miterlimit:4;stroke-dasharray:none;stroke-opacity:1"
       d="m 56.412137,178.35002 h 4.853884 c 2.905175,0 5.243999,2.33882 5.243999,5.244 v 8e-4 c 0,2.90517 -2.338824,5.244 -5.243999,5.244 h -4.853884 c -2.905176,0 -5.244,-2.33883 -5.244,-5.244 v -8e-4 c 0,-2.90518 2.338824,-5.244 5.244,-5.244 z"
       id="rect3133" />
    <g
       transform="translate(-26.522174,-30.633032)"
       aria-label="OH"
       style="font-style:normal;font-variant:normal;font-weight:normal;font-stretch:normal;font-size:8.4394598px;line-height:1.25;font-family:'Bebas Neue';-inkscape-font-specification:'Bebas Neue';letter-spacing:0px;word-spacing:0px;fill:#000000;fill-opacity:1;stroke:#000000;stroke-width:0.42197305;stroke-linejoin:round;stroke-miterlimit:4;stroke-dasharray:none;stroke-opacity:1"
       id="text3137">
      <path
         inkscape:connector-curvature="0"
         d="m 83.536372,217.22636 c 0.911462,0 1.40939,-0.54012 1.40939,-1.48534 v -3.10572 c 0,-0.94522 -0.497928,-1.48535 -1.40939,-1.48535 -0.911461,0 -1.40939,0.54013 -1.40939,1.48535 v 3.10572 c 0,0.94522 0.497929,1.48534 1.40939,1.48534 z m 0,-0.84394 c -0.295381,0 -0.481049,-0.16035 -0.481049,-0.58233 v -3.22387 c 0,-0.42197 0.185668,-0.58232 0.481049,-0.58232 0.295381,0 0.481049,0.16035 0.481049,0.58232 v 3.22387 c 0,0.42198 -0.185668,0.58233 -0.481049,0.58233 z"
         style="stroke:#000000;stroke-width:0.42197305;stroke-linejoin:round;stroke-miterlimit:4;stroke-dasharray:none;stroke-opacity:1"
         id="path3774" />
      <path
         inkscape:connector-curvature="0"
         d="m 85.573579,217.14197 h 0.92834 v -2.65843 h 0.995856 v 2.65843 h 0.928341 v -5.90762 h -0.928341 v 2.40524 h -0.995856 v -2.40524 h -0.92834 z"
         style="stroke:#000000;stroke-width:0.42197305;stroke-linejoin:round;stroke-miterlimit:4;stroke-dasharray:none;stroke-opacity:1"
         id="path3776" />
    </g>
    <g
       transform="translate(-26.522174,-30.633032)"
       aria-label="O"
       style="font-style:normal;font-variant:normal;font-weight:normal;font-stretch:normal;font-size:6.29558659px;line-height:1.25;font-family:'Bebas Neue';-inkscape-font-specification:'Bebas Neue';letter-spacing:0px;word-spacing:0px;fill:#000000;fill-opacity:1;stroke:#000000;stroke-width:0.31477937;stroke-linejoin:round;stroke-miterlimit:4;stroke-dasharray:none;stroke-opacity:1"
       id="text3141">
      <path
         inkscape:connector-curvature="0"
         d="m 83.571556,166.71484 c 0.679924,0 1.051363,-0.40292 1.051363,-1.10802 v -2.31678 c 0,-0.7051 -0.371439,-1.10802 -1.051363,-1.10802 -0.679923,0 -1.051363,0.40292 -1.051363,1.10802 v 2.31678 c 0,0.7051 0.37144,1.10802 1.051363,1.10802 z m 0,-0.62956 c -0.220345,0 -0.358848,-0.11961 -0.358848,-0.43439 v -2.40492 c 0,-0.31478 0.138503,-0.43439 0.358848,-0.43439 0.220346,0 0.358849,0.11961 0.358849,0.43439 v 2.40492 c 0,0.31478 -0.138503,0.43439 -0.358849,0.43439 z"
         style="stroke:#000000;stroke-width:0.31477937;stroke-linejoin:round;stroke-miterlimit:4;stroke-dasharray:none;stroke-opacity:1"
         id="path3771" />
    </g>
    <path
       inkscape:connector-curvature="0"
       style="opacity:1;fill:#ececec;fill-opacity:1;fill-rule:nonzero;stroke:none;stroke-width:0.52916664;stroke-linecap:round;stroke-linejoin:round;stroke-miterlimit:4;stroke-dasharray:none;stroke-opacity:1"
       d="M 25.831135,118.48103 H 36.31522 c 2.146975,0 3.875405,1.72843 3.875405,3.87541 0,2.14697 -1.72843,3.8754 -3.875405,3.8754 H 25.831135 c -2.146974,0 -3.875406,-1.72843 -3.875406,-3.8754 0,-2.14698 1.728432,-3.87541 3.875406,-3.87541 z"
       id="rect3146" />
    <g
       transform="translate(-26.522174,-30.633032)"
       aria-label="CH2oh"
       style="font-style:normal;font-variant:normal;font-weight:normal;font-stretch:normal;font-size:6.29558659px;line-height:1.25;font-family:'Bebas Neue';-inkscape-font-specification:'Bebas Neue';letter-spacing:0px;word-spacing:0px;fill:#000000;fill-opacity:1;stroke:#000000;stroke-width:0.31477937;stroke-linejoin:round;stroke-miterlimit:4;stroke-dasharray:none;stroke-opacity:1"
       id="text3150">
      <path
         inkscape:connector-curvature="0"
         d="m 52.741313,155.18657 c 0.667332,0 1.019885,-0.40292 1.019885,-1.08284 v -0.62327 h -0.654741 v 0.67363 c 0,0.2896 -0.138503,0.40292 -0.346258,0.40292 -0.207754,0 -0.346257,-0.11332 -0.346257,-0.40292 v -2.46157 c 0,-0.2896 0.138503,-0.40922 0.346257,-0.40922 0.207755,0 0.346258,0.11962 0.346258,0.40922 v 0.50994 h 0.654741 v -0.46587 c 0,-0.67993 -0.352553,-1.08285 -1.019885,-1.08285 -0.667333,0 -1.019885,0.40292 -1.019885,1.08285 v 2.36714 c 0,0.67992 0.352552,1.08284 1.019885,1.08284 z"
         style="stroke:#000000;stroke-width:0.31477937;stroke-linejoin:round;stroke-miterlimit:4;stroke-dasharray:none;stroke-opacity:1"
         id="path3759" />
      <path
         inkscape:connector-curvature="0"
         d="m 54.175526,155.12361 h 0.692514 v -1.98311 h 0.74288 v 1.98311 h 0.692514 V 150.7167 H 55.61092 v 1.79424 h -0.74288 v -1.79424 h -0.692514 z"
         style="stroke:#000000;stroke-width:0.31477937;stroke-linejoin:round;stroke-miterlimit:4;stroke-dasharray:none;stroke-opacity:1"
         id="path3761" />
      <path
         inkscape:connector-curvature="0"
         d="m 56.720654,156.38273 h 1.301298 v -0.40921 h -0.855255 v -0.0614 c 0,-0.20051 0.06957,-0.34374 0.339647,-0.63018 0.417397,-0.44195 0.55653,-0.74477 0.55653,-1.08442 0,-0.45832 -0.22916,-0.72021 -0.67111,-0.72021 -0.44195,0 -0.67111,0.26189 -0.67111,0.72021 v 0.27827 h 0.425582 v -0.30691 c 0,-0.20461 0.09003,-0.28236 0.233252,-0.28236 0.143224,0 0.233251,0.0696 0.233251,0.32737 0,0.26599 -0.09821,0.48287 -0.44195,0.84707 -0.335555,0.35192 -0.450135,0.60154 -0.450135,1.01076 z"
         style="font-size:64.99999762%;baseline-shift:sub"
         id="path3763" />
      <path
         inkscape:connector-curvature="0"
         d="m 59.45863,155.18657 c 0.679923,0 1.051363,-0.40292 1.051363,-1.10803 v -2.31677 c 0,-0.70511 -0.37144,-1.10803 -1.051363,-1.10803 -0.679924,0 -1.051363,0.40292 -1.051363,1.10803 v 2.31677 c 0,0.70511 0.371439,1.10803 1.051363,1.10803 z m 0,-0.62956 c -0.220346,0 -0.358849,-0.11962 -0.358849,-0.4344 v -2.40491 c 0,-0.31478 0.138503,-0.4344 0.358849,-0.4344 0.220345,0 0.358848,0.11962 0.358848,0.4344 v 2.40491 c 0,0.31478 -0.138503,0.4344 -0.358848,0.4344 z"
         style="stroke:#000000;stroke-width:0.31477937;stroke-linejoin:round;stroke-miterlimit:4;stroke-dasharray:none;stroke-opacity:1"
         id="path3765" />
      <path
         inkscape:connector-curvature="0"
         d="m 60.978325,155.12361 h 0.692515 v -1.98311 h 0.742879 v 1.98311 h 0.692515 v -4.40691 h -0.692515 v 1.79424 H 61.67084 v -1.79424 h -0.692515 z"
         style="stroke:#000000;stroke-width:0.31477937;stroke-linejoin:round;stroke-miterlimit:4;stroke-dasharray:none;stroke-opacity:1"
         id="path3767" />
    </g>
    <path
       id="path3756"
       style="font-style:normal;font-variant:normal;font-weight:normal;font-stretch:normal;font-size:medium;line-height:1.25;font-family:'Bebas Neue';-inkscape-font-specification:'Bebas Neue';letter-spacing:0px;word-spacing:0px;fill:#000000;fill-opacity:1;stroke:#000000;stroke-width:0.42197305;stroke-linejoin:round;stroke-miterlimit:4;stroke-dasharray:none;stroke-opacity:1"
       d="m 91.984996,152.87426 c 0.91146,0 1.40939,-0.54012 1.40939,-1.48534 v -3.10572 c 0,-0.94522 -0.49793,-1.48535 -1.40939,-1.48535 -0.91147,0 -1.40939,0.54013 -1.40939,1.48535 v 3.10572 c 0,0.94522 0.49792,1.48534 1.40939,1.48534 z m 0,-0.84394 c -0.29539,0 -0.48105,-0.16035 -0.48105,-0.58233 v -3.22387 c 0,-0.42197 0.18566,-0.58232 0.48105,-0.58232 0.29538,0 0.48104,0.16035 0.48104,0.58232 v 3.22387 c 0,0.42198 -0.18566,0.58233 -0.48104,0.58233 z"
       inkscape:connector-curvature="0" />
    <path
       inkscape:connector-curvature="0"
       id="path1440-5"
       d="M 157.90976,183.49994 V 166.02937"
       style="fill:none;stroke:#999999;stroke-width:1.32291663;stroke-linecap:butt;stroke-linejoin:miter;stroke-miterlimit:4;stroke-dasharray:none;stroke-opacity:1" />
    <path
       style="fill:none;stroke:#999999;stroke-width:1.32291663;stroke-linecap:butt;stroke-linejoin:miter;stroke-miterlimit:4;stroke-dasharray:none;stroke-opacity:1"
       d="M 126.76739,165.84867 V 148.37811"
       id="path1436-5"
       inkscape:connector-curvature="0" />
    <path
       style="opacity:1;fill:none;fill-opacity:1;fill-rule:nonzero;stroke:#999999;stroke-width:1.32291663;stroke-linecap:round;stroke-linejoin:round;stroke-miterlimit:4;stroke-dasharray:none;stroke-opacity:1"
       inkscape:transform-center-x="-1.2068245e-006"
       inkscape:transform-center-y="-9.2373936e-006"
       d="m 173.32763,149.95161 -15.41787,16.07776 h -30.83573 l -15.41786,-16.07776 15.41786,-16.07776 h 30.83573 z"
       id="path1391-4"
       inkscape:connector-curvature="0" />
    <path
       inkscape:connector-curvature="0"
       style="opacity:1;fill:#ececec;fill-opacity:1;fill-rule:nonzero;stroke:none;stroke-width:1.32291663;stroke-linecap:round;stroke-linejoin:miter;stroke-miterlimit:4;stroke-dasharray:none;stroke-opacity:1"
       d="m 133.75577,166.02937 a 6.681738,6.681738 0 0 1 -6.68174,6.68174 6.681738,6.681738 0 0 1 -6.68174,-6.68174 6.681738,6.681738 0 0 1 6.68174,-6.68172 6.681738,6.681738 0 0 1 6.68174,6.68172 z"
       id="path1368-5" />
    <path
       inkscape:connector-curvature="0"
       style="opacity:1;fill:#ececec;fill-opacity:1;fill-rule:nonzero;stroke:none;stroke-width:1.32291663;stroke-linecap:round;stroke-linejoin:miter;stroke-miterlimit:4;stroke-dasharray:none;stroke-opacity:1"
       d="m 164.5915,166.02937 a 6.681738,6.681738 0 0 1 -6.68174,6.68174 6.681738,6.681738 0 0 1 -6.68174,-6.68174 6.681738,6.681738 0 0 1 6.68174,-6.68172 6.681738,6.681738 0 0 1 6.68174,6.68172 z"
       id="path1368-7-2" />
    <path
       inkscape:connector-curvature="0"
       style="opacity:1;fill:#ececec;fill-opacity:1;fill-rule:nonzero;stroke:none;stroke-width:1.32291663;stroke-linecap:round;stroke-linejoin:miter;stroke-miterlimit:4;stroke-dasharray:none;stroke-opacity:1"
       d="m 117.00156,149.95161 a 5.3453898,5.3453898 0 0 1 -5.34539,5.34538 5.3453898,5.3453898 0 0 1 -5.34539,-5.34538 5.3453898,5.3453898 0 0 1 5.34539,-5.3454 5.3453898,5.3453898 0 0 1 5.34539,5.3454 z"
       id="circle1394-8" />
    <path
       style="fill:none;stroke:#999999;stroke-width:1.32291663;stroke-linecap:butt;stroke-linejoin:miter;stroke-miterlimit:4;stroke-dasharray:none;stroke-opacity:1"
       d="M 127.07403,133.87385 V 122.3673"
       id="path1404-2"
       inkscape:connector-curvature="0" />
    <path
       inkscape:connector-curvature="0"
       style="opacity:1;fill:#ececec;fill-opacity:1;fill-rule:nonzero;stroke:none;stroke-width:1.32291663;stroke-linecap:round;stroke-linejoin:miter;stroke-miterlimit:4;stroke-dasharray:none;stroke-opacity:1"
       d="m 130.94944,133.87386 a 3.8754076,3.8754076 0 0 1 -3.87541,3.8754 3.8754076,3.8754076 0 0 1 -3.87541,-3.8754 3.8754076,3.8754076 0 0 1 3.87541,-3.87541 3.8754076,3.8754076 0 0 1 3.87541,3.87541 z"
       id="circle1398-8" />
    <path
       inkscape:connector-curvature="0"
       style="opacity:1;fill:#ececec;fill-opacity:1;fill-rule:nonzero;stroke:none;stroke-width:1.32291663;stroke-linecap:round;stroke-linejoin:miter;stroke-miterlimit:4;stroke-dasharray:none;stroke-opacity:1"
       d="m 178.67302,149.95161 a 5.3453898,5.3453898 0 0 1 -5.3454,5.34538 5.3453898,5.3453898 0 0 1 -5.34539,-5.34538 5.3453898,5.3453898 0 0 1 5.34539,-5.3454 5.3453898,5.3453898 0 0 1 5.3454,5.3454 z"
       id="circle1400-8" />
    <path
       inkscape:connector-curvature="0"
       style="opacity:1;fill:#ececec;fill-opacity:1;fill-rule:nonzero;stroke:none;stroke-width:1.32291663;stroke-linecap:round;stroke-linejoin:miter;stroke-miterlimit:4;stroke-dasharray:none;stroke-opacity:1"
       d="m 161.78517,133.87386 a 3.8754076,3.8754076 0 0 1 -3.87541,3.8754 3.8754076,3.8754076 0 0 1 -3.87541,-3.8754 3.8754076,3.8754076 0 0 1 3.87541,-3.87541 3.8754076,3.8754076 0 0 1 3.87541,3.87541 z"
       id="circle1402-9" />
    <g
       transform="translate(74.438392,-30.633036)"
       aria-label="C"
       style="font-style:normal;font-variant:normal;font-weight:normal;font-stretch:normal;font-size:10.58333302px;line-height:1.25;font-family:'Bebas Neue';-inkscape-font-specification:'Bebas Neue';letter-spacing:0px;word-spacing:0px;fill:#000000;fill-opacity:1;stroke:#000000;stroke-width:0.5291667;stroke-linejoin:round;stroke-miterlimit:4;stroke-dasharray:none;stroke-opacity:1"
       id="text3099-3">
      <path
         inkscape:connector-curvature="0"
         d="m 52.465927,200.26005 c 1.121834,0 1.7145,-0.67733 1.7145,-1.82033 v -1.04775 h -1.100666 v 1.13242 c 0,0.48683 -0.232834,0.67733 -0.582084,0.67733 -0.34925,0 -0.582083,-0.1905 -0.582083,-0.67733 v -4.13809 c 0,-0.48683 0.232833,-0.68791 0.582083,-0.68791 0.34925,0 0.582084,0.20108 0.582084,0.68791 v 0.85725 h 1.100666 v -0.78316 c 0,-1.143 -0.592666,-1.82034 -1.7145,-1.82034 -1.121833,0 -1.7145,0.67734 -1.7145,1.82034 v 3.97933 c 0,1.143 0.592667,1.82033 1.7145,1.82033 z"
         style="stroke:#000000;stroke-width:0.5291667;stroke-linejoin:round;stroke-miterlimit:4;stroke-dasharray:none;stroke-opacity:1"
         id="path3798-4" />
    </g>
    <g
       transform="translate(74.438392,-30.633036)"
       aria-label="C"
       style="font-style:normal;font-variant:normal;font-weight:normal;font-stretch:normal;font-size:10.58333302px;line-height:1.25;font-family:'Bebas Neue';-inkscape-font-specification:'Bebas Neue';letter-spacing:0px;word-spacing:0px;fill:#000000;fill-opacity:1;stroke:#000000;stroke-width:0.5291667;stroke-linejoin:round;stroke-miterlimit:4;stroke-dasharray:none;stroke-opacity:1"
       id="text3103-8">
      <path
         inkscape:connector-curvature="0"
         d="m 83.365479,200.35455 c 1.121833,0 1.7145,-0.67733 1.7145,-1.82033 v -1.04775 h -1.100667 v 1.13241 c 0,0.48684 -0.232833,0.67734 -0.582083,0.67734 -0.34925,0 -0.582084,-0.1905 -0.582084,-0.67734 v -4.13808 c 0,-0.48683 0.232834,-0.68791 0.582084,-0.68791 0.34925,0 0.582083,0.20108 0.582083,0.68791 v 0.85725 h 1.100667 v -0.78316 c 0,-1.143 -0.592667,-1.82034 -1.7145,-1.82034 -1.121834,0 -1.7145,0.67734 -1.7145,1.82034 v 3.97933 c 0,1.143 0.592666,1.82033 1.7145,1.82033 z"
         style="stroke:#000000;stroke-width:0.5291667;stroke-linejoin:round;stroke-miterlimit:4;stroke-dasharray:none;stroke-opacity:1"
         id="path3795-1" />
    </g>
    <g
       transform="translate(74.438392,-30.633036)"
       aria-label="C"
       style="font-style:normal;font-variant:normal;font-weight:normal;font-stretch:normal;font-size:8.4394598px;line-height:1.25;font-family:'Bebas Neue';-inkscape-font-specification:'Bebas Neue';letter-spacing:0px;word-spacing:0px;fill:#000000;fill-opacity:1;stroke:#000000;stroke-width:0.42197305;stroke-linejoin:round;stroke-miterlimit:4;stroke-dasharray:none;stroke-opacity:1"
       id="text3107-8">
      <path
         inkscape:connector-curvature="0"
         d="m 98.962728,183.50729 c 0.894583,0 1.367192,-0.54012 1.367192,-1.45159 v -0.8355 h -0.877703 v 0.90302 c 0,0.38822 -0.185669,0.54013 -0.464171,0.54013 -0.278502,0 -0.46417,-0.15191 -0.46417,-0.54013 v -3.29983 c 0,-0.38821 0.185668,-0.54856 0.46417,-0.54856 0.278502,0 0.464171,0.16035 0.464171,0.54856 v 0.6836 h 0.877703 v -0.62452 c 0,-0.91146 -0.472609,-1.45159 -1.367192,-1.45159 -0.894583,0 -1.367193,0.54013 -1.367193,1.45159 v 3.17323 c 0,0.91147 0.47261,1.45159 1.367193,1.45159 z"
         style="stroke:#000000;stroke-width:0.42197305;stroke-linejoin:round;stroke-miterlimit:4;stroke-dasharray:none;stroke-opacity:1"
         id="path3792-1" />
    </g>
    <g
       transform="translate(74.438392,-30.633036)"
       aria-label="C"
       style="font-style:normal;font-variant:normal;font-weight:normal;font-stretch:normal;font-size:8.4394598px;line-height:1.25;font-family:'Bebas Neue';-inkscape-font-specification:'Bebas Neue';letter-spacing:0px;word-spacing:0px;fill:#000000;fill-opacity:1;stroke:#000000;stroke-width:0.42197305;stroke-linejoin:round;stroke-miterlimit:4;stroke-dasharray:none;stroke-opacity:1"
       id="text3111-7">
      <path
         inkscape:connector-curvature="0"
         d="m 37.089834,183.44047 c 0.894582,0 1.367192,-0.54012 1.367192,-1.45158 v -0.83551 h -0.877704 v 0.90302 c 0,0.38822 -0.185668,0.54013 -0.46417,0.54013 -0.278502,0 -0.46417,-0.15191 -0.46417,-0.54013 v -3.29983 c 0,-0.38821 0.185668,-0.54856 0.46417,-0.54856 0.278502,0 0.46417,0.16035 0.46417,0.54856 v 0.6836 h 0.877704 v -0.62452 c 0,-0.91146 -0.47261,-1.45159 -1.367192,-1.45159 -0.894583,0 -1.367193,0.54013 -1.367193,1.45159 v 3.17324 c 0,0.91146 0.47261,1.45158 1.367193,1.45158 z"
         style="stroke:#000000;stroke-width:0.42197305;stroke-linejoin:round;stroke-miterlimit:4;stroke-dasharray:none;stroke-opacity:1"
         id="path3789-5" />
    </g>
    <g
       transform="translate(74.438392,-30.633036)"
       aria-label="C"
       style="font-style:normal;font-variant:normal;font-weight:normal;font-stretch:normal;font-size:6.29558659px;line-height:1.25;font-family:'Bebas Neue';-inkscape-font-specification:'Bebas Neue';letter-spacing:0px;word-spacing:0px;fill:#000000;fill-opacity:1;stroke:#000000;stroke-width:0.31477937;stroke-linejoin:round;stroke-miterlimit:4;stroke-dasharray:none;stroke-opacity:1"
       id="text3115-6">
      <path
         inkscape:connector-curvature="0"
         d="m 52.646819,166.71484 c 0.667332,0 1.019885,-0.40292 1.019885,-1.08284 v -0.62326 h -0.654741 v 0.67363 c 0,0.28959 -0.138503,0.40291 -0.346258,0.40291 -0.207754,0 -0.346257,-0.11332 -0.346257,-0.40291 v -2.46158 c 0,-0.2896 0.138503,-0.40921 0.346257,-0.40921 0.207755,0 0.346258,0.11961 0.346258,0.40921 v 0.50994 h 0.654741 v -0.46587 c 0,-0.67992 -0.352553,-1.08284 -1.019885,-1.08284 -0.667332,0 -1.019885,0.40292 -1.019885,1.08284 v 2.36714 c 0,0.67992 0.352553,1.08284 1.019885,1.08284 z"
         style="stroke:#000000;stroke-width:0.31477937;stroke-linejoin:round;stroke-miterlimit:4;stroke-dasharray:none;stroke-opacity:1"
         id="path3786-5" />
    </g>
    <path
       inkscape:connector-curvature="0"
       style="opacity:1;fill:#ececec;fill-opacity:1;fill-rule:nonzero;stroke:none;stroke-width:0.5647077;stroke-linecap:round;stroke-linejoin:round;stroke-miterlimit:4;stroke-dasharray:none;stroke-opacity:1"
       d="m 126.07897,144.8476 h 4.85388 c 2.90518,0 5.244,2.33882 5.244,5.244 v 8e-4 c 0,2.90517 -2.33882,5.244 -5.244,5.244 h -4.85388 c -2.90518,0 -5.244,-2.33883 -5.244,-5.244 v -8e-4 c 0,-2.90518 2.33882,-5.244 5.244,-5.244 z"
       id="rect3125-6" />
    <g
       transform="translate(74.438392,-30.633036)"
       aria-label="OH"
       style="font-style:normal;font-variant:normal;font-weight:normal;font-stretch:normal;font-size:8.4394598px;line-height:1.25;font-family:'Bebas Neue';-inkscape-font-specification:'Bebas Neue';letter-spacing:0px;word-spacing:0px;fill:#000000;fill-opacity:1;stroke:#000000;stroke-width:0.42197305;stroke-linejoin:round;stroke-miterlimit:4;stroke-dasharray:none;stroke-opacity:1"
       id="text3131-3">
      <path
         inkscape:connector-curvature="0"
         d="m 52.24264,183.72395 c 0.911462,0 1.40939,-0.54012 1.40939,-1.48534 v -3.10572 c 0,-0.94522 -0.497928,-1.48535 -1.40939,-1.48535 -0.911461,0 -1.409389,0.54013 -1.409389,1.48535 v 3.10572 c 0,0.94522 0.497928,1.48534 1.409389,1.48534 z m 0,-0.84394 c -0.295381,0 -0.481049,-0.16035 -0.481049,-0.58233 v -3.22387 c 0,-0.42197 0.185668,-0.58232 0.481049,-0.58232 0.295382,0 0.48105,0.16035 0.48105,0.58232 v 3.22387 c 0,0.42198 -0.185668,0.58233 -0.48105,0.58233 z"
         style="stroke:#000000;stroke-width:0.42197305;stroke-linejoin:round;stroke-miterlimit:4;stroke-dasharray:none;stroke-opacity:1"
         id="path3780-3" />
      <path
         inkscape:connector-curvature="0"
         d="m 54.279847,183.63956 h 0.92834 v -2.65843 h 0.995857 v 2.65843 h 0.92834 v -5.90762 h -0.92834 v 2.40524 h -0.995857 v -2.40524 h -0.92834 z"
         style="stroke:#000000;stroke-width:0.42197305;stroke-linejoin:round;stroke-miterlimit:4;stroke-dasharray:none;stroke-opacity:1"
         id="path3782-8" />
    </g>
    <path
       inkscape:connector-curvature="0"
       style="opacity:1;fill:#ececec;fill-opacity:1;fill-rule:nonzero;stroke:none;stroke-width:0.5647077;stroke-linecap:round;stroke-linejoin:round;stroke-miterlimit:4;stroke-dasharray:none;stroke-opacity:1"
       d="m 157.3727,178.35002 h 4.85389 c 2.90517,0 5.244,2.33881 5.244,5.24399 v 8e-4 c 0,2.90517 -2.33883,5.244 -5.244,5.244 h -4.85389 c -2.90517,0 -5.244,-2.33883 -5.244,-5.244 v -8e-4 c 0,-2.90518 2.33883,-5.24399 5.244,-5.24399 z"
       id="rect3133-5" />
    <g
       transform="translate(74.438392,-30.633036)"
       aria-label="OH"
       style="font-style:normal;font-variant:normal;font-weight:normal;font-stretch:normal;font-size:8.4394598px;line-height:1.25;font-family:'Bebas Neue';-inkscape-font-specification:'Bebas Neue';letter-spacing:0px;word-spacing:0px;fill:#000000;fill-opacity:1;stroke:#000000;stroke-width:0.42197305;stroke-linejoin:round;stroke-miterlimit:4;stroke-dasharray:none;stroke-opacity:1"
       id="text3137-0">
      <path
         inkscape:connector-curvature="0"
         d="m 83.536372,217.22636 c 0.911462,0 1.40939,-0.54012 1.40939,-1.48534 v -3.10572 c 0,-0.94522 -0.497928,-1.48535 -1.40939,-1.48535 -0.911461,0 -1.40939,0.54013 -1.40939,1.48535 v 3.10572 c 0,0.94522 0.497929,1.48534 1.40939,1.48534 z m 0,-0.84394 c -0.295381,0 -0.481049,-0.16035 -0.481049,-0.58233 v -3.22387 c 0,-0.42197 0.185668,-0.58232 0.481049,-0.58232 0.295381,0 0.481049,0.16035 0.481049,0.58232 v 3.22387 c 0,0.42198 -0.185668,0.58233 -0.481049,0.58233 z"
         style="stroke:#000000;stroke-width:0.42197305;stroke-linejoin:round;stroke-miterlimit:4;stroke-dasharray:none;stroke-opacity:1"
         id="path3774-8" />
      <path
         inkscape:connector-curvature="0"
         d="m 85.573579,217.14197 h 0.92834 v -2.65843 h 0.995856 v 2.65843 h 0.928341 v -5.90762 h -0.928341 v 2.40524 h -0.995856 v -2.40524 h -0.92834 z"
         style="stroke:#000000;stroke-width:0.42197305;stroke-linejoin:round;stroke-miterlimit:4;stroke-dasharray:none;stroke-opacity:1"
         id="path3776-2" />
    </g>
    <g
       transform="translate(74.438392,-30.633036)"
       aria-label="O"
       style="font-style:normal;font-variant:normal;font-weight:normal;font-stretch:normal;font-size:6.29558659px;line-height:1.25;font-family:'Bebas Neue';-inkscape-font-specification:'Bebas Neue';letter-spacing:0px;word-spacing:0px;fill:#000000;fill-opacity:1;stroke:#000000;stroke-width:0.31477937;stroke-linejoin:round;stroke-miterlimit:4;stroke-dasharray:none;stroke-opacity:1"
       id="text3141-6">
      <path
         inkscape:connector-curvature="0"
         d="m 83.571556,166.71484 c 0.679924,0 1.051363,-0.40292 1.051363,-1.10802 v -2.31678 c 0,-0.7051 -0.371439,-1.10802 -1.051363,-1.10802 -0.679923,0 -1.051363,0.40292 -1.051363,1.10802 v 2.31678 c 0,0.7051 0.37144,1.10802 1.051363,1.10802 z m 0,-0.62956 c -0.220345,0 -0.358848,-0.11961 -0.358848,-0.43439 v -2.40492 c 0,-0.31478 0.138503,-0.43439 0.358848,-0.43439 0.220346,0 0.358849,0.11961 0.358849,0.43439 v 2.40492 c 0,0.31478 -0.138503,0.43439 -0.358849,0.43439 z"
         style="stroke:#000000;stroke-width:0.31477937;stroke-linejoin:round;stroke-miterlimit:4;stroke-dasharray:none;stroke-opacity:1"
         id="path3771-1" />
    </g>
    <path
       inkscape:connector-curvature="0"
       style="opacity:1;fill:#ececec;fill-opacity:1;fill-rule:nonzero;stroke:none;stroke-width:0.52916664;stroke-linecap:round;stroke-linejoin:round;stroke-miterlimit:4;stroke-dasharray:none;stroke-opacity:1"
       d="m 126.7917,118.48102 h 10.48408 c 2.14698,0 3.87541,1.72843 3.87541,3.87541 0,2.14697 -1.72843,3.8754 -3.87541,3.8754 H 126.7917 c -2.14697,0 -3.87541,-1.72843 -3.87541,-3.8754 0,-2.14698 1.72844,-3.87541 3.87541,-3.87541 z"
       id="rect3146-7" />
    <g
       transform="translate(74.438392,-30.633036)"
       aria-label="CH2oh"
       style="font-style:normal;font-variant:normal;font-weight:normal;font-stretch:normal;font-size:6.29558659px;line-height:1.25;font-family:'Bebas Neue';-inkscape-font-specification:'Bebas Neue';letter-spacing:0px;word-spacing:0px;fill:#000000;fill-opacity:1;stroke:#000000;stroke-width:0.31477937;stroke-linejoin:round;stroke-miterlimit:4;stroke-dasharray:none;stroke-opacity:1"
       id="text3150-7">
      <path
         inkscape:connector-curvature="0"
         d="m 52.741313,155.18657 c 0.667332,0 1.019885,-0.40292 1.019885,-1.08284 v -0.62327 h -0.654741 v 0.67363 c 0,0.2896 -0.138503,0.40292 -0.346258,0.40292 -0.207754,0 -0.346257,-0.11332 -0.346257,-0.40292 v -2.46157 c 0,-0.2896 0.138503,-0.40922 0.346257,-0.40922 0.207755,0 0.346258,0.11962 0.346258,0.40922 v 0.50994 h 0.654741 v -0.46587 c 0,-0.67993 -0.352553,-1.08285 -1.019885,-1.08285 -0.667333,0 -1.019885,0.40292 -1.019885,1.08285 v 2.36714 c 0,0.67992 0.352552,1.08284 1.019885,1.08284 z"
         style="stroke:#000000;stroke-width:0.31477937;stroke-linejoin:round;stroke-miterlimit:4;stroke-dasharray:none;stroke-opacity:1"
         id="path3759-4" />
      <path
         inkscape:connector-curvature="0"
         d="m 54.175526,155.12361 h 0.692514 v -1.98311 h 0.74288 v 1.98311 h 0.692514 V 150.7167 H 55.61092 v 1.79424 h -0.74288 v -1.79424 h -0.692514 z"
         style="stroke:#000000;stroke-width:0.31477937;stroke-linejoin:round;stroke-miterlimit:4;stroke-dasharray:none;stroke-opacity:1"
         id="path3761-3" />
      <path
         inkscape:connector-curvature="0"
         d="m 56.720654,156.38273 h 1.301298 v -0.40921 h -0.855255 v -0.0614 c 0,-0.20051 0.06957,-0.34374 0.339647,-0.63018 0.417397,-0.44195 0.55653,-0.74477 0.55653,-1.08442 0,-0.45832 -0.22916,-0.72021 -0.67111,-0.72021 -0.44195,0 -0.67111,0.26189 -0.67111,0.72021 v 0.27827 h 0.425582 v -0.30691 c 0,-0.20461 0.09003,-0.28236 0.233252,-0.28236 0.143224,0 0.233251,0.0696 0.233251,0.32737 0,0.26599 -0.09821,0.48287 -0.44195,0.84707 -0.335555,0.35192 -0.450135,0.60154 -0.450135,1.01076 z"
         style="font-size:64.99999762%;baseline-shift:sub"
         id="path3763-5" />
      <path
         inkscape:connector-curvature="0"
         d="m 59.45863,155.18657 c 0.679923,0 1.051363,-0.40292 1.051363,-1.10803 v -2.31677 c 0,-0.70511 -0.37144,-1.10803 -1.051363,-1.10803 -0.679924,0 -1.051363,0.40292 -1.051363,1.10803 v 2.31677 c 0,0.70511 0.371439,1.10803 1.051363,1.10803 z m 0,-0.62956 c -0.220346,0 -0.358849,-0.11962 -0.358849,-0.4344 v -2.40491 c 0,-0.31478 0.138503,-0.4344 0.358849,-0.4344 0.220345,0 0.358848,0.11962 0.358848,0.4344 v 2.40491 c 0,0.31478 -0.138503,0.4344 -0.358848,0.4344 z"
         style="stroke:#000000;stroke-width:0.31477937;stroke-linejoin:round;stroke-miterlimit:4;stroke-dasharray:none;stroke-opacity:1"
         id="path3765-1" />
      <path
         inkscape:connector-curvature="0"
         d="m 60.978325,155.12361 h 0.692515 v -1.98311 h 0.742879 v 1.98311 h 0.692515 v -4.40691 h -0.692515 v 1.79424 H 61.67084 v -1.79424 h -0.692515 z"
         style="stroke:#000000;stroke-width:0.31477937;stroke-linejoin:round;stroke-miterlimit:4;stroke-dasharray:none;stroke-opacity:1"
         id="path3767-0" />
    </g>
  </g>
</svg>
