<?xml version="1.0" encoding="UTF-8" standalone="no"?>
<!-- Created with Inkscape (http://www.inkscape.org/) -->

<svg
   xmlns:dc="http://purl.org/dc/elements/1.1/"
   xmlns:cc="http://creativecommons.org/ns#"
   xmlns:rdf="http://www.w3.org/1999/02/22-rdf-syntax-ns#"
   xmlns:svg="http://www.w3.org/2000/svg"
   xmlns="http://www.w3.org/2000/svg"
   xmlns:sodipodi="http://sodipodi.sourceforge.net/DTD/sodipodi-0.dtd"
   xmlns:inkscape="http://www.inkscape.org/namespaces/inkscape"
   width="210mm"
   height="297mm"
   viewBox="0 0 210 297"
   version="1.1"
   id="svg4179"
   inkscape:version="0.92.3 (2405546, 2018-03-11)"
   sodipodi:docname="Tiny amylose loop.svg">
  <defs
     id="defs4173">
    <inkscape:path-effect
       effect="bend_path"
       id="path-effect4935"
       is_visible="true"
       bendpath="m -15.768901,139.5861 c 14.3244548,3.21934 27.261955,1.59235 39.270208,1.3937 47.644881,-0.78819 68.692581,-65.18775 22.272504,-64.386762 -49.1993969,0.848946 -26.821454,64.983782 25.020159,64.095182 8.510857,-0.14588 18.340034,-0.51715 28.012235,-0.19189 35.442565,1.19189 69.433425,-61.43126 15.907445,-61.615169 -40.11845,-0.137842 -25.946351,62.017699 24.02681,61.176239 9.8323,-0.16556 20.82141,-0.46859 32.47663,-0.40438 50.97129,0.28081 67.78834,-62.552451 23.06198,-62.780691 -46.57453,-0.237672 -29.22726,62.946291 31.88633,62.509141 9.06541,-0.0649 24.23603,-0.64928 37.65519,-0.74029"
       prop_scale="1"
       scale_y_rel="false"
       vertical="false"
       bendpath-nodetypes="csssssssssc" />
    <inkscape:path-effect
       effect="bspline"
       id="path-effect4933"
       is_visible="true"
       weight="33.333333"
       steps="2"
       helper_size="0"
       apply_no_weight="true"
       apply_with_weight="true"
       only_selected="false" />
  </defs>
  <sodipodi:namedview
     id="base"
     pagecolor="#ffffff"
     bordercolor="#666666"
     borderopacity="1.0"
     inkscape:pageopacity="0.0"
     inkscape:pageshadow="2"
     inkscape:zoom="1.4"
     inkscape:cx="399.49509"
     inkscape:cy="601.95446"
     inkscape:document-units="mm"
     inkscape:current-layer="layer1"
     showgrid="false"
     inkscape:window-width="1920"
     inkscape:window-height="1017"
     inkscape:window-x="-8"
     inkscape:window-y="-8"
     inkscape:window-maximized="1" />
  <metadata
     id="metadata4176">
    <rdf:RDF>
      <cc:Work
         rdf:about="">
        <dc:format>image/svg+xml</dc:format>
        <dc:type
           rdf:resource="http://purl.org/dc/dcmitype/StillImage" />
        <dc:title></dc:title>
      </cc:Work>
    </rdf:RDF>
  </metadata>
  <g
     inkscape:label="Layer 1"
     inkscape:groupmode="layer"
     id="layer1">
    <path
       id="ellipse4866"
       style="opacity:1;fill:#c2ffb2;fill-opacity:1;fill-rule:nonzero;stroke:none;stroke-width:0.52916664;stroke-linecap:round;stroke-linejoin:round;stroke-miterlimit:4;stroke-dasharray:none;stroke-opacity:1"
       d="m 263.5987,138.64898 c 0.009,1.17664 -3.44626,2.16063 -7.70825,2.24408 -4.26744,0.0836 -7.76079,-0.77457 -7.7909,-1.95746 -0.0299,-1.17638 3.41485,-2.23076 7.70731,-2.31469 4.29777,-0.084 7.78328,0.84493 7.79184,2.02807 z m -12.58189,0.21426 c 0.0282,1.17638 -3.41445,2.22258 -7.69363,2.33324 -4.28454,0.11079 -7.77912,-0.76616 -7.80429,-1.94907 -0.025,-1.17641 3.41918,-2.21214 7.69382,-2.32271 4.28002,-0.11072 7.77571,0.75567 7.8041,1.93854 z m -12.21594,0.30953 c 0.0282,1.17641 -3.41915,2.22678 -7.71594,2.29425 -1.78711,0.0281 -3.5173,-0.12113 -4.90762,-0.42084 -1.85531,-0.39122 -2.89633,-1.04669 -2.87926,-1.68629 0.0173,-0.64872 1.08438,-1.21526 2.85553,-1.63063 1.37231,-0.31852 3.09291,-0.50681 4.86426,-0.53464 4.26371,-0.067 7.75463,0.79525 7.78303,1.97815 z m -12.5821,0.21457 c 6.1e-4,0.0836 -0.0166,0.16727 -0.0515,0.25056 -0.45404,1.07955 -3.81843,1.93498 -7.88977,1.58629 -4.44951,-0.38107 -7.7333,-2.02178 -7.51505,-3.18159 0.2169,-1.15262 3.76106,-1.44278 7.88139,-1.08866 3.79183,0.32589 7.05693,1.11944 7.51984,2.1836 0.0361,0.0828 0.0545,0.16619 0.0551,0.2498 z m -12.22084,-0.80871 c -0.16696,1.16285 -3.80724,1.67186 -8.13749,0.57093 -4.3372,-1.10269 -7.27098,-3.29512 -6.8534,-4.39271 0.41417,-1.08863 3.92893,-0.75157 7.90244,0.25079 3.98251,1.00462 7.25678,2.39867 7.08845,3.57099 z m -12.24799,-2.84832 c -0.3657,1.108 -4.03149,0.98007 -8.08431,-0.93227 -2.49688,-1.17817 -4.49176,-2.74227 -5.42219,-4.04762 -0.51345,-0.7196 -0.65011,-1.29128 -0.42888,-1.63298 0.22295,-0.34438 0.79377,-0.44544 1.63808,-0.32639 1.46855,0.20621 3.77532,1.09014 6.03127,2.15611 3.67453,1.73628 6.63541,3.66403 6.26603,4.78315 z m -11.12988,-4.90987 c -0.263,0.46278 -1.16656,0.5619 -2.53399,0.18498 -1.52901,-0.42021 -3.43503,-1.38297 -5.24321,-2.77373 -3.6219,-2.78576 -5.32862,-6.08321 -4.47621,-6.89441 0.84095,-0.80031 3.87515,1.01108 7.09522,3.49231 1.62643,1.25325 3.18178,2.60261 4.14814,3.70647 0.88894,1.01395 1.27734,1.81406 1.01005,2.28438 z m -10.17266,-7.42571 c -0.79293,0.85134 -4.13583,-0.79206 -6.91346,-4.43038 -2.78775,-3.65156 -3.44993,-7.30655 -2.39983,-7.82817 1.02809,-0.5107 3.36307,2.0873 5.78386,5.23599 2.4363,3.16886 4.33898,6.15338 3.52943,7.02256 z m -7.50395,-9.02047 c -0.89333,0.55639 -3.40965,-1.47271 -5.0886,-5.3953 -0.11196,-0.26241 -0.21763,-0.52899 -0.31652,-0.79894 -0.7671,-2.09395 -1.04087,-4.15836 -0.89945,-5.77133 0.13928,-1.58872 0.64831,-2.457375 1.20118,-2.503969 1.10953,-0.09351 2.38921,3.143699 3.71686,6.811329 0.0859,0.23729 0.17127,0.4759 0.25497,0.71295 1.21227,3.44529 2.0652,6.36377 1.13156,6.94526 z m -4.69916,-11.58254 c -0.92366,0.17983 -2.52837,-2.20854 -2.55257,-6.234646 0,-10e-7 0,-10e-7 0,-10e-7 -0.003,-0.573095 0.031,-1.154939 0.10296,-1.737666 0.28375,-2.299231 1.11757,-4.278885 2.11335,-5.60453 0.98042,-1.30519 1.90963,-1.728253 2.38688,-1.457544 0.94496,0.536 0.20533,3.90538 -0.25459,7.588815 -0.0603,0.483338 -0.11529,0.942956 -0.17083,1.419018 0,0 0,0 0,0 -0.37522,3.202953 -0.59898,5.826764 -1.6252,6.026554 z m 0.69382,-12.054378 c -0.73084,-0.259432 -1.04983,-2.365953 0.45211,-5.235107 0,0 0,0 0,-10e-7 0.52029,-0.974478 1.20655,-1.92293 2.03296,-2.784841 1.60932,-1.678466 3.47785,-2.748004 5.04682,-3.211513 1.55036,-0.458012 2.55053,-0.267534 2.78464,0.230263 0.50094,1.065126 -2.19369,3.269588 -4.75799,5.93337 -0.68076,0.707168 -1.25762,1.339159 -1.86007,2.02244 0,0 0,0 0,0 -1.67226,1.859042 -2.86613,3.340853 -3.69847,3.045389 z m 7.75738,-9.591125 c -0.37072,-0.579853 0.33749,-1.955257 2.35295,-3.275554 1.16308,-0.762286 2.60142,-1.405964 4.18211,-1.833626 4.52673,-1.224727 8.15122,-0.227976 8.21023,0.894188 0.0636,1.210093 -3.32283,2.208945 -7.10213,3.221044 -1.23164,0.329834 -2.81095,0.741632 -3.85096,0.981553 -1.97722,0.450996 -3.39871,0.627854 -3.7922,0.01239 z m 11.47832,-3.917509 c -0.13077,-0.989522 2.33682,-2.266999 6.11595,-2.450432 0,10e-7 0,0 0,0 0.56468,-0.03181 1.1417,-0.03737 1.72316,-0.01485 2.19403,0.08498 4.19565,0.561001 5.64587,1.248384 1.42881,0.677236 2.07919,1.438617 1.93878,1.97746 -0.28071,1.077265 -3.77245,1.223104 -7.7581,1.053727 -0.52629,-0.02237 -1.05491,-0.05192 -1.57102,-0.08911 0,0 0,0 0,0 -3.379,-0.213439 -5.96467,-0.741705 -6.09464,-1.725174 z m 12.5709,0.156924 c 0.1812,-1.093183 3.92151,-1.719996 8.28827,0.276774 0.0315,0.01441 0.063,0.02894 0.0944,0.04357 2.06515,0.967805 3.67419,2.335175 4.63004,3.648446 0.94191,1.294127 1.08767,2.286977 0.69787,2.668611 -0.78619,0.76972 -3.76731,-0.876027 -7.13725,-2.44637 -2e-4,-9.6e-5 -0.0789,-0.03705 -0.0791,-0.03715 -3.45924,-1.62309 -6.69161,-2.963244 -6.49424,-4.153886 z m 11.23567,4.487566 c 0.58214,-0.787779 3.85871,0.02662 6.50779,3.769231 0.18336,0.262986 0.35755,0.533193 0.52194,0.809527 1.18951,1.999519 1.72646,4.081516 1.75965,5.714279 0.0328,1.614002 -0.41395,2.528637 -0.95678,2.622948 -1.16141,0.201785 -2.56433,-2.981779 -4.46653,-6.148203 -0.13242,-0.220428 -0.265,-0.437953 -0.39938,-0.655128 -1.75412,-2.893538 -3.62288,-5.224675 -2.96669,-6.112654 z m 7.15002,10.07723 c 0.80619,-0.250596 2.36258,1.451322 2.94913,4.796155 0,0 0,0 0,0 0.1628,0.925602 0.23803,1.904232 0.21794,2.899587 -0.0962,4.76359 -2.2172,7.90366 -3.29721,7.60276 -1.14641,-0.3194 -1.04944,-3.82469 -0.9695,-7.689873 0.0151,-0.727496 0.0383,-1.805835 0.0561,-2.484913 0,0 0,-10e-7 0,-10e-7 0.0729,-2.758413 0.18535,-4.856951 1.04357,-5.123715 z m 0.67939,11.510662 c 0.86496,0.13391 1.44733,2.35185 0.7353,5.59898 0,0 0,0 0,0 -0.19139,0.87268 -0.46442,1.76433 -0.81323,2.64221 -1.70556,4.29255 -4.54492,6.70179 -5.51607,6.07875 -0.98975,-0.635 0.0988,-3.97032 1.55185,-7.6494 0.30461,-0.77129 0.63158,-1.56657 0.94474,-2.28835 0,0 0,0 0,0 1.14859,-2.64444 2.20269,-4.5207 3.09741,-4.38219 z m -4.10844,11.81565 c 1.02491,0.55986 0.23853,4.19076 -2.65748,7.7647 -2.89045,3.56707 -6.27744,5.11246 -7.04529,4.23752 -0.77626,-0.88457 1.1898,-3.8192 3.72376,-6.93403 2.52556,-3.10451 4.96536,-5.62188 5.97901,-5.06819 z m -7.30723,9.7468 c 0.82222,0.81389 -0.88562,4.02727 -4.5272,6.69277 -0.0375,0.0275 -0.0751,0.0548 -0.11288,0.082 -3.7058,2.66972 -7.34496,3.30197 -7.86271,2.26578 -0.52428,-1.04929 2.11269,-3.36971 5.35887,-5.7277 0.0343,-0.0249 0.0686,-0.0498 0.10288,-0.0746 3.22211,-2.32975 6.21804,-4.05286 7.04104,-3.23823 z m -9.94044,7.6634 c 0.58546,1.01498 -1.972,3.67656 -6.20485,5.31127 -4.22629,1.63218 -7.91589,1.397 -8.17417,0.25727 -0.26045,-1.14942 2.87169,-2.78824 6.64016,-4.23744 3.75912,-1.44562 7.15836,-2.33744 7.73886,-1.3311 z m -11.21025,4.75001 c 0.32738,1.1259 -2.78807,3.10656 -7.274,3.75089 -4.48254,0.64384 -8.0298,-0.37279 -8.03787,-1.54157 -0.008,-1.17363 3.40034,-2.11825 7.42991,-2.69573 4.02486,-0.5768 7.55592,-0.63481 7.88196,0.48641 z m -12.39325,2.11517 c 0.0418,0.7242 -1.29779,1.52681 -3.64303,1.90454 -1.22975,0.20635 -2.65418,0.31674 -4.10467,0.31939 -4.26158,0.008 -7.74016,-0.89724 -7.75448,-2.07941 -0.0143,-1.17749 3.44692,-2.18547 7.74665,-2.1934 1.46319,-0.003 2.89382,0.11324 4.13245,0.33363 2.1783,0.3991 3.58018,0.97161 3.62308,1.71525 z m -12.21962,0.11078 c 0.01,1.17748 -3.44678,2.16514 -7.71635,2.23314 -4.27347,0.0681 -7.76176,-0.81634 -7.78408,-1.99847 -0.0222,-1.17746 3.42888,-2.20587 7.71609,-2.27403 4.29106,-0.0682 7.77451,0.8572 7.78434,2.03936 z m -12.58278,0.18028 c 0.0215,1.17746 -3.42874,2.20268 -7.71077,2.28126 -1.23889,0.0227 -2.46086,-0.0373 -3.5647,-0.17544 0,0 0,0 0,0 -2.68791,-0.32087 -4.27385,-1.20149 -4.22725,-1.98675 0.048,-0.80894 1.69558,-1.40566 4.16334,-1.80895 0,0 0,0 0,0 1.09563,-0.17509 2.31335,-0.27853 3.55016,-0.30126 4.27838,-0.0786 7.76759,0.80901 7.78922,1.99114 z m -11.77291,0.21385 c 0.01,1.16677 -3.52434,2.2451 -8.02662,1.64006 -4.5067,-0.60562 -7.62795,-2.58756 -7.30237,-3.71318 0.32382,-1.11948 3.85124,-1.06965 7.87186,-0.53104 4.02688,0.53944 7.44726,1.43099 7.45713,2.60416 z m -12.50358,-1.34257 c -0.25997,1.13717 -3.95644,1.37251 -8.17799,-0.31379 -4.22969,-1.68954 -6.72805,-4.41728 -6.1189,-5.41806 0.6026,-0.98998 3.97421,-0.0217 7.69703,1.4583 3.73473,1.48473 6.86262,3.12409 6.59986,4.27355 z m -11.44277,-4.13456 c -0.49595,0.96652 -3.79673,0.44884 -7.32787,-2.037 -0.16973,-0.11977 -0.33779,-0.24269 -0.5039,-0.36852 -3.66106,-2.77359 -5.30668,-6.11621 -4.44892,-6.90967 0.85812,-0.79376 3.84556,1.07898 7.03364,3.50531 0.15051,0.11455 0.30065,0.22988 0.44969,0.34545 2.98143,2.31851 5.30747,4.47029 4.79736,5.46443 z m -10.22634,-7.23691 c -0.80012,0.84493 -4.130276,-0.8293 -6.856486,-4.53752 -2.730374,-3.71388 -3.316596,-7.3889 -2.263886,-7.89222 1.043425,-0.49887 3.339589,2.14907 5.706122,5.3577 2.37293,3.21731 4.22143,6.21964 3.41425,7.07204 z m -7.592483,-9.54377 c -0.996646,0.5804 -3.73393,-1.9498 -5.239621,-6.33018 -0.126541,-0.36814 -0.240595,-0.73957 -0.341553,-1.11206 0,0 0,0 0,0 -1.085799,-4.00463 -0.359793,-7.02431 0.67485,-7.12967 1.040396,-0.10593 2.186894,2.54962 3.365456,5.87828 0,0 0,0 0,10e-6 0.114553,0.32349 0.228968,0.653 0.340619,0.98069 1.275639,3.74395 2.214247,7.1224 1.200249,7.71293 z m -4.476044,-11.68638 c -1.100455,0.21535 -2.968836,-3.08382 -2.650105,-7.853858 0,0 4.54e-4,-0.0068 4.54e-4,-0.0068 0.150214,-2.269517 0.812206,-4.280659 1.676016,-5.677872 0.850007,-1.374886 1.719643,-1.896263 2.22522,-1.677869 1.002395,0.43302 0.635711,3.870245 0.361615,7.650196 0,1e-5 -4.1e-4,0.0058 -4.11e-4,0.0058 -0.273337,3.837845 -0.44588,7.332035 -1.612789,7.560415 z m 0.191275,-12.116491 c -0.869214,-0.225926 -1.362019,-3.010655 0.519611,-6.575683 0,0 0,-10e-7 0,-10e-7 0.307177,-0.57335 0.663795,-1.130958 1.064948,-1.662417 1.411494,-1.869985 3.164436,-3.142179 4.695909,-3.761031 1.511554,-0.610801 2.527434,-0.494368 2.798434,-0.01772 0.56316,0.990522 -1.888826,3.431933 -4.086641,6.348901 -0.318704,0.422989 -0.620655,0.836116 -0.920262,1.2577 0,0 0,10e-7 0,10e-7 -1.794787,2.488475 -3.074535,4.669494 -4.071999,4.410249 z m 6.660525,-10.389582 c -0.445381,-0.564844 0.219145,-2.196027 2.462247,-3.755132 0,0 0,0 0,0 1.07017,-0.738355 2.35709,-1.359639 3.76655,-1.790175 2.16057,-0.659976 4.26279,-0.766908 5.84115,-0.515276 1.56311,0.249203 2.40295,0.804723 2.4209,1.360272 0.0392,1.212469 -3.35633,2.125127 -7.02359,3.23181 -1.6416,0.495393 -1.83983,0.566497 -3.33882,1.030808 0,0 0,0 0,0 -2.1008,0.635484 -3.641524,1.055191 -4.128437,0.437693 z m 12.104117,-4.553622 c -0.0747,-0.727238 1.2784,-1.629157 3.73037,-2.003168 0,10e-7 0,0 0,0 1.24961,-0.204968 2.68732,-0.279692 4.1731,-0.181411 2.1693,0.143495 4.14881,0.637304 5.58398,1.3228 1.4156,0.676152 2.07252,1.425638 1.93648,1.966876 -0.27246,1.084006 -3.76912,1.254735 -7.80269,0.989536 -1.36337,-0.08964 -2.72354,-0.236458 -3.90341,-0.447933 0,0 0,0 0,0 -2.18329,-0.382233 -3.64098,-0.898676 -3.71783,-1.6467 z m 12.57268,0.508273 c 0.18502,-1.087713 3.80368,-1.666634 8.11719,0.09294 0.0473,0.01922 0.0945,0.03871 0.14163,0.05845 2.11428,0.88603 3.80179,2.195728 4.82852,3.501614 1.00901,1.283332 1.18275,2.286876 0.80035,2.679311 -0.7402,0.759626 -3.84515,-0.747751 -7.30346,-2.247756 0.002,6.65e-4 -0.11935,-0.05178 -0.11782,-0.05111 -3.51607,-1.518222 -6.6668,-2.85542 -6.46641,-4.033448 z m 11.34993,4.260305 c 0.29193,-0.425519 1.20675,-0.479476 2.52594,0.126161 1.3261,0.60881 2.88991,1.827473 4.1483,3.650856 0.15792,0.236102 0.30767,0.477792 0.44887,0.724256 1.18193,2.063038 1.62305,4.205042 1.55795,5.851499 -0.0644,1.629059 -0.59002,2.509546 -1.1356,2.561899 -1.18722,0.113925 -2.30243,-3.178346 -4.11475,-6.279703 -0.10914,-0.186762 -0.21951,-0.371346 -0.33181,-0.554746 -1.69089,-2.883916 -3.74655,-5.136221 -3.0989,-6.080222 z m 7.05649,10.034782 c 0.80147,-0.198708 2.2639,1.550205 2.57779,4.915764 0,0 0,1e-6 0,1e-6 0.0922,0.972227 0.0832,1.99414 -0.031,3.0245 -0.52416,4.73 -2.91213,7.66376 -3.95243,7.28157 -1.13537,-0.41711 -0.71635,-3.90891 -0.28644,-7.75329 0.17193,-1.537465 0.11315,-1.0165 0.28508,-2.55397 0,-10e-7 0,-10e-7 0,-10e-7 0.30085,-2.665619 0.55114,-4.702374 1.40703,-4.914574 z m -0.41221,12.098545 c 0.78652,0.21035 1.12981,2.15019 0.3699,4.97386 0,0 0,0 0,0 -0.27899,1.04552 -0.68605,2.13411 -1.20629,3.19995 -2.00074,4.09895 -4.91094,6.38995 -5.86157,5.7203 -0.96338,-0.67862 0.26758,-3.98259 2.02583,-7.59101 0.46546,-0.95525 0.96798,-1.92421 1.44717,-2.77306 0,0 0,0 0,0 1.27572,-2.26787 2.41975,-3.74539 3.22496,-3.53004 z m -5.08852,11.46185 c 0.99673,0.61814 0.003,4.17964 -2.94967,7.63997 -2.94772,3.455 -6.30344,5.01263 -7.07556,4.1364 -0.77869,-0.88368 1.18348,-3.83057 3.8215,-6.91567 2.63158,-3.07757 5.21547,-5.47359 6.20373,-4.8607 z m -7.62254,9.53023 c 0.7469,0.753 -0.64795,3.52645 -3.7696,6.12742 -0.2662,0.22444 -0.5405,0.44312 -0.82163,0.65481 -3.65589,2.75278 -7.32084,3.48799 -7.86735,2.43823 -0.53732,-1.03212 2.05121,-3.45862 5.30469,-5.86854 0.25979,-0.19243 0.5216,-0.3826 0.7827,-0.56843 2.98184,-2.15187 5.61276,-3.5481 6.37119,-2.78349 z m -9.89887,7.78164 c 0.59934,0.99185 -1.8947,3.78948 -6.21457,5.42862 -4.34134,1.64727 -8.03113,1.15115 -8.20707,-0.002 -0.17081,-1.11922 2.98753,-2.56657 6.67966,-3.99142 3.72585,-1.43786 7.12527,-2.45611 7.74198,-1.43551 z m -10.79671,4.66878 c 0.29062,1.09557 -2.86309,3.10737 -7.55297,3.23961 -0.625932,0.0177 -1.249345,-5.5e-4 -1.860824,-0.0539 0,0 -10e-7,0 -10e-7,0 -3.463834,-0.34067 -5.943429,-1.19873 -5.935938,-2.19991 0.0074,-0.98779 2.509668,-1.85626 6.075876,-1.96138 0,0 10e-7,0 10e-7,0 0.518852,-0.0145 1.08677,-0.0279 1.616566,-0.0386 3.87282,-0.0787 7.35522,-0.12451 7.65729,1.01424 z m -12.432744,1.0241 c -0.02243,1.17221 -3.491466,2.06792 -7.732984,2.10013 -4.25336,0.0323 -7.742527,-0.8327 -7.766588,-2.01967 -0.02378,-1.17299 3.426997,-2.22092 7.734544,-2.25283 4.318839,-0.032 7.78773,0.98618 7.765028,2.17237 z m -12.216883,0.0193 c 0.01942,1.1728 -3.426619,2.20108 -7.705232,2.29222 -1.813309,0.0386 -3.570083,-0.10054 -4.97273,-0.39619 -1.833372,-0.3751 -2.843481,-1.03345 -2.824393,-1.66112 0.01949,-0.64098 1.058039,-1.19048 2.768085,-1.62396 1.381027,-0.34241 3.130523,-0.55291 4.937855,-0.59155 4.28302,-0.0916 7.776771,0.79384 7.796415,1.9806 z m -12.583431,0.25138 c 0.0022,0.12695 -0.03667,0.25436 -0.116196,0.3807 -0.656797,1.03715 -3.948131,1.82554 -7.866904,1.38268 -4.488782,-0.50728 -7.673018,-2.36684 -7.387731,-3.50431 0.284921,-1.13602 3.820717,-1.20327 7.868034,-0.74591 3.550135,0.40117 6.70767,1.12195 7.373623,2.11035 0.08373,0.12355 0.126976,0.24953 0.129174,0.37649 z m -12.174311,-1.03493 c -0.220131,1.15002 -3.893501,1.50075 -8.173387,0.0587 -4.283763,-1.44334 -6.985415,-3.94961 -6.45898,-4.99664 0.523878,-1.04195 3.978124,-0.34069 7.820428,0.94996 3.847665,1.29245 7.033139,2.83237 6.811939,3.98795 z m -11.995485,-3.70052 c -0.466154,1.06721 -4.125139,0.60887 -7.973321,-1.78876 -0.648502,-0.40406 -1.266823,-0.84221 -1.840801,-1.30267 0,0 0,0 -1e-6,0 -2.721596,-2.18031 -3.891321,-4.38006 -3.284404,-5.09158 0.624038,-0.7316 2.852655,0.13465 5.602104,1.70615 0,0 10e-7,0 10e-7,0 0.585718,0.33395 1.190862,0.69656 1.783129,1.06687 3.424078,2.14087 6.183358,4.33383 5.713293,5.40999 z m -10.528448,-6.1268 c -0.698834,0.93167 -4.179427,-0.34949 -7.377252,-3.60942 -3.204075,-3.2663 -4.398143,-6.77518 -3.44009,-7.44853 0.947563,-0.66598 3.664869,1.56788 6.496508,4.44617 2.84071,2.88752 5.027339,5.66988 4.320834,6.61178 z m -9.064841,-8.72682 c -0.904557,0.72585 -3.968541,-1.37737 -6.17106,-5.39674 -1.171694,-2.13823 -1.803841,-4.30961 -1.88185,-5.9365 -0.06174,-1.27444 0.227294,-2.04081 0.701486,-2.18945 0.482989,-0.15141 1.125047,0.31718 1.872279,1.2381 0.902569,1.11348 2.033952,2.9988 3.043709,4.84004 1.91499,3.49188 3.355971,6.70588 2.435436,7.44455 z m -5.989637,-9.90106 c -0.48674,0.20956 -1.274314,-0.25414 -2.125784,-1.40907 -0.953896,-1.29499 -1.840797,-3.28328 -2.26923,-5.58743 -0.50909,-2.73793 -0.243003,-5.246262 0.421712,-6.782694 0.401997,-0.931579 0.895554,-1.365652 1.322849,-1.31945 0.436983,0.04726 0.794296,0.569384 1.108854,1.435021 0.449622,1.242915 0.941191,3.726383 1.348047,5.880123 0.362935,1.92124 0.716405,3.94396 0.790014,5.36819 0.06955,1.3313 -0.09799,2.2007 -0.596462,2.41531 z M 18.380653,99.015767 c -0.452735,0.006 -0.928431,-0.527625 -1.249679,-1.595571 -0.479751,-1.601929 -0.497816,-4.109032 0.402741,-6.721255 0.637037,-1.847836 1.62022,-3.413064 2.705434,-4.524267 1.477696,-1.492913 2.750123,-1.81979 3.208175,-1.402451 0.498428,0.454139 0.174138,1.613329 -0.402034,3.241999 -0.594498,1.636373 -0.819251,2.151542 -1.472926,4.069835 -0.649204,1.90517 -1.352311,4.259965 -1.890159,5.457391 -0.414573,0.925811 -0.836413,1.468158 -1.301552,1.474319 z m 3.082702,-11.642945 c -0.176586,-0.111189 -0.294464,-0.317159 -0.337795,-0.617067 0,0 0,0 0,0 -0.200079,-1.401817 1.249009,-4.407746 4.424524,-6.67175 1.42071,-1.012905 2.934331,-1.694258 4.315843,-2.049974 2.214311,-0.565448 3.640088,-0.255931 3.849078,0.38677 0.222719,0.684956 -0.775535,1.628704 -2.381772,2.811168 -0.844315,0.622499 -2.289627,1.620848 -3.305233,2.339465 -2.339183,1.655148 -4.796411,3.606075 -5.869121,3.861707 0,0 0,0 0,0 -0.283886,0.06723 -0.518188,0.05134 -0.695524,-0.06032 z m 9.532605,-7.917907 c -0.224428,-0.510338 0.298061,-1.366995 1.61118,-2.250102 1.332079,-0.895859 3.246634,-1.656498 5.418222,-2.043219 3.570325,-0.63581 6.706244,-0.07083 7.737595,0.802431 0,0 0,10e-7 0,10e-7 0.238817,0.201344 0.359431,0.414929 0.361697,0.630394 0.0023,0.215746 -0.113771,0.430872 -0.339773,0.640139 0,0 0,0 0,0 -0.980559,0.909487 -3.879987,1.593692 -7.018344,2.138611 -3.868342,0.671668 -7.321267,1.103409 -7.770577,0.08174 z m 11.854256,-2.72805 c -0.04612,-0.644116 0.992395,-1.36362 2.894872,-1.798413 1.421559,-0.333579 3.194697,-0.470814 5.058785,-0.299469 2.203421,0.202536 4.178561,0.80444 5.582921,1.593621 1.383057,0.77721 1.967889,1.591572 1.784126,2.115701 -0.364153,1.038592 -3.832857,0.9077 -7.753399,0.559001 -1.639571,-0.145827 -3.295927,-0.346674 -4.614771,-0.627174 -1.793228,-0.36703 -2.905671,-0.888952 -2.952534,-1.543267 z m 12.530258,0.797651 c 0.191813,-0.809363 2.377609,-1.28449 5.530013,-0.244677 0,0 0,0 0,0 0.922338,0.307693 1.852275,0.737301 2.743398,1.284698 1.978994,1.215654 3.429931,2.804379 4.213045,4.269524 0.770956,1.442401 0.754701,2.464686 0.305977,2.780104 -0.881286,0.619455 -3.613589,-1.475195 -6.757374,-3.402498 -0.76398,-0.468359 -1.400864,-0.847714 -2.133896,-1.285369 0,0 -1e-6,0 -1e-6,0 -2.357692,-1.412695 -4.113652,-2.505114 -3.901162,-3.401782 z m 10.672697,5.600186 c 0.501525,-0.511497 2.25267,-0.06235 4.092234,2.073658 0,0 10e-7,0 10e-7,0 0.839265,0.989666 1.569183,2.209619 2.100206,3.576644 1.241619,3.196335 1.030735,6.212281 0.332889,7.584098 -0.256057,0.502572 -0.560367,0.754749 -0.868421,0.762456 -0.310825,0.0078 -0.618642,-0.228662 -0.923645,-0.668824 -0.769487,-1.107161 -1.59206,-3.726508 -2.519333,-6.139715 -0.450879,-1.1734 -0.822988,-2.060186 -1.268509,-3.095195 0,0 0,-10e-7 0,-10e-7 -0.85029,-2.035625 -1.51101,-3.516269 -0.945422,-4.093121 z m 5.413811,11.088852 c 0.539671,-0.07852 1.228678,0.628971 1.704973,2.114541 0.500426,1.552662 0.678091,3.659834 0.358831,5.908685 -0.393826,2.77408 -1.447724,5.09887 -2.4973,6.33096 -0.615667,0.72264 -1.171248,1.00374 -1.565273,0.85722 -0.398968,-0.14836 -0.620372,-0.71674 -0.68972,-1.61574 -0.114369,-1.46764 0.185672,-3.84712 0.523064,-6.17828 0.25772,-1.780693 0.588848,-3.895931 0.891424,-5.147199 0.324042,-1.337761 0.714479,-2.188772 1.274001,-2.270187 z m -0.862589,11.661556 c 0.558826,0.14929 0.902071,1.15254 0.770345,2.80742 -0.122683,1.55716 -0.647772,3.46884 -1.561704,5.36215 -1.9885,4.1194 -4.91885,6.39676 -5.865408,5.72293 -0.95975,-0.68324 0.287375,-3.97801 2.02497,-7.57694 0.796977,-1.65071 1.695454,-3.34405 2.464646,-4.49623 0.848764,-1.27165 1.595231,-1.97211 2.167151,-1.81933 z m -5.039461,11.4659 c 0.994015,0.61874 -8.57e-4,4.18674 -3.001442,7.62904 -2.996419,3.43751 -6.390993,4.92381 -7.144076,4.03334 -0.758939,-0.89742 1.256978,-3.80092 3.918357,-6.84787 2.655349,-3.04005 5.240865,-5.42843 6.227161,-4.81451 z m -7.703292,9.46096 c 0.648746,0.67535 -0.394765,2.95101 -3.001102,5.29291 -10e-7,0 -10e-7,0 -10e-7,0 -0.541014,0.48671 -1.126767,0.95356 -1.744485,1.38837 -3.722001,2.61992 -7.366257,3.24905 -7.882505,2.20394 -0.519431,-1.0516 2.130536,-3.37486 5.422969,-5.69571 0.562002,-0.39616 1.136961,-0.78629 1.694089,-1.14784 0,0 0,0 0,0 2.662235,-1.73207 4.842883,-2.73721 5.511035,-2.04167 z m -10.052678,7.5195 c 0.57772,1.01733 -1.994311,3.67272 -6.239404,5.292 -4.244092,1.6189 -7.931964,1.3535 -8.179991,0.21081 -0.248335,-1.14418 2.885277,-2.76322 6.658154,-4.20154 3.771443,-1.43778 7.184258,-2.31726 7.761241,-1.30127 z m -11.247207,4.70784 c 0.319756,1.1233 -2.805511,3.09947 -7.314697,3.67085 -2.15497,0.27307 -4.196521,0.16262 -5.720935,-0.22028 -1.442295,-0.37504 -2.267446,-0.89274 -2.281279,-1.45968 -0.01375,-0.56377 0.784869,-1.13022 2.23144,-1.55298 1.36748,-0.41526 3.313302,-0.76154 5.233852,-1.00484 4.004121,-0.50724 7.53073,-0.56029 7.851619,0.56693 z m -12.397836,1.92885 c 0.0089,0.297 -0.208074,0.60007 -0.648415,0.87985 -1.211031,0.7859 -3.984505,1.3667 -7.04487,1.46746 -4.302675,0.14167 -7.8198915,-0.71929 -7.8446798,-1.9165 -0.024135,-1.16647 3.4167038,-2.232 7.7055888,-2.36917 3.0938,-0.0989 5.885429,0.32906 7.15536,1.08928 0.43379,0.26513 0.6681,0.55089 0.677016,0.84908 z m -12.245416,0.34686 c 0.03433,1.16891 -3.4206805,2.27728 -7.7683835,2.272 -4.37211569,-0.005 -7.804534,-1.16608 -7.7329724,-2.35075 0.069706,-1.15368 3.53620669,-1.91954 7.7328841,-1.92497 4.2238712,-0.005 7.7332128,0.80388 7.7684718,2.00372 z m -12.59622708,0.0572 c -0.039427,1.16072 -3.56113422,2.06231 -7.93696712,1.56163 -4.3984768,-0.50328 -7.6356858,-2.2271 -7.3693118,-3.39292 0.259409,-1.13526 3.794845,-1.29327 7.8523131,-0.82921 4.0860327,0.46733 7.49443681,1.46854 7.45396582,2.6605 z"
       inkscape:path-effect="#path-effect4935"
       inkscape:original-d="m 342.43964,139.59235 a 3.4923704,2.1365092 0 0 1 -3.49237,2.13651 3.4923704,2.1365092 0 0 1 -3.49237,-2.13651 3.4923704,2.1365092 0 0 1 3.49237,-2.13651 3.4923704,2.1365092 0 0 1 3.49237,2.13651 z m -5.66996,0 a 3.4923704,2.1365092 0 0 1 -3.49237,2.13651 3.4923704,2.1365092 0 0 1 -3.49237,-2.13651 3.4923704,2.1365092 0 0 1 3.49237,-2.13651 3.4923704,2.1365092 0 0 1 3.49237,2.13651 z m -5.50564,0 a 3.4923704,2.1365092 0 0 1 -3.49237,2.13651 3.4923704,2.1365092 0 0 1 -3.49237,-2.13651 3.4923704,2.1365092 0 0 1 3.49237,-2.13651 3.4923704,2.1365092 0 0 1 3.49237,2.13651 z m -5.66995,0 a 3.4923704,2.1365092 0 0 1 -3.49237,2.13651 3.4923704,2.1365092 0 0 1 -3.49238,-2.13651 3.4923704,2.1365092 0 0 1 3.49238,-2.13651 3.4923704,2.1365092 0 0 1 3.49237,2.13651 z m -5.51038,0 a 3.4923704,2.1365092 0 0 1 -3.49237,2.13651 3.4923704,2.1365092 0 0 1 -3.49237,-2.13651 3.4923704,2.1365092 0 0 1 3.49237,-2.13651 3.4923704,2.1365092 0 0 1 3.49237,2.13651 z m -5.66998,0 a 3.4923704,2.1365092 0 0 1 -3.49237,2.13651 3.4923704,2.1365092 0 0 1 -3.49237,-2.13651 3.4923704,2.1365092 0 0 1 3.49237,-2.13651 3.4923704,2.1365092 0 0 1 3.49237,2.13651 z m -5.50562,0 a 3.4923704,2.1365092 0 0 1 -3.49237,2.13651 3.4923704,2.1365092 0 0 1 -3.49237,-2.13651 3.4923704,2.1365092 0 0 1 3.49237,-2.13651 3.4923704,2.1365092 0 0 1 3.49237,2.13651 z m -5.66995,0 a 3.4923704,2.1365092 0 0 1 -3.49237,2.13651 3.4923704,2.1365092 0 0 1 -3.49237,-2.13651 3.4923704,2.1365092 0 0 1 3.49237,-2.13651 3.4923704,2.1365092 0 0 1 3.49237,2.13651 z m -5.30521,0 a 3.4923704,2.1365092 0 0 1 -3.49237,2.13651 3.4923704,2.1365092 0 0 1 -3.49237,-2.13651 3.4923704,2.1365092 0 0 1 3.49237,-2.13651 3.4923704,2.1365092 0 0 1 3.49237,2.13651 z m -5.66998,0 a 3.4923704,2.1365092 0 0 1 -3.49237,2.13651 3.4923704,2.1365092 0 0 1 -3.49237,-2.13651 3.4923704,2.1365092 0 0 1 3.49237,-2.13651 3.4923704,2.1365092 0 0 1 3.49237,2.13651 z m -5.50562,0 a 3.4923704,2.1365092 0 0 1 -3.49237,2.13651 3.4923704,2.1365092 0 0 1 -3.49237,-2.13651 3.4923704,2.1365092 0 0 1 3.49237,-2.13651 3.4923704,2.1365092 0 0 1 3.49237,2.13651 z m -5.66995,0 a 3.4923704,2.1365092 0 0 1 -3.49237,2.13651 3.4923704,2.1365092 0 0 1 -3.49237,-2.13651 3.4923704,2.1365092 0 0 1 3.49237,-2.13651 3.4923704,2.1365092 0 0 1 3.49237,2.13651 z m -5.5104,0 a 3.4923704,2.1365092 0 0 1 -3.49237,2.13651 3.4923704,2.1365092 0 0 1 -3.49238,-2.13651 3.4923704,2.1365092 0 0 1 3.49238,-2.13651 3.4923704,2.1365092 0 0 1 3.49237,2.13651 z m -5.66996,0 a 3.4923704,2.1365092 0 0 1 -3.49237,2.13651 3.4923704,2.1365092 0 0 1 -3.49237,-2.13651 3.4923704,2.1365092 0 0 1 3.49237,-2.13651 3.4923704,2.1365092 0 0 1 3.49237,2.13651 z m -5.50561,0 a 3.4923704,2.1365092 0 0 1 -3.49237,2.13651 3.4923704,2.1365092 0 0 1 -3.49237,-2.13651 3.4923704,2.1365092 0 0 1 3.49237,-2.13651 3.4923704,2.1365092 0 0 1 3.49237,2.13651 z m -5.66997,0 a 3.4923704,2.1365092 0 0 1 -3.49237,2.13651 3.4923704,2.1365092 0 0 1 -3.49237,-2.13651 3.4923704,2.1365092 0 0 1 3.49237,-2.13651 3.4923704,2.1365092 0 0 1 3.49237,2.13651 z m -5.24036,-0.0125 a 3.4923704,2.1365092 0 0 1 -3.49237,2.1365 3.4923704,2.1365092 0 0 1 -3.49237,-2.1365 3.4923704,2.1365092 0 0 1 3.49237,-2.13651 3.4923704,2.1365092 0 0 1 3.49237,2.13651 z m -5.66996,0 a 3.4923704,2.1365092 0 0 1 -3.49237,2.1365 3.4923704,2.1365092 0 0 1 -3.49237,-2.1365 3.4923704,2.1365092 0 0 1 3.49237,-2.13651 3.4923704,2.1365092 0 0 1 3.49237,2.13651 z m -5.50562,0 a 3.4923704,2.1365092 0 0 1 -3.49237,2.1365 3.4923704,2.1365092 0 0 1 -3.49237,-2.1365 3.4923704,2.1365092 0 0 1 3.49237,-2.13651 3.4923704,2.1365092 0 0 1 3.49237,2.13651 z m -5.66997,0 a 3.4923704,2.1365092 0 0 1 -3.49237,2.1365 3.4923704,2.1365092 0 0 1 -3.49237,-2.1365 3.4923704,2.1365092 0 0 1 3.49237,-2.13651 3.4923704,2.1365092 0 0 1 3.49237,2.13651 z m -5.51039,0 a 3.4923704,2.1365092 0 0 1 -3.49237,2.1365 3.4923704,2.1365092 0 0 1 -3.49237,-2.1365 3.4923704,2.1365092 0 0 1 3.49237,-2.13651 3.4923704,2.1365092 0 0 1 3.49237,2.13651 z m -5.66997,0 a 3.4923704,2.1365092 0 0 1 -3.49237,2.1365 3.4923704,2.1365092 0 0 1 -3.49237,-2.1365 3.4923704,2.1365092 0 0 1 3.49237,-2.13651 3.4923704,2.1365092 0 0 1 3.49237,2.13651 z m -5.50561,0 a 3.4923704,2.1365092 0 0 1 -3.49237,2.1365 3.4923704,2.1365092 0 0 1 -3.49237,-2.1365 3.4923704,2.1365092 0 0 1 3.49237,-2.13651 3.4923704,2.1365092 0 0 1 3.49237,2.13651 z m -5.66997,0 a 3.4923704,2.1365092 0 0 1 -3.49237,2.1365 3.4923704,2.1365092 0 0 1 -3.49237,-2.1365 3.4923704,2.1365092 0 0 1 3.49237,-2.13651 3.4923704,2.1365092 0 0 1 3.49237,2.13651 z m -5.3052,0 a 3.4923704,2.1365092 0 0 1 -3.49238,2.1365 3.4923704,2.1365092 0 0 1 -3.49237,-2.1365 3.4923704,2.1365092 0 0 1 3.49237,-2.13651 3.4923704,2.1365092 0 0 1 3.49238,2.13651 z m -5.66997,0 a 3.4923704,2.1365092 0 0 1 -3.49237,2.1365 3.4923704,2.1365092 0 0 1 -3.49237,-2.1365 3.4923704,2.1365092 0 0 1 3.49237,-2.13651 3.4923704,2.1365092 0 0 1 3.49237,2.13651 z m -5.50562,0 a 3.4923704,2.1365092 0 0 1 -3.49237,2.1365 3.4923704,2.1365092 0 0 1 -3.49237,-2.1365 3.4923704,2.1365092 0 0 1 3.49237,-2.13651 3.4923704,2.1365092 0 0 1 3.49237,2.13651 z m -5.66997,0 a 3.4923704,2.1365092 0 0 1 -3.49237,2.1365 3.4923704,2.1365092 0 0 1 -3.49237,-2.1365 3.4923704,2.1365092 0 0 1 3.49237,-2.13651 3.4923704,2.1365092 0 0 1 3.49237,2.13651 z m -5.51039,0 a 3.4923704,2.1365092 0 0 1 -3.49237,2.1365 3.4923704,2.1365092 0 0 1 -3.49237,-2.1365 3.4923704,2.1365092 0 0 1 3.49237,-2.13651 3.4923704,2.1365092 0 0 1 3.49237,2.13651 z m -5.66996,0 a 3.4923704,2.1365092 0 0 1 -3.49237,2.1365 3.4923704,2.1365092 0 0 1 -3.49237,-2.1365 3.4923704,2.1365092 0 0 1 3.49237,-2.13651 3.4923704,2.1365092 0 0 1 3.49237,2.13651 z m -5.50562,0 a 3.4923704,2.1365092 0 0 1 -3.49237,2.1365 3.4923704,2.1365092 0 0 1 -3.49237,-2.1365 3.4923704,2.1365092 0 0 1 3.49237,-2.13651 3.4923704,2.1365092 0 0 1 3.49237,2.13651 z m -5.66997,0 a 3.4923704,2.1365092 0 0 1 -3.49237,2.1365 3.4923704,2.1365092 0 0 1 -3.49237,-2.1365 3.4923704,2.1365092 0 0 1 3.49237,-2.13651 3.4923704,2.1365092 0 0 1 3.49237,2.13651 z m -5.91034,0.0125 a 3.4923704,2.1365092 0 0 1 -3.49237,2.13651 3.4923704,2.1365092 0 0 1 -3.49237,-2.13651 3.4923704,2.1365092 0 0 1 3.49237,-2.13651 3.4923704,2.1365092 0 0 1 3.49237,2.13651 z m -5.66996,0 a 3.4923704,2.1365092 0 0 1 -3.49237,2.13651 3.4923704,2.1365092 0 0 1 -3.49237,-2.13651 3.4923704,2.1365092 0 0 1 3.49237,-2.13651 3.4923704,2.1365092 0 0 1 3.49237,2.13651 z m -5.50563,0 a 3.4923704,2.1365092 0 0 1 -3.49237,2.13651 3.4923704,2.1365092 0 0 1 -3.49238,-2.13651 3.4923704,2.1365092 0 0 1 3.49238,-2.13651 3.4923704,2.1365092 0 0 1 3.49237,2.13651 z m -5.66997,0 a 3.4923704,2.1365092 0 0 1 -3.49237,2.13651 3.4923704,2.1365092 0 0 1 -3.49237,-2.13651 3.4923704,2.1365092 0 0 1 3.49237,-2.13651 3.4923704,2.1365092 0 0 1 3.49237,2.13651 z m -5.51038,0 a 3.4923704,2.1365092 0 0 1 -3.49237,2.13651 3.4923704,2.1365092 0 0 1 -3.49237,-2.13651 3.4923704,2.1365092 0 0 1 3.49237,-2.13651 3.4923704,2.1365092 0 0 1 3.49237,2.13651 z m -5.66997,0 a 3.4923704,2.1365092 0 0 1 -3.49237,2.13651 3.4923704,2.1365092 0 0 1 -3.49237,-2.13651 3.4923704,2.1365092 0 0 1 3.49237,-2.13651 3.4923704,2.1365092 0 0 1 3.49237,2.13651 z m -5.50563,0 a 3.4923704,2.1365092 0 0 1 -3.49237,2.13651 3.4923704,2.1365092 0 0 1 -3.49237,-2.13651 3.4923704,2.1365092 0 0 1 3.49237,-2.13651 3.4923704,2.1365092 0 0 1 3.49237,2.13651 z m -5.66996,0 a 3.4923704,2.1365092 0 0 1 -3.49237,2.13651 3.4923704,2.1365092 0 0 1 -3.49237,-2.13651 3.4923704,2.1365092 0 0 1 3.49237,-2.13651 3.4923704,2.1365092 0 0 1 3.49237,2.13651 z m -5.3052,0 a 3.4923704,2.1365092 0 0 1 -3.49237,2.13651 3.4923704,2.1365092 0 0 1 -3.49237,-2.13651 3.4923704,2.1365092 0 0 1 3.49237,-2.13651 3.4923704,2.1365092 0 0 1 3.49237,2.13651 z m -5.66997,0 a 3.4923704,2.1365092 0 0 1 -3.49237,2.13651 3.4923704,2.1365092 0 0 1 -3.49237,-2.13651 3.4923704,2.1365092 0 0 1 3.49237,-2.13651 3.4923704,2.1365092 0 0 1 3.49237,2.13651 z m -5.50562,0 a 3.4923704,2.1365092 0 0 1 -3.49237,2.13651 3.4923704,2.1365092 0 0 1 -3.49237,-2.13651 3.4923704,2.1365092 0 0 1 3.49237,-2.13651 3.4923704,2.1365092 0 0 1 3.49237,2.13651 z m -5.66996,0 a 3.4923704,2.1365092 0 0 1 -3.492374,2.13651 3.4923704,2.1365092 0 0 1 -3.49237,-2.13651 3.4923704,2.1365092 0 0 1 3.49237,-2.13651 3.4923704,2.1365092 0 0 1 3.492374,2.13651 z m -5.510387,0 a 3.4923704,2.1365092 0 0 1 -3.49237,2.13651 3.4923704,2.1365092 0 0 1 -3.492371,-2.13651 3.4923704,2.1365092 0 0 1 3.492371,-2.13651 3.4923704,2.1365092 0 0 1 3.49237,2.13651 z m -5.669967,0 a 3.4923704,2.1365092 0 0 1 -3.492371,2.13651 3.4923704,2.1365092 0 0 1 -3.49237,-2.13651 3.4923704,2.1365092 0 0 1 3.49237,-2.13651 3.4923704,2.1365092 0 0 1 3.492371,2.13651 z m -5.505616,0 a 3.4923704,2.1365092 0 0 1 -3.49237,2.13651 3.4923704,2.1365092 0 0 1 -3.49237,-2.13651 3.4923704,2.1365092 0 0 1 3.49237,-2.13651 3.4923704,2.1365092 0 0 1 3.49237,2.13651 z m -5.669967,0 a 3.4923704,2.1365092 0 0 1 -3.492371,2.13651 3.4923704,2.1365092 0 0 1 -3.49237,-2.13651 3.4923704,2.1365092 0 0 1 3.49237,-2.13651 3.4923704,2.1365092 0 0 1 3.492371,2.13651 z m -5.240357,-0.0125 a 3.4923704,2.1365092 0 0 1 -3.49237,2.1365 3.4923704,2.1365092 0 0 1 -3.49237,-2.1365 3.4923704,2.1365092 0 0 1 3.49237,-2.13651 3.4923704,2.1365092 0 0 1 3.49237,2.13651 z m -5.669967,0 a 3.4923704,2.1365092 0 0 1 -3.492371,2.1365 3.4923704,2.1365092 0 0 1 -3.49237,-2.1365 3.4923704,2.1365092 0 0 1 3.49237,-2.13651 3.4923704,2.1365092 0 0 1 3.492371,2.13651 z m -5.505619,0 a 3.4923704,2.1365092 0 0 1 -3.492371,2.1365 3.4923704,2.1365092 0 0 1 -3.49237,-2.1365 3.4923704,2.1365092 0 0 1 3.49237,-2.13651 3.4923704,2.1365092 0 0 1 3.492371,2.13651 z m -5.669968,0 a 3.4923704,2.1365092 0 0 1 -3.49237,2.1365 3.4923704,2.1365092 0 0 1 -3.492371,-2.1365 3.4923704,2.1365092 0 0 1 3.492371,-2.13651 3.4923704,2.1365092 0 0 1 3.49237,2.13651 z m -5.510384,0 a 3.4923704,2.1365092 0 0 1 -3.49237,2.1365 3.4923704,2.1365092 0 0 1 -3.49237,-2.1365 3.4923704,2.1365092 0 0 1 3.49237,-2.13651 3.4923704,2.1365092 0 0 1 3.49237,2.13651 z m -5.669967,0 a 3.4923704,2.1365092 0 0 1 -3.492371,2.1365 3.4923704,2.1365092 0 0 1 -3.49237,-2.1365 3.4923704,2.1365092 0 0 1 3.49237,-2.13651 3.4923704,2.1365092 0 0 1 3.492371,2.13651 z m -5.505619,0 a 3.4923704,2.1365092 0 0 1 -3.492371,2.1365 3.4923704,2.1365092 0 0 1 -3.49237,-2.1365 3.4923704,2.1365092 0 0 1 3.49237,-2.13651 3.4923704,2.1365092 0 0 1 3.492371,2.13651 z m -5.669964,0 a 3.4923704,2.1365092 0 0 1 -3.492371,2.1365 3.4923704,2.1365092 0 0 1 -3.49237,-2.1365 3.4923704,2.1365092 0 0 1 3.49237,-2.13651 3.4923704,2.1365092 0 0 1 3.492371,2.13651 z m -5.305208,0 a 3.4923704,2.1365092 0 0 1 -3.492371,2.1365 3.4923704,2.1365092 0 0 1 -3.49237,-2.1365 3.4923704,2.1365092 0 0 1 3.49237,-2.13651 3.4923704,2.1365092 0 0 1 3.492371,2.13651 z m -5.669968,0 a 3.4923704,2.1365092 0 0 1 -3.49237,2.1365 3.4923704,2.1365092 0 0 1 -3.492371,-2.1365 3.4923704,2.1365092 0 0 1 3.492371,-2.13651 3.4923704,2.1365092 0 0 1 3.49237,2.13651 z m -5.50562,0 a 3.4923704,2.1365092 0 0 1 -3.49237,2.1365 3.4923704,2.1365092 0 0 1 -3.492371,-2.1365 3.4923704,2.1365092 0 0 1 3.492371,-2.13651 3.4923704,2.1365092 0 0 1 3.49237,2.13651 z m -5.669966,0 a 3.4923704,2.1365092 0 0 1 -3.49237,2.1365 3.4923704,2.1365092 0 0 1 -3.4923706,-2.1365 3.4923704,2.1365092 0 0 1 3.4923706,-2.13651 3.4923704,2.1365092 0 0 1 3.49237,2.13651 z m -5.5103844,0 a 3.4923704,2.1365092 0 0 1 -3.4923704,2.1365 3.4923704,2.1365092 0 0 1 -3.4923703,-2.1365 3.4923704,2.1365092 0 0 1 3.4923703,-2.13651 3.4923704,2.1365092 0 0 1 3.4923704,2.13651 z m -5.6699656,0 a 3.4923704,2.1365092 0 0 1 -3.4923704,2.1365 3.4923704,2.1365092 0 0 1 -3.4923704,-2.1365 3.4923704,2.1365092 0 0 1 3.4923704,-2.13651 3.4923704,2.1365092 0 0 1 3.4923704,2.13651 z m -5.5056192,0 a 3.4923704,2.1365092 0 0 1 -3.4923704,2.1365 3.4923704,2.1365092 0 0 1 -3.4923704,-2.1365 3.4923704,2.1365092 0 0 1 3.4923704,-2.13651 3.4923704,2.1365092 0 0 1 3.4923704,2.13651 z m -5.6699667,0 a 3.4923704,2.1365092 0 0 1 -3.4923701,2.1365 3.4923704,2.1365092 0 0 1 -3.492371,-2.1365 3.4923704,2.1365092 0 0 1 3.492371,-2.13651 3.4923704,2.1365092 0 0 1 3.4923701,2.13651 z" />
  </g>
</svg>
