<?xml version="1.0" encoding="UTF-8" standalone="no"?>
<!-- Created with Inkscape (http://www.inkscape.org/) -->

<svg
   xmlns:dc="http://purl.org/dc/elements/1.1/"
   xmlns:cc="http://creativecommons.org/ns#"
   xmlns:rdf="http://www.w3.org/1999/02/22-rdf-syntax-ns#"
   xmlns:svg="http://www.w3.org/2000/svg"
   xmlns="http://www.w3.org/2000/svg"
   xmlns:sodipodi="http://sodipodi.sourceforge.net/DTD/sodipodi-0.dtd"
   xmlns:inkscape="http://www.inkscape.org/namespaces/inkscape"
   width="210mm"
   height="297mm"
   viewBox="0 0 210 297"
   version="1.1"
   id="svg853"
   inkscape:version="0.92.3 (2405546, 2018-03-11)"
   sodipodi:docname="Water molecule.svg"
   inkscape:export-filename="D:\Ozer\Pictures\R001-Klepon\Water molecule.png"
   inkscape:export-xdpi="96"
   inkscape:export-ydpi="96">
  <defs
     id="defs847" />
  <sodipodi:namedview
     id="base"
     pagecolor="#ffffff"
     bordercolor="#666666"
     borderopacity="1.0"
     inkscape:pageopacity="0.0"
     inkscape:pageshadow="2"
     inkscape:zoom="0.98994949"
     inkscape:cx="337.22982"
     inkscape:cy="557.2166"
     inkscape:document-units="mm"
     inkscape:current-layer="layer1"
     showgrid="false"
     inkscape:snap-object-midpoints="true"
     inkscape:window-width="1920"
     inkscape:window-height="1017"
     inkscape:window-x="-8"
     inkscape:window-y="-8"
     inkscape:window-maximized="1" />
  <metadata
     id="metadata850">
    <rdf:RDF>
      <cc:Work
         rdf:about="">
        <dc:format>image/svg+xml</dc:format>
        <dc:type
           rdf:resource="http://purl.org/dc/dcmitype/StillImage" />
        <dc:title></dc:title>
      </cc:Work>
    </rdf:RDF>
  </metadata>
  <g
     inkscape:label="Layer 1"
     inkscape:groupmode="layer"
     id="layer1">
    <path
       style="opacity:1;fill:#f62a2a;fill-opacity:1;fill-rule:nonzero;stroke:none;stroke-width:1.32291663;stroke-linecap:round;stroke-linejoin:round;stroke-miterlimit:4;stroke-dasharray:none;stroke-opacity:1"
       d="M 98.518827,135.35196 A 22.678572,22.678572 0 0 1 75.840256,158.03053 22.678572,22.678572 0 0 1 53.161684,135.35196 22.678572,22.678572 0 0 1 75.840256,112.67339 22.678572,22.678572 0 0 1 98.518827,135.35196 Z"
       id="path1398" />
    <path
       style="opacity:1;fill:#ececec;fill-opacity:1;fill-rule:nonzero;stroke:none;stroke-width:1.32291663;stroke-linecap:round;stroke-linejoin:round;stroke-miterlimit:4;stroke-dasharray:none;stroke-opacity:1"
       d="m 66.23822,152.26849 a 15.875,15.875 0 0 1 -15.875,15.875 15.875,15.875 0 0 1 -15.875,-15.875 15.875,15.875 0 0 1 15.875,-15.875 15.875,15.875 0 0 1 15.875,15.875 z"
       id="path1400" />
    <path
       style="opacity:1;fill:#ececec;fill-opacity:1;fill-rule:nonzero;stroke:none;stroke-width:1.32291663;stroke-linecap:round;stroke-linejoin:round;stroke-miterlimit:4;stroke-dasharray:none;stroke-opacity:1"
       d="m 116.75216,152.26849 a 15.875,15.875 0 0 1 -15.875,15.875 15.875,15.875 0 0 1 -15.875001,-15.875 15.875,15.875 0 0 1 15.875001,-15.875 15.875,15.875 0 0 1 15.875,15.875 z"
       id="circle1402" />
    <g
       aria-label="H"
       transform="scale(0.99903552,1.0009654)"
       style="font-style:normal;font-variant:normal;font-weight:normal;font-stretch:normal;font-size:28.80159569px;line-height:1.25;font-family:'Bebas Neue';-inkscape-font-specification:'Bebas Neue';letter-spacing:0px;word-spacing:0px;fill:#282828;fill-opacity:1;stroke:#282828;stroke-width:0.5291667;stroke-linejoin:round;stroke-miterlimit:4;stroke-dasharray:none;stroke-opacity:1"
       id="text1406">
      <path
         d="m 45.166259,162.17331 h 3.168175 v -9.0725 h 3.398589 v 9.0725 h 3.168175 v -20.16112 h -3.168175 v 8.20846 h -3.398589 v -8.20846 h -3.168175 z"
         style="fill:#282828;fill-opacity:1;stroke:#282828;stroke-width:0.5291667;stroke-linejoin:round;stroke-miterlimit:4;stroke-dasharray:none;stroke-opacity:1"
         id="path1419" />
    </g>
    <g
       aria-label="H"
       transform="scale(0.99903553,1.0009654)"
       style="font-style:normal;font-variant:normal;font-weight:normal;font-stretch:normal;font-size:28.80159569px;line-height:1.25;font-family:'Bebas Neue';-inkscape-font-specification:'Bebas Neue';letter-spacing:0px;word-spacing:0px;fill:#282828;fill-opacity:1;stroke:#282828;stroke-width:0.5291667;stroke-linejoin:round;stroke-miterlimit:4;stroke-dasharray:none;stroke-opacity:1"
       id="text1410">
      <path
         d="m 96.431476,162.17331 h 3.168175 v -9.0725 h 3.398589 v 9.0725 h 3.16818 v -20.16112 h -3.16818 v 8.20846 h -3.398589 v -8.20846 h -3.168175 z"
         style="fill:#282828;fill-opacity:1;stroke:#282828;stroke-width:0.5291667;stroke-linejoin:round;stroke-miterlimit:4;stroke-dasharray:none;stroke-opacity:1"
         id="path1422" />
    </g>
    <g
       aria-label="O"
       transform="scale(0.99903553,1.0009654)"
       style="font-style:normal;font-variant:normal;font-weight:normal;font-stretch:normal;font-size:28.80159569px;line-height:1.25;font-family:'Bebas Neue';-inkscape-font-specification:'Bebas Neue';letter-spacing:0px;word-spacing:0px;fill:#282828;fill-opacity:1;stroke:#282828;stroke-width:0.5291667;stroke-linejoin:round;stroke-miterlimit:4;stroke-dasharray:none;stroke-opacity:1"
       id="text1414">
      <path
         d="m 75.662075,145.3744 c 3.110573,0 4.809867,-1.84331 4.809867,-5.06908 v -10.59899 c 0,-3.22578 -1.699294,-5.06908 -4.809867,-5.06908 -3.110572,0 -4.809866,1.8433 -4.809866,5.06908 v 10.59899 c 0,3.22577 1.699294,5.06908 4.809866,5.06908 z m 0,-2.88016 c -1.008055,0 -1.641691,-0.54723 -1.641691,-1.98731 v -11.00221 c 0,-1.44008 0.633636,-1.98731 1.641691,-1.98731 1.008056,0 1.641691,0.54723 1.641691,1.98731 v 11.00221 c 0,1.44008 -0.633635,1.98731 -1.641691,1.98731 z"
         style="fill:#282828;fill-opacity:1;stroke:#282828;stroke-width:0.5291667;stroke-linejoin:round;stroke-miterlimit:4;stroke-dasharray:none;stroke-opacity:1"
         id="path1425" />
    </g>
  </g>
</svg>
